/* XPM */
static char *_dd448fa67da4418b8f2374b5e01c73b0S41BR6khkPybhqo[] = {
/* columns rows colors chars-per-pixel */
"50 50 217 2 ",
"   c black",
".  c black",
"X  c black",
"o  c black",
"O  c black",
"+  c black",
"@  c black",
"#  c black",
"$  c black",
"%  c black",
"&  c black",
"*  c black",
"=  c black",
"-  c black",
";  c black",
":  c black",
">  c black",
",  c black",
"<  c black",
"1  c black",
"2  c black",
"3  c black",
"4  c black",
"5  c black",
"6  c black",
"7  c black",
"8  c black",
"9  c None",
"0  c #010303",
"q  c black",
"w  c black",
"e  c black",
"r  c black",
"t  c black",
"y  c black",
"u  c #0B1921",
"i  c #20485E",
"p  c #317091",
"a  c #3B85AC",
"s  c #3C88B0",
"d  c #367A9E",
"f  c #275973",
"g  c #122936",
"h  c #020506",
"j  c black",
"k  c black",
"l  c black",
"z  c black",
"x  c #081217",
"c  c #2B627F",
"v  c #4AA8DA",
"b  c #54C0F9",
"n  c #50B5EB",
"m  c #3981A7",
"M  c black",
"N  c #0F232D",
"B  c #4092BD",
"V  c #5CC4FA",
"C  c #74CCFB",
"Z  c #88D4FB",
"A  c #8BD5FC",
"S  c #7DD0FB",
"D  c #64C6FA",
"F  c #4DAEE1",
"G  c #20495F",
"H  c #000101",
"J  c #112631",
"K  c #459ECC",
"L  c #58C2FA",
"P  c #8CD5FC",
"I  c #D1EEFE",
"U  c #F3FAFF",
"Y  c #FCFEFF",
"T  c #FDFEFF",
"R  c #F8FCFF",
"E  c #E2F4FE",
"W  c #A9DFFC",
"Q  c #65C7FA",
"!  c #51B7EE",
"~  c #20495E",
"^  c black",
"/  c black",
"(  c #469ECD",
")  c #5BC3FA",
"_  c #AFE2FD",
"`  c #F9FDFF",
"'  c #D5F0FE",
"]  c #70CBFB",
"[  c #4CAEE1",
"{  c #122935",
"}  c black",
"|  c #83D2FB",
" . c #FAFDFF",
".. c #E1F4FE",
"X. c #DCF2FE",
"o. c #EFF9FF",
"O. c #B9E5FD",
"+. c #55C1FA",
"@. c #3880A6",
"#. c black",
"$. c #79CEFB",
"%. c #F1FAFF",
"&. c white",
"*. c #D6F0FE",
"=. c #84D2FB",
"-. c #61C6FA",
";. c #5EC4FA",
":. c #71CBFB",
">. c #B6E4FD",
",. c #ABE0FD",
"<. c #50B5EA",
"1. c black",
"2. c #81D1FB",
"3. c #98D9FC",
"4. c #66C7FB",
"5. c #89D4FC",
"6. c #94D8FC",
"7. c #61C5FA",
"8. c #275872",
"9. c black",
"0. c #35799D",
"q. c black",
"w. c #3C87AF",
"e. c #010304",
"r. c black",
"t. c #102530",
"y. c #469FCE",
"u. c #3A84AB",
"i. c #010203",
"p. c black",
"a. c #193849",
"s. c #4FB4E9",
"d. c #316F90",
"f. c black",
"g. c #1E4458",
"h. c #4FB3E7",
"j. c #55C0F9",
"k. c #1F475C",
"l. c black",
"z. c #2C2E2F",
"x. c #424547",
"c. c #4AA7D9",
"v. c #0B1820",
"b. c black",
"n. c black",
"m. c #BCC3C7",
"M. c #D4DDE1",
"N. c #505355",
"B. c #2B617D",
"V. c black",
"C. c black",
"Z. c #BBC2C6",
"A. c #D3DBE0",
"S. c #4091BC",
"D. c #081116",
"F. c black",
"G. c black",
"H. c #1E4457",
"J. c black",
"K. c black",
"L. c #292B2C",
"P. c #BAC2C6",
"I. c #151616",
"U. c #ADB3B7",
"Y. c #74787B",
"T. c #1E1F20",
"R. c #C7CFD3",
"E. c #56595B",
"W. c #E3ECF1",
"Q. c #858A8D",
"!. c #434547",
"~. c black",
"^. c gray1",
"/. c #9DA3A7",
"(. c #A1A7AB",
"). c #2D2E2F",
"_. c #909699",
"`. c #696D6F",
"'. c #313334",
"]. c #D6DEE3",
"[. c #060606",
"{. c #989EA1",
"}. c #CDD5DA",
"|. c #D9E1E6",
" X c #010101",
".X c #313233",
"XX c #909599",
"oX c #A1A7AA",
"OX c #9DA3A6",
"+X c #848A8C",
"@X c black",
"#X c #020405",
"$X c #55C4FE",
"%X c #54C3FE",
"&X c #55C3FC",
"*X c #55C2FC",
"=X c #54C2FC",
"-X c #54C1FB",
";X c #56C3FD",
":X c white",
">X c #53C0FA",
",X c #56C4FE",
"<X c #55C1FA",
"1X c #54C1FA",
"2X c #55C2FB",
"3X c #57C2FA",
"4X c #52C0FA",
"5X c #56C3FC",
"6X c #56C2FB",
"7X c #E7F0F5",
"8X c #E6EFF4",
"9X c #E4EDF2",
"0X c #E7F0F6",
"qX c #E8F1F6",
"wX c #040404",
"eX c #E5EEF3",
"rX c #E5EFF4",
/* pixels */
":X:X:X:X:X:X:X:X:X:X:X:X:X:X:X:X:X:X:X:X:X:X:X:X:X:X:X:X:X:X:X:X:X:X:X:X:X:X:X:X:X:X:X:X:X:X:X:X:X:X",
":X:X:X:X:X:X:X:X:X:X:X:X:X:X:X:X:X:X:X:X:X:X:X:X:X:X:X:X:X:X:X:X:X:X:X:X:X:X:X:X:X:X:X:X:X:X:X:X:X:X",
":X:X:X:X:X:X:X:X:X:X:X:X:X:X:X:X:X:X:X:X:X:X:X:X:X:X:X:X:X:X:X:X. X o O + :X:X:X:X:X:X:X:X:X:X:X:X:X",
":X:X:X:X:X:X:X:X:X:X:X:X:X:X:X:X:X:X:X:X:X:X:X:X:X:X:X:X:X@ # $ % & * = - ; : > :X:X:X:X:X:X:X:X:X:X",
":X:X:X:X:X:X:X:X:X:X:X:X:X:X:X:X:X:X:X:X:X:X:X:X:X:X:X, < 1 2 @X@X@X@X@X@X@X3 4 5 6 :X:X:X:X:X:X:X:X",
":X:X:X:X:X:X:X:X:X:X:X:X:X:X:X:X:X:X:X:X:X:X:X:X:X6 7 8 @X@X@X@X9 0 #X9 @X@X@X@Xq w e :X:X:X:X:X:X:X",
":X:X:X:X:X:X:X:X:X:X:X:X:X:X:X:X:X:X:X:X:X:X:X:Xr t y @X@X9 u i p a s d f g h @X@X@Xj k :X:X:X:X:X:X",
":X:X:X:X:X:X:X:X:X:X:X:X:X:X:X:X:X:X:X:X:X:X:Xr l z @X@Xx c v b $X%X%X%X&Xn m g @X@X@XM e :X:X:X:X:X",
":X:X:X:X:X:X:X:X:X:X:X:X:X:X:X:X:X:X:X:X:X:Xr l z @X@XN B *X=XV C Z A S D -X$XF G H @X@X< 6 :X:X:X:X",
":X:X:X:X:X:X:X:X:X:X:X:X:X:X:X:X:X:X:X:X:Xr l z @X@XJ K $XL P I U Y T R E W Q =X! ~ @X@X^ / :X:X:X:X",
":X:X:X:X:X:X:X:X:X:X:X:X:X:X:X:X:X:X:X:Xr l z @X@XJ ( ;X) _ ` :X:X:X:X:X:X:X' ] *X[ { @X@X} > :X:X:X",
":X:X:X:X:X:X:X:X:X:X:X:X:X:X:X:X:X:X:Xr l z @X@XJ ( ;X>X|  .:X:XR ..X.o.:X:X:XO.+.,X@.h @X3 #.:X:X:X",
":X:X:X:X:X:X:X:X:X:X:X:X:X:X:X:X:X:Xr l z @X@XJ ( ;X<X>X$.%.&.*.=.-.;.:.>.` &.,.1X2X<.{ @X@X1.:X:X:X",
":X:X:X:X:X:X:X:X:X:X:X:X:X:X:X:X:Xr l z @X@XJ ( ;X<X<X<X3X2.3.4.4X1X1X>XL 5.6.7.1X<X5X8.@X@X9.+ :X:X",
":X:X:X:X:X:X:X:X:X:X:X:X:X:X:X:Xr l z @X@XJ ( ;X<X<X<X<X<X>X4X1X<X<X<X<X<X>X4X1X<X<X,X0.9 @Xq.O :X:X",
":X:X:X:X:X:X:X:X:X:X:X:X:X:X:Xr l z @X@XJ ( ;X<X<X<X<X<X<X<X<X<X<X<X<X<X<X<X<X<X<X<X,Xw.e.@Xr.o :X:X",
":X:X:X:X:X:X:X:X:X:X:X:X:X:Xr l z @X@Xt.y.;X<X<X<X<X<X<X<X<X<X<X<X<X<X<X<X<X<X<X<X<X,Xu.i.@Xp.X :X:X",
":X:X:X:X:X:X:X:X:X:X:X:X:Xr l z @X@X@Xa.s.5X<X<X<X<X<X<X<X<X<X<X<X<X<X<X<X<X<X<X<X<X,Xd.9 @Xf.> :X:X",
":X:X:X:X:X:X:X:X:X:X:X:Xr l z @X@X@X@X@Xg.h.5X<X<X<X<X<X<X<X<X<X<X<X<X<X<X<X<X<X<X<Xj.k.@X@Xl.:X:X:X",
":X:X:X:X:X:X:X:X:X:X:Xr l z @X@Xz.x.@X@X@Xg.h.5X<X<X<X<X<X<X<X<X<X<X<X<X<X<X<X<X<X5Xc.v.@Xb.n.:X:X:X",
":X:X:X:X:X:X:X:X:X:Xr l z @X@Xz.m.M.N.@X@X@Xg.h.5X<X<X<X<X<X<X<X<X<X<X<X<X<X<X<X<X6XB.@X@XV.C.:X:X:X",
":X:X:X:X:X:X:X:X:Xr l z @X@Xz.Z.7X8XA.N.@X@X@Xg.h.5X<X<X<X<X<X<X<X<X<X<X<X<X<X<X,XS.D.@X@XF.:X:X:X:X",
":X:X:X:X:X:X:X:Xr l z @X@Xz.Z.7X9X9X8XA.N.@X@X@Xg.h.5X<X<X<X<X<X<X<X<X<X<X<X<X;XK N @X@X8 G.:X:X:X:X",
":X:X:X:X:X:X:Xr l z @X@Xz.Z.7X9X9X9X9X8XA.N.@X@X@XH.h.5X<X<X<X<X<X<X<X<X<X<X;X( J @X@Xy J.:X:X:X:X:X",
":X:X:X:X:X:Xr l z @X@Xz.Z.7X9X9X9X9X9X9X8XA.N.@X@X@XH.h.5X<X<X<X<X<X<X<X<X;X( J @X@Xz t 6 :X:X:X:X:X",
":X:X:X:X:X6 t z @X@Xz.Z.7X9X9X9X9X9X9X9X9X8XA.N.@X@X@XH.h.5X<X<X<X<X<X<X;X( J @X@Xz l r :X:X:X:X:X:X",
":X:X:X:X:X7 y @X@Xz.Z.7X9X9X9X9X9X9X9X9X9X9X8XA.N.@X@X@XH.h.5X<X<X<X<X;X( J @X@Xz l r :X:X:X:X:X:X:X",
":X:X:X:X, K.@X@XL.P.7X9X9X9X9X9X9X9X9X9X9X9X9X8XA.N.@X@X@XH.h.5X<X<X;X( J @X@Xz l r :X:X:X:X:X:X:X:X",
":X:X:X:X< @X@XI.U.0X9X9X9X9X9X9X9X9X9X9X9X9X9X9X8XA.N.@X@X@XH.h.5X;X( J @X@Xz l r :X:X:X:X:X:X:X:X:X",
":X:X:X@ 1 @X9 Y.8X9X9X9X9X9X9X9X9X9X9X9X9X9X9X9X9X8XA.N.@X@X@Xg.s.y.J @X@Xz l r :X:X:X:X:X:X:X:X:X:X",
":X:X:X# 2 @XT.R.8X9X9X9X9X9X9X9X9X9X9X9X9X9X9X9X9X9X8XA.N.@X@X@Xa.t.@X@Xz l r :X:X:X:X:X:X:X:X:X:X:X",
":X:X:X$ @X@XE.W.9X9X9X9X9X9X9X9X9X9X9X9X9X9X9X9X9X9X9X8XA.N.@X@X@X@X@Xz l r :X:X:X:X:X:X:X:X:X:X:X:X",
":X:X. % @X9 Q.qX9X9X9X9X9X9X9X9X9X9X9X9X9X9X9X9X9X9X9X9X8XM.!.@X@X@Xz l r :X:X:X:X:X:X:X:X:X:X:X:X:X",
":X:XX ~.@X^./.qX9X9X9X9X9X9X9X9X9X9X9X9X9X9X9X9X9X9X9X9X7Xm.z.@X@Xz l r :X:X:X:X:X:X:X:X:X:X:X:X:X:X",
":X:Xo * @XwX(.qX9X9X9X9X9X9X9X9X9X9X9X9X9X9X9X9X9X9X9X7XZ.).@X@Xz l r :X:X:X:X:X:X:X:X:X:X:X:X:X:X:X",
":X:XO = @X9 _.qX9X9X9X9X9X9X9X9X9X9X9X9X9X9X9X9X9X9X7XZ.).@X@Xz l r :X:X:X:X:X:X:X:X:X:X:X:X:X:X:X:X",
":X:X+ - @X@X`.8X9X9X9X9X9X9X9X9X9X9X9X9X9X9X9X9X9X7XZ.).@X@Xz l r :X:X:X:X:X:X:X:X:X:X:X:X:X:X:X:X:X",
":X:X:X; @X@X'.].eX9X9X9X9X9X9X9X9X9X9X9X9X9X9X9X7XZ.).@X@Xz l r :X:X:X:X:X:X:X:X:X:X:X:X:X:X:X:X:X:X",
":X:X:X: 3 @X[.{.qX9X9X9X9X9X9X9X9X9X9X9X9X9X9X7XZ.).@X@Xz l r :X:X:X:X:X:X:X:X:X:X:X:X:X:X:X:X:X:X:X",
":X:X:X> 4 @X@X'.}.8X9X9X9X9X9X9X9X9X9X9X9X9X7XZ.).@X@Xz l r :X:X:X:X:X:X:X:X:X:X:X:X:X:X:X:X:X:X:X:X",
":X:X:X:X5 q @X@XE.|.8X9X9X9X9X9X9X9X9X9X9X0XZ.).@X@Xz l r :X:X:X:X:X:X:X:X:X:X:X:X:X:X:X:X:X:X:X:X:X",
":X:X:X:X6 w @X@X XE.}.qXeX9X9X9X9X9X9X8XrXU.L.@X@Xz l r :X:X:X:X:X:X:X:X:X:X:X:X:X:X:X:X:X:X:X:X:X:X",
":X:X:X:X:Xe j @X@X@X.X{.].8XqXqXqXqXW.R.Y.I.@X@Xz l r :X:X:X:X:X:X:X:X:X:X:X:X:X:X:X:X:X:X:X:X:X:X:X",
":X:X:X:X:X:Xk j @X@X@X[.'.`.XXoXOX+XE.T.@X@X@Xy t r :X:X:X:X:X:X:X:X:X:X:X:X:X:X:X:X:X:X:X:X:X:X:X:X",
":X:X:X:X:X:X:Xe w ^ @X@X@X@X9 wX^.9 @X@X@X@XK.7 6 :X:X:X:X:X:X:X:X:X:X:X:X:X:X:X:X:X:X:X:X:X:X:X:X:X",
":X:X:X:X:X:X:X:X6 / 4 3 @X@X@X@X@X@X@X2 1 < , :X:X:X:X:X:X:X:X:X:X:X:X:X:X:X:X:X:X:X:X:X:X:X:X:X:X:X",
":X:X:X:X:X:X:X:X:X:X> : ; - = * & % $ # @ :X:X:X:X:X:X:X:X:X:X:X:X:X:X:X:X:X:X:X:X:X:X:X:X:X:X:X:X:X",
":X:X:X:X:X:X:X:X:X:X:X:X:X+ O o X . :X:X:X:X:X:X:X:X:X:X:X:X:X:X:X:X:X:X:X:X:X:X:X:X:X:X:X:X:X:X:X:X",
":X:X:X:X:X:X:X:X:X:X:X:X:X:X:X:X:X:X:X:X:X:X:X:X:X:X:X:X:X:X:X:X:X:X:X:X:X:X:X:X:X:X:X:X:X:X:X:X:X:X",
":X:X:X:X:X:X:X:X:X:X:X:X:X:X:X:X:X:X:X:X:X:X:X:X:X:X:X:X:X:X:X:X:X:X:X:X:X:X:X:X:X:X:X:X:X:X:X:X:X:X"
};
