/* XPM */
static char *bd7333869f044da78aeb7db2422d97aczWeYqp5WCDa6qC0B[] = {
/* columns rows colors chars-per-pixel */
"50 50 170 2 ",
"   c black",
".  c #C5C7CA",
"X  c #C4C5CA",
"o  c #C5C6C9",
"O  c #C5C6CA",
"+  c #C5C6CC",
"@  c #C5C7C9",
"#  c #C5C7CB",
"$  c #C7CDCF",
"%  c #C7C4C8",
"&  c #C5C5C9",
"*  c #C8C8C8",
"=  c #C5C5CC",
"-  c #C4C4CA",
";  c #C6C7CA",
":  c #C6C6CB",
">  c #C7C9CD",
",  c #C4C6C9",
"<  c #C7C7CB",
"1  c #C3C7CC",
"2  c #C5C5CA",
"3  c #C3C7CB",
"4  c #C5C5C7",
"5  c #C2C4CD",
"6  c #CEC2B6",
"7  c #A3B7EB",
"8  c #918A91",
"9  c #A09BA1",
"0  c #918B91",
"q  c #928C92",
"w  c #ACA9AC",
"e  c #7F847F",
"r  c #928B92",
"t  c #928A92",
"y  c #8C958C",
"u  c #ADABAD",
"i  c #B2AAB2",
"p  c #B0ACB0",
"a  c #A79EA7",
"s  c #B3AAB3",
"d  c #AFACAF",
"f  c #B3ABB3",
"g  c #333843",
"h  c #323744",
"j  c #B1A8B1",
"k  c #303942",
"l  c #8B8690",
"z  c #313945",
"x  c #2F3945",
"c  c #303A44",
"v  c #313A44",
"b  c #2E3B45",
"n  c #373343",
"m  c #353144",
"M  c #2F3B45",
"N  c #2F3A45",
"B  c #363543",
"V  c #343344",
"C  c #303B45",
"Z  c #C4C6C9",
"A  c #C5C6CA",
"S  c #C5C6CA",
"D  c #C5C6CA",
"F  c #C5C7CA",
"G  c #C5C6CA",
"H  c #C5C6CA",
"J  c #C5C6CA",
"K  c #C5C6CA",
"L  c #C5C6CA",
"P  c #C5C6CA",
"I  c #C5C6C9",
"U  c #C5C6CA",
"Y  c #C5C6CA",
"T  c #C5C6CA",
"R  c #C5C6CA",
"E  c #C5C6CA",
"W  c #C5C6CA",
"Q  c #C5C6CA",
"!  c #C5C6CA",
"~  c #C5C6CA",
"^  c #C5C6CA",
"/  c #C5C6CA",
"(  c #C5C6CA",
")  c #C5C5CA",
"_  c #C5C6CA",
"`  c #C6C6CA",
"'  c #C5C6CA",
"]  c #C4C6CA",
"[  c #C5C6CA",
"{  c #C5C6CB",
"}  c #C5C6CA",
"|  c #C5C6CA",
" . c #C5C6CA",
".. c None",
"X. c #C5C6CA",
"o. c #C5C6CA",
"O. c #C5C6CA",
"+. c #C6C6C9",
"@. c #C5C5C9",
"#. c #C5C6CA",
"$. c #C5C6CA",
"%. c #C5C6CA",
"&. c white",
"*. c #C6C7CB",
"=. c #908990",
"-. c #938C93",
";. c #ABA8AE",
":. c #938C93",
">. c #918A91",
",. c #918A91",
"<. c #908990",
"1. c #918A91",
"2. c #B4ABB4",
"3. c #AFA6AF",
"4. c #A79FA7",
"5. c #B3AAB3",
"6. c #B3AAB3",
"7. c #B3AAB3",
"8. c #B3AAB3",
"9. c #B3AAB3",
"0. c #B6ADB6",
"q. c #B4ABB4",
"w. c #323744",
"e. c #323744",
"r. c #313643",
"t. c #404450",
"y. c #666571",
"u. c #323744",
"i. c #323744",
"p. c #323744",
"a. c #323844",
"s. c #323744",
"d. c #323744",
"f. c #323744",
"g. c #323744",
"h. c #323744",
"j. c #323744",
"k. c #323744",
"l. c #C5C6CA",
"z. c #C4C5C9",
"x. c #ACA9AE",
"c. c #A09CA2",
"v. c #A09BA1",
"b. c #8F888F",
"n. c #908990",
"m. c #C4C4C8",
"M. c #B4B3B8",
"N. c #A39FA5",
"B. c #A49FA5",
"V. c #969097",
"C. c #918A91",
"Z. c #C6C7CB",
"A. c #ABA8AD",
"S. c #B6B4B9",
"D. c #A5A1A7",
"F. c #A6A2A8",
"G. c #979198",
"H. c #979197",
"J. c #C1C1C5",
"K. c #BFBFC3",
"L. c #B0AEB3",
"P. c #B0ADB3",
"I. c #A79EA7",
"U. c #B3AAB3",
"Y. c #B4AAB4",
"T. c #B4ABB4",
"R. c #696873",
"E. c #323744",
"W. c #303542",
"Q. c white",
/* pixels */
"Q.Q.Q.Q.Q.Q.Q.Q.Q.Q.Q.Q.Q.Q.Q.Q.Q.Q.Q.Q.Q.Q.Q.Q.Q.Q.Q.Q.Q.Q.Q.Q.Q.Q.Q.Q.Q.Q.Q.Q.Q.Q.Q.Q.Q.Q.Q.Q.Q.Q.",
"Q.Q.Q.Q.Q.Q.Q.Q.Q.Q.Q.Q.Q.Q.Q.Q.Q.Q.Q.. X o O O O O O O O + @ Q.Q.Q.Q.Q.Q.Q.Q.Q.Q.Q.Q.Q.Q.Q.Q.Q.Q.Q.",
"Q.Q.Q.Q.Q.Q.Q.Q.Q.Q.Q.Q.Q.Q.Q.Q.Q.# $ O O Z A S D D S A F O O % & Q.Q.Q.Q.Q.Q.Q.Q.Q.Q.Q.Q.Q.Q.Q.Q.Q.",
"Q.Q.Q.Q.Q.Q.Q.Q.Q.Q.Q.Q.Q.Q.Q.* O O & G H J K L P P L K J H G O O O = Q.Q.Q.Q.Q.Q.Q.Q.Q.Q.Q.Q.Q.Q.Q.",
"Q.Q.Q.Q.Q.Q.Q.Q.Q.Q.Q.Q.Q.Q.- ; O I U Y T l.l.l.l.l.l.l.l.T R E W O O : Q.Q.Q.Q.Q.Q.Q.Q.Q.Q.Q.Q.Q.Q.",
"Q.Q.Q.Q.Q.Q.Q.Q.Q.Q.Q.Q.Q.> , O Q ! ~ l.l.l.l.l.l.l.l.l.l.l.l.~ ! Q O , < Q.Q.Q.Q.Q.Q.Q.Q.Q.Q.Q.Q.Q.",
"Q.Q.Q.Q.Q.Q.Q.Q.Q.Q.Q.Q.1 O O S ^ l.l.l.l.l.l.l.l.l.l.l.l.l.l.l.l.^ S O O 2 Q.Q.Q.Q.Q.Q.Q.Q.Q.Q.Q.Q.",
"Q.Q.Q.Q.Q.Q.Q.Q.Q.Q.Q.Q.O O / ( l.l.l.l.l.l.l.z.z.z.z.l.l.l.l.l.l.l.( / O O Q.Q.Q.Q.Q.Q.Q.Q.Q.Q.Q.Q.",
"Q.Q.Q.Q.Q.Q.Q.Q.Q.Q.Q.3 O ) _ l.l.l.l.l.l.l.z.x.c.c.x.z.l.l.l.l.l.l.l._ ` O 2 Q.Q.Q.Q.Q.Q.Q.Q.Q.Q.Q.",
"Q.Q.Q.Q.Q.Q.Q.Q.Q.Q.Q.O O ' P l.l.l.l.l.l.l.z.v.b.b.v.z.l.l.l.l.l.l.l.P ' O . Q.Q.Q.Q.Q.Q.Q.Q.Q.Q.Q.",
"Q.Q.Q.Q.Q.Q.Q.Q.Q.Q.Q.O ] [ l.l.l.l.l.l.l.l.z.c.n.n.c.z.l.l.l.l.l.l.l.l.[ { O Q.Q.Q.Q.Q.Q.Q.Q.Q.Q.Q.",
"Q.Q.Q.Q.Q.Q.Q.Q.Q.Q.4 O } | l.l.l.l.l.l.l.l.z.c.n.n.c.z.l.l.l.l.l.l.l.l.| } O 5 Q.Q.Q.Q.Q.Q.Q.Q.Q.Q.",
"Q.Q.Q.Q.Q.Q.Q.Q.Q.Q.6 O  ...l.l.l.l.l.l.l.l.z.c.n.n.c.z.l.l.l.l.l.l.l.l...X.O 7 Q.Q.Q.Q.Q.Q.Q.Q.Q.Q.",
"Q.Q.Q.Q.Q.Q.Q.Q.Q.Q.O O _ l.l.l.l.l.l.l.l.l.m.v.n.n.v.m.l.l.l.l.l.l.l.l.l.o.O O Q.Q.Q.Q.Q.Q.Q.Q.Q.Q.",
"Q.Q.Q.Q.Q.Q.Q.Q.Q.Q.O ) O.l.l.l.l.M.N.B.B.B.N.V.C.C.V.N.B.B.B.N.M.l.l.l.l.O.+.O Q.Q.Q.Q.Q.Q.Q.Q.Q.Q.",
"Q.Q.Q.Q.Q.Q.Q.Q.Q.Q.& @.#.l.l.l.Z.A.b.n.n.n.n.C.C.C.C.n.n.n.n.b.A.Z.l.l.l.#.$.O Q.Q.Q.Q.Q.Q.Q.Q.Q.Q.",
"Q.Q.Q.Q.Q.Q.Q.Q.Q.Q.& @.%.l.l.l.Z.A.b.n.n.n.n.C.C.C.C.n.n.n.n.b.A.Z.l.l.l.%.@.& Q.Q.Q.Q.Q.Q.Q.Q.Q.Q.",
"Q.Q.Q.Q.Q.Q.Q.Q.Q.Q.& @.%.l.l.l.l.S.D.F.F.F.D.G.C.C.G.D.F.F.F.D.S.l.l.l.l.%.@.& Q.Q.Q.Q.Q.Q.Q.Q.Q.Q.",
"Q.Q.Q.Q.Q.Q.Q.Q.Q.Q.& @.%.l.l.l.l.l.l.l.l.l.z.c.n.n.c.z.l.l.l.l.l.l.l.l.l.%.@.& Q.Q.Q.Q.Q.Q.Q.Q.Q.Q.",
"Q.Q.Q.Q.Q.Q.Q.Q.Q.Q.& @.%.l.l.l.l.l.l.l.l.l.z.c.n.n.c.z.l.l.l.l.l.l.l.l.l.%.@.& Q.Q.Q.Q.Q.Q.Q.Q.Q.Q.",
"Q.Q.Q.Q.Q.Q.Q.Q.Q.Q.& @.%.l.l.l.l.l.l.l.l.l.z.c.n.n.c.z.l.l.l.l.l.l.l.l.l.%.@.& Q.Q.Q.Q.Q.Q.Q.Q.Q.Q.",
"Q.Q.Q.Q.Q.Q.Q.Q.Q.Q.& @.%.l.l.l.l.l.l.l.l.l.z.c.n.n.c.z.l.l.l.l.l.l.l.l.l.%.@.& Q.Q.Q.Q.Q.Q.Q.Q.Q.Q.",
"Q.Q.Q.Q.Q.Q.Q.Q.Q.Q.& @.%.l.l.l.l.l.l.l.l.l.z.c.n.n.c.z.l.l.l.l.l.l.l.l.l.%.@.& Q.Q.Q.Q.Q.Q.Q.Q.Q.Q.",
"Q.Q.Q.Q.Q.Q.Q.Q.Q.Q.& @.%.l.l.l.l.l.l.l.l.l.z.c.n.n.c.z.l.l.l.l.l.l.l.l.l.%.@.& Q.Q.Q.Q.Q.Q.Q.Q.Q.Q.",
"Q.Q.Q.Q.Q.Q.Q.Q.Q.Q.& @.%.l.l.l.l.l.l.l.l.l.z.c.n.n.c.z.l.l.l.l.l.l.l.l.l.%.@.& Q.Q.Q.Q.Q.Q.Q.Q.Q.Q.",
"Q.Q.Q.Q.Q.Q.Q.Q.Q.Q.& @.%.l.l.l.l.l.l.l.l.l.z.c.n.n.c.z.l.l.l.l.l.l.l.l.l.%.@.& Q.Q.Q.Q.Q.Q.Q.Q.Q.Q.",
"Q.Q.Q.Q.Q.Q.Q.Q.Q.Q.& @.%.l.l.l.l.l.l.l.l.l.z.c.n.n.c.z.l.l.l.l.l.l.l.l.l.%.@.& Q.Q.Q.Q.Q.Q.Q.Q.Q.Q.",
"Q.Q.Q.Q.Q.Q.Q.Q.Q.Q.& @.%.l.l.l.l.l.l.l.l.l.z.c.n.n.c.z.l.l.l.l.l.l.l.l.l.%.@.& Q.Q.Q.Q.Q.Q.Q.Q.Q.Q.",
"Q.Q.Q.Q.Q.Q.Q.Q.Q.Q.& @.%.l.l.l.l.l.l.l.l.l.z.c.n.n.c.z.l.l.l.l.l.l.l.l.l.%.@.& Q.Q.Q.Q.Q.Q.Q.Q.Q.Q.",
"Q.Q.Q.Q.Q.Q.Q.Q.Q.Q.& @.%.l.l.l.l.l.l.l.l.l.z.c.n.n.c.z.l.l.l.l.l.l.l.l.l.%.@.& Q.Q.Q.Q.Q.Q.Q.Q.Q.Q.",
"Q.Q.Q.Q.Q.Q.Q.Q.Q.Q.& @.%.l.l.l.l.l.l.l.l.l.z.c.n.n.c.z.l.l.l.l.l.l.l.l.l.%.@.& Q.Q.Q.Q.Q.Q.Q.Q.Q.Q.",
"Q.Q.Q.Q.Q.Q.Q.Q.Q.Q.& @.%.l.l.l.l.l.l.l.l.l.z.v.n.n.v.z.l.l.l.l.l.l.l.l.l.%.@.& Q.Q.Q.Q.Q.Q.Q.Q.Q.Q.",
"Q.Q.Q.Q.Q.Q.Q.Q.Q.Q.& @.%.l.l.l.l.l.l.l.l.l.z.D.H.H.D.z.l.l.l.l.l.l.l.l.l.%.@.& Q.Q.Q.Q.Q.Q.Q.Q.Q.Q.",
"Q.Q.Q.Q.Q.Q.Q.Q.Q.Q.& @.%.l.l.l.l.l.l.l.l.l.l.J.K.K.J.l.l.l.l.l.l.l.l.l.l.%.@.& Q.Q.Q.Q.Q.Q.Q.Q.Q.Q.",
"Q.Q.Q.Q.Q.Q.Q.Q.Q.Q.& @.%.l.l.l.l.l.l.l.l.l.l.l.l.l.l.l.l.l.l.l.l.l.l.l.l.%.@.& Q.Q.Q.Q.Q.Q.Q.Q.Q.Q.",
"Q.Q.Q.Q.Q.Q.Q.Q.Q.Q.& @.%.l.l.l.l.l.l.l.l.l.l.l.l.l.l.l.l.l.l.l.l.l.l.l.l.%.@.& Q.Q.Q.Q.Q.Q.Q.Q.Q.Q.",
"Q.Q.Q.Q.Q.Q.Q.Q.Q.8 9 &.*.Z.Z.Z.Z.Z.Z.Z.Z.Z.Z.Z.Z.Z.Z.Z.Z.Z.Z.Z.Z.Z.Z.Z.Z.*.&.9 8 Q.Q.Q.Q.Q.Q.Q.Q.Q.",
"Q.Q.Q.Q.Q.Q.Q.Q.0 8 =.-.;.L.P.P.P.P.P.P.P.P.P.P.P.P.P.P.P.P.P.P.P.P.P.P.L.;.:.=.8 q Q.Q.Q.Q.Q.Q.Q.Q.",
"Q.Q.Q.Q.Q.Q.Q.w e r >.,.C.C.C.C.C.C.C.C.C.C.C.C.C.C.C.C.C.C.C.C.C.C.C.C.C.C.,.>.t y u Q.Q.Q.Q.Q.Q.Q.",
"Q.Q.Q.Q.Q.Q.i p a <.1.C.C.C.C.C.C.C.C.C.C.C.C.C.C.C.C.C.C.C.C.C.C.C.C.C.C.C.C.1.<.a i s Q.Q.Q.Q.Q.Q.",
"Q.Q.Q.Q.Q.Q.d s 2.3.4.I.I.I.I.I.I.I.I.I.I.I.I.I.I.I.I.I.I.I.I.I.I.I.I.I.I.I.I.4.3.2.s f Q.Q.Q.Q.Q.Q.",
"Q.Q.Q.Q.Q.Q.s 5.6.U.Y.T.T.T.T.T.T.T.T.T.T.T.T.T.T.T.T.T.T.T.T.T.T.T.T.T.T.T.T.Y.U.7.5.s Q.Q.Q.Q.Q.Q.",
"Q.Q.Q.g g h j 8.9.U.U.U.U.U.U.U.U.U.U.U.U.U.U.U.U.U.U.U.U.U.U.U.U.U.U.U.U.U.U.U.U.9.8.j h g g Q.Q.Q.",
"Q.Q.k h h h l 0.q.T.T.T.T.T.T.T.T.T.T.T.T.T.T.T.T.T.T.T.T.T.T.T.T.T.T.T.T.T.T.T.T.q.0.l h h h z Q.Q.",
"Q.Q.h h w.e.r.t.y.R.R.R.R.R.R.R.R.R.R.R.R.R.R.R.R.R.R.R.R.R.R.R.R.R.R.R.R.R.R.R.R.y.t.r.e.u.h h Q.Q.",
"Q.x h i.p.E.E.E.W.W.W.W.W.W.W.W.W.W.W.W.W.W.W.W.W.W.W.W.W.W.W.W.W.W.W.W.W.W.W.W.W.W.E.E.E.p.a.h c Q.",
"Q.x h s.d.f.g.g.g.g.g.g.g.g.g.g.g.g.g.g.g.g.g.g.g.g.g.g.g.g.g.g.g.g.g.g.g.g.g.g.g.g.g.g.f.d.s.h v Q.",
"Q.b n h.j.k.k.k.k.k.k.k.k.k.k.k.k.k.k.k.k.k.k.k.k.k.k.k.k.k.k.k.k.k.k.k.k.k.k.k.k.k.k.k.k.j.h.m M Q.",
"Q.N B h h h h h h h h h h h h h h h h h h h h h h h h h h h h h h h h h h h h h h h h h h h h V C Q.",
"Q.Q.Q.Q.Q.Q.Q.Q.Q.Q.Q.Q.Q.Q.Q.Q.Q.Q.Q.Q.Q.Q.Q.Q.Q.Q.Q.Q.Q.Q.Q.Q.Q.Q.Q.Q.Q.Q.Q.Q.Q.Q.Q.Q.Q.Q.Q.Q.Q.Q."
};
