/* XPM */
static char *_011[] = {
/* columns rows colors chars-per-pixel */
"50 50 128 2 ",
"   c #C9C9C8",
".  c gray72",
"X  c #A8A7A8",
"o  c #989898",
"O  c #F3F3F3",
"+  c #888887",
"@  c #020501",
"#  c #777777",
"$  c #676766",
"%  c gray93",
"&  c #585857",
"*  c #474746",
"=  c #363736",
"-  c #151615",
";  c #B4B4CC",
":  c #E4E3E3",
">  c #DDDDDD",
",  c #252625",
"<  c #9797B0",
"1  c #D5D5D5",
"2  c #060E06",
"3  c #A7A7B9",
"4  c #747466",
"5  c #CBBBC3",
"6  c #15142A",
"7  c #87879E",
"8  c #676777",
"9  c #191F16",
"0  c #AE99A6",
"q  c #9D8686",
"w  c #262534",
"e  c #EBEBE5",
"r  c #7E7F79",
"t  c #11130C",
"y  c #3C3E39",
"u  c #E7E7E8",
"i  c #C2C2C5",
"p  c #292E25",
"a  c #5E5F5A",
"s  c #4C4F4B",
"d  c #DFD4D3",
"f  c #07080D",
"g  c #6B6E68",
"h  c gray97",
"j  c #9E9F9C",
"k  c #1E1C1E",
"l  c #8E8F8C",
"z  c #342D31",
"x  c #808085",
"c  c #DEE3DE",
"v  c #AEAFAC",
"b  c #B2B2B4",
"n  c #606064",
"m  c #BFBFBC",
"M  c #EDE6EE",
"N  c #1F2120",
"B  c #D3CFD5",
"V  c gray81",
"C  c #505152",
"Z  c #0E110F",
"A  c #0E0C0E",
"S  c #D6DBD7",
"D  c #404142",
"F  c #919293",
"G  c #6F6F70",
"H  c #2D2E2F",
"J  c #D6DCDB",
"K  c #A1A1A4",
"L  c #E6EBEA",
"P  c #FBFBFB",
"I  c black",
"U  c white",
"Y  c black",
"T  c black",
"R  c black",
"E  c black",
"W  c black",
"Q  c black",
"!  c black",
"~  c black",
"^  c black",
"/  c black",
"(  c black",
")  c black",
"_  c black",
"`  c black",
"'  c black",
"]  c black",
"[  c black",
"{  c black",
"}  c black",
"|  c black",
" . c black",
".. c black",
"X. c black",
"o. c black",
"O. c black",
"+. c black",
"@. c black",
"#. c black",
"$. c black",
"%. c black",
"&. c black",
"*. c black",
"=. c black",
"-. c black",
";. c black",
":. c black",
">. c black",
",. c black",
"<. c black",
"1. c black",
"2. c black",
"3. c black",
"4. c black",
"5. c black",
"6. c black",
"7. c black",
"8. c black",
"9. c black",
"0. c black",
"q. c black",
"w. c black",
"e. c black",
"r. c black",
"t. c black",
"y. c black",
"u. c black",
/* pixels */
"U U U U U U U U U U U U U U U U U U U U U U U U U U U U U U U U U U U U U U U U U U U U U U U U U U ",
"U U U U U U U U U U U U U U U U U U U U U U U U U U U U U U U U U U U U U U U U U U U U U U U U U U ",
"U U U U U U U U U U U U U U U U U U U U U U U U U U U U U U U U U U U U U U U U U U U U U U U U U U ",
"U U U U U U U U U U U U U U U U U U U U U U U U U U U U U U U U U U U U U U U U U U U U U U U U U U ",
"U U U U U U U U U U U U U U U U U U U U U U U U U U U U U O > L % U U U U U U U U U U U U U U U U U ",
"U U U U U U U U U U U U U U U U U U U U U U U U U U U U P i X B b m u U U U U U U U U U U U U U U U ",
"U U U U U U U U U U U U U U U U U U U U U U U U U U U U O a > < $ x F h U U U U U U U U U U U U U U ",
"U U U U U U U U U U U U U U U U U U U U U U U U U U U U > y F X 6 6 H i U U U U U U U U U U U U U U ",
"U U U U U U U U U U U U U U U U U U U U U U U U U U U U v H s l G H a L U U U U U U U U U U U U U U ",
"U U U U U U U U U U U U U U U U U U U U U U U U U U U u s & l a g & V U U U U U U U U U U U U U U U ",
"U U U U U U U U U U U U U U U U U U U U U U U U U U L v   0 0 5 j & > U U U U U U U U U U U U U U U ",
"U U U U U U U U U U U U U U U U U U U U U U U U U % V :     d M q m S U U U U U U U U U U U U U U U ",
"U U U U U U U U U U U U U U U U U U U U U U U U P v & b ;   a + 1 U P U U U U U U U U U U U U U U U ",
"U U U U U U U U U U U U U U U U U U U U U U U U > H w 7 3 & y 1 U U U U U U U U U U U U U U U U U U ",
"U U U U U U U U U U U U U U U U U U U U U U U U m - y 8 8 w z u U U U U U U U U U U U U U U U U U U ",
"U U U U U U U U U U U U U U U U U U U U U U U U l Z H - - , H > U U U U U U U U U U U U U U U U U U ",
"U U U U U U U U U U U U U U U U U U U U U U U O C Z , k A - y : U U U U U U U U U U U U U U U U U U ",
"U U U U U U U U U U U U U U U U U U U U U U U V t N = k Z Z s % U U U U U U U U U U U U U U U U U U ",
"U U U U U U U U U U U U U U U U U U U U U U U x @ , D - 2 Z # U U U U U U U U U U U U U U U U U U U ",
"U U U U U U U U U U U U U U U U U U U U U U % = @ k y - Z N F U U U U U U U U U U U U U U U U U U U ",
"U U U U U U U U U U U U U U U U U U U U U U   2 @ 2 D H A z m U P U U U U U U U U U U U U U U U U U ",
"U U U U U U U U U U U U U U U U U U U U U P r @ @ @ @ 9 N D   P P U U U U U U U U U U U U U U U U U ",
"U U U U U U U U U U U U U U U U U U U U U J 9 @ @ 2 @ Z H y   h h U U U U U U U U U U U U U U U U U ",
"U U U U U U U U U U U U U U U U U U U U U i @ @ @ @ @ 2 k * i U P U U U U U U U U U U U U U U U U U ",
"U U U U U U U U U U U U U U U U U U U U U b @ @ @ 2 N @ y K F U U U U U U U U U U U U U U U U U U U ",
"U U U U U U U U U U U U U U U U U U U U U X y @ @ - k 2 D z j U U U U U U U U U U U U U U U U U U U ",
"U U U U U U U U U U U U U U U U U U U U U m s C N Z @ @ s + V U U U U U U U U U U U U U U U U U U U ",
"U U U U U U U U U U U U U U U U U U U U U V 2 2 + + 2 2 4 O e U U U U U U U U U U U U U U U U U U U ",
"U U U U U U U U U U U U U U U U U U U U U X 2 2 D b 2 @ n m   U U U U U U U U U U U U U U U U U U U ",
"U U U U U U U U U U U U U U U U U U U U U $ @ 2 f V n @ C # : U U U U U U U U U U U U U U U U U U U ",
"U U U U U U U U U U U U U U U U U U U U O * @ @ 2 # i Z 2 F U U U U U U U U U U U U U U U U U U U U ",
"U U U U U U U U U U U U U U U U U U U U u z @ @ 2 -   r @ r P U U U U U U U U U U U U U U U U U U U ",
"U U U U U U U U U U U U U U U U U U U U > k @ @ @ 2 G o - G P U U U U U U U U U U U U U U U U U U U ",
"U U U U U U U U U U U U U U U U U U U U > - @ @ 2 2 , x , F U U U U U U U U U U U U U U U U U U U U ",
"U U U U U U U U U U U U U U U U U U U U > - @ @ @ @ k $ p v U U U U U U U U U U U U U U U U U U U U ",
"U U U U U U U U U U U U U U U U U U U U c k @ @ k t a F * 1 U U U U U U U U U U U U U U U U U U U U ",
"U U U U U U U U U U U U U U U U U U U U c k I @ 9 , X X a O P U U U U U U U U U U U U U U U U U U U ",
"U U U U U U U U U U U U U U U U U U U U > k I @ Z G m a   U U U U U U U U U U U U U U U U U U U U U ",
"U U U U U U U U U U U U U U U U U U U U S - @ @ p o x K P U U U U U U U U U U U P U U U U U U U U U ",
"U U U U U U U U U U U U U U U U U U U U V Z @ Z # + G O U U U U U U U U U U U U u U U U U U U U U U ",
"U U U U U U U U U U U U U U U U U U U U 1 k @ $ l a V U U U U U U U U U U U U U U U U U U U U U U U ",
"U U U U U U U U U U U U U U U U U U U U O & # u . > U U U U U U U U U U U U U U U U U U U U U U U U ",
"U U U U U U U U U U U U U U U U U U U U U X K % U U U U U U U U U U U U U U U U U U U U U U U U U U ",
"U U U U U U U U U U U U U U U U U U U U U . & o O U U U U U U U U U U U U U U U U U U U U U U U U U ",
"U U U U U U U U U U U U U U U U U U U U U + Z k b h U U U U U U U U U U U U U U U U U U U U U U U U ",
"U U U U U U U U U U U U U U U U U U U U h s f I @ C l % U U U U U U U U U U U U U U U U U U U U U U ",
"U U U U U U U U U U U U U U U U U U U U u j * @ @ @ f s b % U U U U U U U U U U U U U U U U U U U U ",
"U U U U U U U U U U U U U U U U U U U U U U % K o o K j . : P U U U U U U U U U U U U U U U U U U U ",
"U U U U U U U U U U U U U U U U U U U U U U U U U U U U U U U U U U U U U U U U U U U U U U U U U U ",
"U U U U U U U U U U U U U U U U U U U U U U U U U U U U U U U U U U U U U U U U U U U U U U U U U U "
};
