/* XPM */
static char *_006[] = {
/* columns rows colors chars-per-pixel */
"50 50 128 2 ",
"   c #C9C9C8",
".  c gray72",
"X  c #D4AFAD",
"o  c #A8A7A8",
"O  c #989898",
"+  c #F3F3F3",
"@  c #888887",
"#  c #020501",
"$  c #777777",
"%  c #676766",
"&  c gray93",
"*  c #585857",
"=  c #474746",
"-  c #363736",
";  c #151615",
":  c #E4E3E3",
">  c #DDDDDD",
",  c #252625",
"<  c #D5D5D5",
"1  c #4A4736",
"2  c #545370",
"3  c #6B6656",
"4  c #D6D6C8",
"5  c #060E06",
"6  c #242617",
"7  c #DFC7C4",
"8  c #969689",
"9  c #A7A7B9",
"0  c #CBBBC3",
"q  c #484758",
"w  c #676777",
"e  c #191F16",
"r  c #AE99A6",
"t  c #BDA5A2",
"y  c #E9DDE0",
"u  c #786564",
"i  c #776B74",
"p  c #7E7F79",
"a  c #11130C",
"s  c #3C3E39",
"d  c #E7E7E8",
"f  c #C2C2C5",
"g  c #292E25",
"h  c #5E5F5A",
"j  c #4C4F4B",
"k  c #0E0907",
"l  c #DFD4D3",
"z  c #6B6E68",
"x  c gray97",
"c  c #9E9F9C",
"v  c #1E1C1E",
"b  c #8E8F8C",
"n  c #342D31",
"m  c #808085",
"M  c #DEE3DE",
"N  c #AEAFAC",
"B  c #B2B2B4",
"V  c #606064",
"C  c #BFBFBC",
"Z  c #1F2120",
"A  c #D3CFD5",
"S  c gray81",
"D  c #505152",
"F  c #0E110F",
"G  c #0E0C0E",
"H  c #D6DBD7",
"J  c #404142",
"K  c #919293",
"L  c #6F6F70",
"P  c #2D2E2F",
"I  c #D6DCDB",
"U  c #A1A1A4",
"Y  c #E6EBEA",
"T  c #FBFBFB",
"R  c black",
"E  c white",
"W  c black",
"Q  c black",
"!  c black",
"~  c black",
"^  c black",
"/  c black",
"(  c black",
")  c black",
"_  c black",
"`  c black",
"'  c black",
"]  c black",
"[  c black",
"{  c black",
"}  c black",
"|  c black",
" . c black",
".. c black",
"X. c black",
"o. c black",
"O. c black",
"+. c black",
"@. c black",
"#. c black",
"$. c black",
"%. c black",
"&. c black",
"*. c black",
"=. c black",
"-. c black",
";. c black",
":. c black",
">. c black",
",. c black",
"<. c black",
"1. c black",
"2. c black",
"3. c black",
"4. c black",
"5. c black",
"6. c black",
"7. c black",
"8. c black",
"9. c black",
"0. c black",
"q. c black",
"w. c black",
"e. c black",
"r. c black",
"t. c black",
"y. c black",
"u. c black",
/* pixels */
"E E E E E E E E E E E E E E E E E E E E E E E E E E E E E E E E E E E E E E E E E E E E E E E E E E ",
"E E E E E E E E E E E E E E E E E E E E E E E E E E E E E E E E E E E E E E E E E E E E E E E E E E ",
"E E E E E E E E E E E E E E E E E E E E E E E E E E E E E E E E E E E E E E E E E E E E E E E E E E ",
"E E E E E E E E E E E E E E E E E E E E E E E E E E E E E E E E E E E E E E E E E E E E E E E E E E ",
"E E E E E E E E E E E E E E E E E E E E E E E E E E E E E E E E E E E E E E E E E E E E E E E E E E ",
"E E E E E E E E E E E E E E E E E E E E E E E E E E E E E E > H + T E E E E E E E E E E E E E E E E ",
"E E E E E E E E E E E E E E E E E E E E E E E E E E E E + B C U B N + E E E E E E E E E E E E E E E ",
"E E E E E E E E E E E E E E E E E E E E E E E E E E E E > o B V q J @ T E E E E E E E E E E E E E E ",
"E E E E E E E E E E E E E E E E E E E E E E E E E E E x c % C w Z Z m T E E E E E E E E E E E E E E ",
"E E E E E E E E E E E E E E E E E E E E E E E E E E T N m ; * U * n f E E E E E E E E E E E E E E E ",
"E E E E E E E E E E E E E E E E E E E E E E E E E E x = h * r h $ % > E E E E E E E E E E E E E E E ",
"E E E E E E E E E E E E E E E E E E E E E E E E E T x <   0 7 A i $ H E E E E E E E E E E E E E E E ",
"E E E E E E E E E E E E E E E E E E E E E E E E x > A & l y . y S x T E E E E E E E E E E E E E E E ",
"E E E E E E E E E E E E E E E E E E E E E E E E S O 9   > p & + + E E E E E E E E E E E E E E E E E ",
"E E E E E E E E E E E E E E E E E E E E E E E : D 2 w = B b d E E E E E E E E E E E E E E E E E E E ",
"E E E E E E E E E E E E E E E E E E E E E E E O v * 2 v L C   E E E E E E E E E E E E E E E E E E E ",
"E E E E E E E E E E E E E E E E E E E E E E + J v F , P D H @ T E E E E E E E E E E E E E E E E E E ",
"E E E E E E E E E E E E E E E E E E E E E E f e a F ; ; s < J > E E E E E E E E E E E E E E E E E E ",
"E E E E E E E E E E E E E E E E E E E E E T $ F F F Z F Z   s K E E E E E E E E E E E E E E E E E E ",
"E E E E E E E E E E E E E E E E E E E E E & g 5 5 G 5 F ; f j - x E E E E E E E E E E E E E E E E E ",
"E E E E E E E E E E E E E E E E E E E E E < 5 5 5 k 5 F a p n F   E E E E E E E E E E E E E E E E E ",
"E E E E E E E E E E E E E E E E E E E E E B 5 5 # # 5 5 a e F F @ E E E E E E E E E E E E E E E E E ",
"E E E E E E E E E E E E E E E E E E E E E @ # # # # # 5 F F F F J d E E E E E E E E E E E E E E E E ",
"E E E E E E E E E E E E E E E E E E E E E V 5 # # # # k F F F F F N E E E E E E E E E E E E E E E E ",
"E E E E E E E E E E E E E E E E E E E E & J # # # # # # 5 G F F F = x E E E E E E E E E E E E E E E ",
"E E E E E E E E E E E E E E E E E E E E : , # # # # # 5 5 5 P = ; ; N E E E E E E E E E E E E E E E ",
"E E E E E E E E E E E E E E E E E E E E M - ; # # # # F 5 5 . : * % D + E E E E E E E E E E E E E E ",
"E E E E E E E E E E E E E E E E E E E E . e e Z , # G ; 5 5   E < B S E E E E E E E E E E E E E E E ",
"E E E E E E E E E E E E E E E E E E E & 3     % P = * g ; k   E E E E E E E E E E E E E E E E E E E ",
"E E E E E E E E E E E E E E E E E E E f t 4 X , # - O K - v H E E E E E E E E E E E E E E E E E E E ",
"E E E E E E E E E E E E E E E E E E E & N u 1 # # , * C 5 * x E E E E E E E E E E E E E E E E E E E ",
"E E E E E E E E E E E E E E E E E E E E & h R # # v s f , m T E E E E E E E E E E E E E E E E E E E ",
"E E E E E E E E E E E E E E E E E E E E E m R R # # , . * O E E E E E E E E E E E E E E E E E E E E ",
"E E E E E E E E E E E E E E E E E E E E Y s R R # # g c $ p T E E E E E E E E E E E E E E E E E E E ",
"E E E E E E E E E E E E E E E E E E E E o # # R G # , % p P & E E E E E E E E E E E E E E E E E E E ",
"E E E E E E E E E E E E E E E E E E E & % # # $ > D ; J @ F . E E E E E E E E E E E E E E E E E E E ",
"E E E E E E E E E E E E E E E E E E + o n R F H E c 5 g K 6 o E E E E E E E E E E E E E E E E E E E ",
"E E E E E E E E E E E E E E E E E : @ j 5 # b T E N # e K , . E E E E E E E E E E E E E E E E E E E ",
"E E E E E E E E E E E E E E E E x c G a # p & x T C 5 ; 8 j   E E E E E E E E E E E E E E E E E E E ",
"E E E E E E E E E E E E E E E E N j 5 Z N T E T E : , # b z I E E E E E E E E E E E E E E E E E E E ",
"E E E E E E E E E E E E E E T x S g # B E E E E E & = R K p d E E E E E E E E E E E E E E E E E E E ",
"E E E E E E E E E E E E E d C + E . c T T E E E E T m R K K & E E E E E E E E E E E E E E E E E E E ",
"E E E E E E E E E E E E E + $   + d x E E E E E E E   Z $ c x E E E E E E E E E E E E E E E E E E E ",
"E E E E E E E E E E E E E E S . & E E E E E E E E E H P * O + E E E E E E E E E E E E E E E E E E E ",
"E E E E E E E E E E E E E E I m d E E E E E E E E E x L j . T E E E E E E E E E E E E E E E E E E E ",
"E E E E E E E E E E E E E E & m & E E E E E E E E E E & f > f + E E E E E E E E E E E E E E E E E E ",
"E E E E E E E E E E E E E E T O > T T + x H S > : & x S , = v $ & T E E E E E E E E E E E E E E E E ",
"E E E E E E E E E E E E E E E + & x & N p - G R R P % - # R # = $ A E E E E E E E E E E E E E E E E ",
"E E E E E E E E E E E E E E E E E E E T T T > f   < I H < > & T T E E E E E E E E E E E E E E E E E ",
"E E E E E E E E E E E E E E E E E E E E E E E E E E E E E E E E E E E E E E E E E E E E E E E E E E "
};
