/* XPM */
static char *_004[] = {
/* columns rows colors chars-per-pixel */
"50 50 128 2 ",
"   c #C9C9C8",
".  c gray72",
"X  c #A8A7A8",
"o  c #989898",
"O  c #F3F3F3",
"+  c #888887",
"@  c #020501",
"#  c #777777",
"$  c #676766",
"%  c gray93",
"&  c #938975",
"*  c #CCC8B5",
"=  c #946D6B",
"-  c #585857",
";  c #474746",
":  c #363736",
">  c #151615",
",  c #E4E3E3",
"<  c #DDDDDD",
"1  c #252625",
"2  c #B4908B",
"3  c #D5D5D5",
"4  c #6B6656",
"5  c #060E06",
"6  c #DFC7C4",
"7  c #969689",
"8  c #A7A7B9",
"9  c #575647",
"0  c #484758",
"q  c #87879E",
"w  c #333326",
"e  c #676777",
"r  c #191F16",
"t  c #AE99A6",
"y  c #BDA5A2",
"u  c #E9DDE0",
"i  c #262534",
"p  c #786564",
"a  c #7E7F79",
"s  c #11130C",
"d  c #3C3E39",
"f  c #E7E7E8",
"g  c #C2C2C5",
"h  c #292E25",
"j  c #5E5F5A",
"k  c #4C4F4B",
"l  c #DFD4D3",
"z  c #6B6E68",
"x  c gray97",
"c  c #9E9F9C",
"v  c #1E1C1E",
"b  c #8E8F8C",
"n  c #342D31",
"m  c #808085",
"M  c #DEE3DE",
"N  c #AEAFAC",
"B  c #B2B2B4",
"V  c #EFF3F4",
"C  c #606064",
"Z  c #BFBFBC",
"A  c #1F2120",
"S  c #D3CFD5",
"D  c gray81",
"F  c #505152",
"G  c #0E110F",
"H  c #0E0C0E",
"J  c #D6DBD7",
"K  c #404142",
"L  c #919293",
"P  c #6F6F70",
"I  c #2D2E2F",
"U  c #A1A1A4",
"Y  c #E6EBEA",
"T  c #FBFBFB",
"R  c black",
"E  c white",
"W  c black",
"Q  c black",
"!  c black",
"~  c black",
"^  c black",
"/  c black",
"(  c black",
")  c black",
"_  c black",
"`  c black",
"'  c black",
"]  c black",
"[  c black",
"{  c black",
"}  c black",
"|  c black",
" . c black",
".. c black",
"X. c black",
"o. c black",
"O. c black",
"+. c black",
"@. c black",
"#. c black",
"$. c black",
"%. c black",
"&. c black",
"*. c black",
"=. c black",
"-. c black",
";. c black",
":. c black",
">. c black",
",. c black",
"<. c black",
"1. c black",
"2. c black",
"3. c black",
"4. c black",
"5. c black",
"6. c black",
"7. c black",
"8. c black",
"9. c black",
"0. c black",
"q. c black",
"w. c black",
"e. c black",
"r. c black",
"t. c black",
"y. c black",
"u. c black",
/* pixels */
"E E E E E E E E E E E E E E E E E E E E E E E E E E E E E E E E E E E E E E E E E E E E E E E E E E ",
"E E E E E E E E E E E E E E E E E E E E E E E E E E E E E E E E E E E E E E E E E E E E E E E E E E ",
"E E E E E E E E E E E E E E E E E E E E E E E E E E E E E E E E E E E E E E E E E E E E E E E E E E ",
"E E E E E E E E E E E E E E E E E E E E E E E E E E E E E E E E E E E E E E E E E E E E E E E E E E ",
"E E E E E E E E E E E E E E E E E E E E E E E E E E E E E E E E E E E E E E E E E E E E E E E E E E ",
"E E E E E E E E E E E E E E E E E E E E E E E E E E E E E E E O x E E E E E E E E E E E E E E E E E ",
"E E E E E E E E E E E E E E E E E E E E E E E E E E E E E x f . X g 3 T E E E E E E E E E E E E E E ",
"E E E E E E E E E E E E E E E E E E E E E E E E E O E E E , L . + L b U E E E E E E E E E E E E E E ",
"E E E E E E E E E E E E E E E E E E E E E E E E E E E E x U c g e I A # E E E E E E E E E E E E E E ",
"E E E E E E E E E E E E E E E E E E E E E E E E E E E g B + > o L A A L E E E E E E E E E E E E E E ",
"E E E E E E E E E E E E E E E E E E E E E E E E E E E   K P v $ # m d Z E E E E E E E E E E E E E E ",
"E E E E E E E E E E E E E E E E E E E E E E E E E E x < c Z y 6 a p P < E E E E E E E E E E E E E E ",
"E E E E E E E E E E E E E E E E E E E E E E E E E x f f E u u l u t - J E E E E E E E E E E E E E E ",
"E E E E E E E E E E E E E E E E E E E E E E E E E , Z 8 g f . M D B < T E E E E E E E E E E E E E E ",
"E E E E E E E E E E E E E E E E E E E E E E E E E U 0 q X B N E E T E E E E E E E E E E E E E E E E ",
"E E E E E E E E E E E E E E E E E E E E E E E E , K i e e ; a % % O E E E E E E E E E E E E E E E E ",
"E E E E E E E E E E E E E E E E E E E E E E E E B v > C e 1 ; f T E E E E E E E E E E E E E E E E E ",
"E E E E E E E E E E E E E E E E E E E E E E E T a G G H H v ; % E E E E E E E E E E E E E E E E E E ",
"E E E E E E E E E E E E E E E E E E E E E E E f : H G 5 H G k O E E E E E E E E E E E E E E E E E E ",
"E E E E E E E E E E E E E E E E E E E E E E E g r 5 G H G G k O E E E E E E E E E E E E E E E E E E ",
"E E E E E E E E E E E E E E E E E E E E E E E o s H H H G G ; % E E E E E E E E E E E E E E E E E E ",
"E E E E E E E E E E E E E E E E E E E E E E E - 5 5 5 > G G k V E E E E E E E E E E E E E E E E E E ",
"E E E E E E E E E E E E E E E E E E E E E E % : 5 5 5 G r G F O E E E E E E E E E E E E E E E E E E ",
"E E E E E E E E E E E E E E E E E E E E E E   r 5 5 5 G A > ; % E E E E E E E E E E E E E E E E E E ",
"E E E E E E E E E E E E E E E E E E E E E E o 5 5 @ G 5 : - : f x T E E E E E E E E E E E E E E E E ",
"E E E E E E E E E E E E E E E E E E E E E T # @ @ @ G @ > v I g T x E E E E E E E E E E E E E E E E ",
"E E E E E E E E E E E E E E E E E E E E E E o @ @ @ @ @ @ k ; C x T E E E E E E E E E E E E E E E E ",
"E E E E E E E E E E E E E E E E E E E E E E o h G @ @ @ s h K A D E E E E E E E E E E E E E E E E E ",
"E E E E E E E E E E E E E E E E E E E E E E o r : h s > @ h z - D E E E E E E E E E E E E E E E E E ",
"E E E E E E E E E E E E E E E E E E E E E E + @ @ G h L d & * c . E E E E E E E E E E E E E E E E E ",
"E E E E E E E E E E E E E E E E E E E E E E U @ @ @ A m + # 2 = z x E E E E E E E E E E E E E E E E ",
"E E E E E E E E E E E E E E E E E E E E E E D G @ @ @ - 7 $ 4 4 o E E E E E E E E E E E E E E E E E ",
"E E E E E E E E E E E E E E E E E E E E E E O d R @ @ : $ o ; , E E E E E E E E E E E E E E E E E E ",
"E E E E E E E E E E E E E E E E E E E E E E E a R R @ @ j b P T x E E E E E E E E E E E E E E E E E ",
"E E E E E E E E E E E E E E E E E E E E E E E + R R @ R w F a O T E E E E E E E E E E E E E E E E E ",
"E E E E E E E E E E E E E E E E E E E E E E T F @ @ @ @ A n $ , E E E E E E E E E E E E E E E E E E ",
"E E E E E E E E E E E E E E E E E E E E E E J v R R @ @ > : L < E E E E E E E E E E E E E E E E E E ",
"E E E E E E E E E E E E E E E E E E E E E E o @ R R 5 @ A F 7 f E E E E E E E E E E E E E E E E E E ",
"E E E E E E E E E E E E E E E E E E E E E T P @ R @ 5 @ K m L T E E E E E E E E E E E E E E E E E E ",
"E E E E E E E E E E E E E E E E E E E E E x - 5 R 5 @ A j B Y E E E E E E E E E E E E E E E E E E E ",
"E E E E E E E E E E E E E E E E E E E E E x $ 5 R @ v k Z % E E E E E E E E E E E E E E E E E E E E ",
"E E E E E E E E E E E E E E E E E E E E E E c @ 5 1 k N S E E E E E E E E E E E E E E E E E E E E E ",
"E E E E E E E E E E E E E E E E E E E E E % z : # g c f T E E E E E E E E E E E E E E E E E E E E E ",
"E E E E E E E E E E E E E E E E E E E E E O . a X   % E E E E E E E E E E E E E E E E E E E E E E E ",
"E E E E E E E E E E E E E E E E E E E E E T D X c 3 x E E E E E E E E E E E E E E E E E E E E E E E ",
"E E E E E E E E E E E E E E E E E E E E E E X 9 A # % T E E E E E E E E E E E E E E E E E E E E E E ",
"E E E E E E E E E E E E E E E E E E E E E x m s H s # + < T E E E E E E E E E E E E E E E E E E E E ",
"E E E E E E E E E E E E E E E E E E E E < # @ @ @ @ R @ # c D O E E E E E E E E E E E E E E E E E E ",
"E E E E E E E E E E E E E E E E E E E E T ,   Z B N L U X . Z   % E E E E E E E E E E E E E E E E E ",
"E E E E E E E E E E E E E E E E E E E E E E E E E E E E E E E E E E E E E E E E E E E E E E E E E E "
};
