/* XPM */
static char *_000[] = {
/* columns rows colors chars-per-pixel */
"50 50 128 2 ",
"   c #C9C9C8",
".  c gray72",
"X  c #A8A7A8",
"o  c #989898",
"O  c #F3F3F3",
"+  c #888887",
"@  c #020501",
"#  c #777777",
"$  c #676766",
"%  c gray93",
"&  c #CCC8B5",
"*  c #585857",
"=  c #474746",
"-  c #363736",
";  c #151615",
":  c #E4E3E3",
">  c #DDDDDD",
",  c #252625",
"<  c #B4908B",
"1  c #D5D5D5",
"2  c #AAA897",
"3  c #71514D",
"4  c #060E06",
"5  c #DFC7C4",
"6  c #969689",
"7  c #575647",
"8  c #CBBBC3",
"9  c #484758",
"0  c #191F16",
"q  c #BDA5A2",
"w  c #9D8686",
"e  c #7E7F79",
"r  c #11130C",
"t  c #3C3E39",
"y  c #352625",
"u  c #E7E7E8",
"i  c #C2C2C5",
"p  c #5E5F5A",
"a  c #4C4F4B",
"s  c #DFD4D3",
"d  c #07080D",
"f  c #6B6E68",
"g  c #B5ACB5",
"h  c gray97",
"j  c #9E9F9C",
"k  c #1E1C1E",
"l  c #8E8F8C",
"z  c #342D31",
"x  c #808085",
"c  c #DEE3DE",
"v  c #AEAFAC",
"b  c #B2B2B4",
"n  c #EFF3F4",
"m  c #606064",
"M  c #BFBFBC",
"N  c #1F2120",
"B  c #D3CFD5",
"V  c gray81",
"C  c #505152",
"Z  c #0E110F",
"A  c #0E0C0E",
"S  c #D6DBD7",
"D  c #404142",
"F  c #919293",
"G  c #6F6F70",
"H  c #2D2E2F",
"J  c #D6DCDB",
"K  c #A1A1A4",
"L  c #E6EBEA",
"P  c #FBFBFB",
"I  c black",
"U  c white",
"Y  c black",
"T  c black",
"R  c black",
"E  c black",
"W  c black",
"Q  c black",
"!  c black",
"~  c black",
"^  c black",
"/  c black",
"(  c black",
")  c black",
"_  c black",
"`  c black",
"'  c black",
"]  c black",
"[  c black",
"{  c black",
"}  c black",
"|  c black",
" . c black",
".. c black",
"X. c black",
"o. c black",
"O. c black",
"+. c black",
"@. c black",
"#. c black",
"$. c black",
"%. c black",
"&. c black",
"*. c black",
"=. c black",
"-. c black",
";. c black",
":. c black",
">. c black",
",. c black",
"<. c black",
"1. c black",
"2. c black",
"3. c black",
"4. c black",
"5. c black",
"6. c black",
"7. c black",
"8. c black",
"9. c black",
"0. c black",
"q. c black",
"w. c black",
"e. c black",
"r. c black",
"t. c black",
"y. c black",
"u. c black",
/* pixels */
"U U U U U U U U U U U U U U U U U U U U U U U U U U U U U U U U U U U U U U U U U U U U U U U U U U ",
"U U U U U U U U U U U U U U U U U U U U U U U U U U U U U U U U U U U U U U U U U U U U U U U U U U ",
"U U U U U U U U U U U U U U U U U U U U U U U U U U U U U U U U U U U U U U U U U U U U U U U U U U ",
"U U U U U U U U U U U U U U U U U U U U U U U U U U U U U U U U U U U U U U U U U U U U U U U U U U ",
"U U U U U U U U U U U U U U U U U U U U U U U U U U U U U U U U U U U U U U U U U U U U U U U U U U ",
"U U U U U U U U U U U U U U U U U U U U U U U U U U U U U U U U U U U U U U U U U U U U U U U U U U ",
"U U U U U U U U U U U U U U U U U U U U U U U U U U U U U U 1 B u O U U U U U U U U U U U U U U U U ",
"U U U U U U U U U U U U U U U U U U U U U U U U U U U U P b . m D = K h U U U U U U U U U U U U U U ",
"U U U U U U U U U U U U U U U U U U U U U U U U U U U O X t o x ; ; ; i U U U U U U U U U U U U U U ",
"U U U U U U U U U U U U U U U U U U U U U U U U U U U % j 0 H e C ; $ O U U U U U U U U U U U U U U ",
"U U U U U U U U U U U U U U U U U U U U U U U U U U % > # 3 K e = D b U U U U U U U U U U U U U U U ",
"U U U U U U U U U U U U U U U U U U U U U U U U U u % S   8 s q < - F U U U U U U U U U U U U U U U ",
"U U U U U U U U U U U U U U U U U U U U U U U U > . M P : > g s q m o h U U U U U U U U U U U U U U ",
"U U U U U U U U U U U U U U U U U U U U U U U h x + F i s w y p K u U U U U U U U U U U U U U U U U ",
"U U U U U U U U U U U U U U U U U U U U U U U V x 9 Z + O F e O P U U U U U U U U U U U U U U U U U ",
"U U U U U U U U U U U U U U U U U U U U U U U o * N 4 t % v K U U U U U U U U U U U U U U U U U U U ",
"U U U U U U U U U U U U U U U U U U U U U U O t d A Z @ > 1 X h U U U U U U U U U U U U U U U U U U ",
"U U U U U U U U U U U U U U U U U U U U U U i A 4 Z A 4 M h + n U U U U U U U U U U U U U U U U U U ",
"U U U U U U U U U U U U U U U U U U U U U U F @ @ , A @ + P x P U U U U U U U U U U U U U U U U U U ",
"U U U U U U U U U U U U U U U U U U U U U P x @ @ @ @ 4 C h l U U U U U U U U U U U U U U U U U U U ",
"U U U U U U U U U U U U U U U U U U U U U P x @ @ @ @ 4 H > + U U U U U U U U U U U U U U U U U U U ",
"U U U U U U U U U U U U U U U U U U U U U h $ 4 @ @ @ 4 ; i # P U U U U U U U U U U U U U U U U U U ",
"U U U U U U U U U U U U U U U U U U U U U O - 4 @ @ @ 4 A X * % U U U U U U U U U U U U U U U U U U ",
"U U U U U U U U U U U U U U U U U U U P P : D ; @ @ @ 4 4 H = M U U U U U U U U U U U U U U U U U U ",
"U U U U U U U U U U U U U U U U U U U h P   C p @ @ @ @ 4 ; = = P U U U U U U U U U U U U U U U U U ",
"U U U U U U U U U U U U U U U U U U U U U v t C 4 @ @ 4 A x i H % U U U U U U U U U U U U U U U U U ",
"U U U U U U U U U U U U U U U U U U U U O C k , A @ 4 Z k z 1 + n P P U U U U U U U U U U U U U U U ",
"U U U U U U U U U U U U U U U U U U U U h m 6 v k Z + # - r l o P P P U U U U U U U U U U U U U U U ",
"U U U U U U U U U U U U U U U U U U U U % + & 5 = $ a = H , + $ P P P U U U U U U U U U U U U U U U ",
"U U U U U U U U U U U U U U U U U U U U b 2 5 w k M * ; 0 ; $ M U U U U U U U U U U U U U U U U U U ",
"U U U U U U U U U U U U U U U U U U U U u e e k 4 i m Z Z - O U U P U U U U U U U U U U U U U U U U ",
"U U U U U U U U U U U U U U U U U U U P U O v @ A b # A 4 t h U P U U U U U U U U U U U U U U U U U ",
"U U U U U U U U U U U U U U U U U U U U U U > ; 4 K e d 4 D h U U U U U U U U U U U U U U U U U U U ",
"U U U U U U U U U U U U U U U U U U U U U U u , @ o x 4 4 p P U U U U U U U U U U U U U U U U U U U ",
"U U U U U U U U U U U U U U U U U U U U U U h t @ l l 4 4 o U U U U U U U U U P U U U U U U U U U U ",
"U U U U U U U U U U U U U U U U U U U U U U U C @ + F 4 4 . U U U U U U U U U P U U U U U U U U U U ",
"U U U U U U U U U U U U U U U U U U U U U U U * 4 $ v @ 0 J U U U U U U U U U U U U U U U U U U U U ",
"U U U U U U U U U U U U U U U U U U U U U U h a ; p b @ = O U U U U U U U U U U U U U U U U U U U U ",
"U U U U U U U U U U U U U U U U U U U U U U i , @ * X @ $ U U U U U U U U U U U U U U U U U U U U U ",
"U U U U U U U U U U U U U U U U U P U U P   a 4 4 C K @ + U U U U U U U U U U U U U U U U U U U U U ",
"U U U U U U U U U U U U U U U U h P U u F + D Z ; f j @ j U U U U U U U U U U U U U U U U U U U U U ",
"U U U U U U U U U U U U U U U U U U U . 1 M . 7 ; $ x @ b U U U U U U U U U U U U U U U U U U U U U ",
"U U U U U U U U U U U U U U U U U U U   # i . X K b e - : U U U U U U U U U U U U U U U U U U U U U ",
"U U U U U U U U U U U U U U U U U U U O +     O P 1 m p h U U U U U U U U U U U U U U U U U U U U U ",
"U U U U U U U U U U U U U U U U U U U U L o u : h i x j h U U U U U U U U U U U U U U U U U U U U U ",
"U U U U U U U U U U U U U U U U U U U U U   > u O : S c V h U U U U U U U U U U U U U U U U U U U U ",
"U U U U U U U U U U U U U U U U U U U U U h j : i + z C C G V h U U U U U U U U U U U U U U U U U U ",
"U U U U U U U U U U U U U U U U U U U U i X - Z @ I @ I I I @ p   % U U U U U U U U U U U U U U U U ",
"U U U U U U U U U U U U U U U U U U U U : . M                 V 1 % P U U U U U U U U U U U U U U U ",
"U U U U U U U U U U U U U U U U U U U U U U U U U U U U U U U U U U U U U U U U U U U U U U U U U U "
};
