/* XPM */
static char *_010[] = {
/* columns rows colors chars-per-pixel */
"50 50 128 2 ",
"   c #C9C9C8",
".  c gray72",
"X  c #A8A7A8",
"o  c #989898",
"O  c #F3F3F3",
"+  c #888887",
"@  c #020501",
"#  c #777777",
"$  c #676766",
"%  c gray93",
"&  c #938975",
"*  c #585857",
"=  c #474746",
"-  c #363736",
";  c #151615",
":  c #E4E3E3",
">  c #DDDDDD",
",  c #252625",
"<  c #9797B0",
"1  c #D5D5D5",
"2  c #323151",
"3  c #8E7889",
"4  c #F4F4EE",
"5  c #060E06",
"6  c #BAB8A7",
"7  c #747466",
"8  c #575647",
"9  c #CBBBC3",
"0  c #15142A",
"q  c #484758",
"w  c #87879E",
"e  c #191F16",
"r  c #BDA5A2",
"t  c #E9DDE0",
"y  c #9D8686",
"u  c #262534",
"i  c #786564",
"p  c #7E7F79",
"a  c #11130C",
"s  c #3C3E39",
"d  c #E7E7E8",
"f  c #C2C2C5",
"g  c #292E25",
"h  c #5E5F5A",
"j  c #4C4F4B",
"k  c #0E0907",
"l  c #DFD4D3",
"z  c #07080D",
"x  c #6B6E68",
"c  c #B5ACB5",
"v  c gray97",
"b  c #9E9F9C",
"n  c #1E1C1E",
"m  c #8E8F8C",
"M  c #342D31",
"N  c #DEE3DE",
"B  c #AEAFAC",
"V  c #B2B2B4",
"C  c #606064",
"Z  c #BFBFBC",
"A  c #1F2120",
"S  c #D3CFD5",
"D  c gray81",
"F  c #505152",
"G  c #0E110F",
"H  c #0E0C0E",
"J  c #404142",
"K  c #919293",
"L  c #6F6F70",
"P  c #2D2E2F",
"I  c #D6DCDB",
"U  c #A1A1A4",
"Y  c #E6EBEA",
"T  c #FBFBFB",
"R  c black",
"E  c white",
"W  c black",
"Q  c black",
"!  c black",
"~  c black",
"^  c black",
"/  c black",
"(  c black",
")  c black",
"_  c black",
"`  c black",
"'  c black",
"]  c black",
"[  c black",
"{  c black",
"}  c black",
"|  c black",
" . c black",
".. c black",
"X. c black",
"o. c black",
"O. c black",
"+. c black",
"@. c black",
"#. c black",
"$. c black",
"%. c black",
"&. c black",
"*. c black",
"=. c black",
"-. c black",
";. c black",
":. c black",
">. c black",
",. c black",
"<. c black",
"1. c black",
"2. c black",
"3. c black",
"4. c black",
"5. c black",
"6. c black",
"7. c black",
"8. c black",
"9. c black",
"0. c black",
"q. c black",
"w. c black",
"e. c black",
"r. c black",
"t. c black",
"y. c black",
"u. c black",
/* pixels */
"E E E E E E E E E E E E E E E E E E E E E E E E E E E E E E E E E E E E E E E E E E E E E E E E E E ",
"E E E E E E E E E E E E E E E E E E E E E E E E E E E E E E E E E E E E E E E E E E E E E E E E E E ",
"E E E E E E E E E E E E E E E E E E E E E E E E E E E E E E E E E E E E E E E E E E E E E E E E E E ",
"E E E E E E E E E E E E E E E E E E E E E E E E E E E E E E E E E E E E E E E E E E E E E E E E E E ",
"E E E E E E E E E E E E E E E E E E E E E E E E E E E E E E > v E E E E E E E E E E E E E E E E E E ",
"E E E E E E E E E E E E E E E E E E E E E E E E E E E E 1 X Z X f > E E E E E E E E E E E E E E E E ",
"E E E E E E E E E E E E E E E E E E E E E E E E E E E E X f X m b p 1 E E E E E E E E E E E E E E E ",
"E E E E E E E E E E E E E E E E E E E E E E E E E E E E U b . q 0 u . E E E E E E E E E E E E E E E ",
"E E E E E E E E E E E E E E E E E E E E E E E E E E E E # e b # , P > E E E E E E E E E E E E E E E ",
"E E E E E E E E E E E E E E E E E E E E E E E E E E E 1 - * x # $ * T E E E E E E E E E E E E E E E ",
"E E E E E E E E E E E E E E E E E E E E E E E E E E v m h p & y h B E E E E E E E E E E E E E E E E ",
"E E E E E E E E E E E E E E E E E E E E E E E E E E N Y c D l r X d E E E E E E E E E E E E E E E E ",
"E E E E E E E E E E E E E E E E E E E E E E E E T D + D b D p c T E E E E E E E E E E E E E E E E E ",
"E E E E E E E E E E E E E E E E E E E E E E E E 1 F 2 f f 3 C O E E E E E E E E E E E E E E E E E E ",
"E E E E E E E E E E E E E E E E E E E E E E E E D ; - < w M $ v E E E E E E E E E E E E E E E E E E ",
"E E E E E E E E E E E E E E E E E E E E E E E E Z ; J P - P F O E E E E E E E E E E E E E E E E E E ",
"E E E E E E E E E E E E E E E E E E E E E E E T p n A ; G , F O E E E E E E E E E E E E E E E E E E ",
"E E E E E E E E E E E E E E E E E E E E E E E > , , P ; H ; * O E E E E E E E E E E E E E E E E E E ",
"E E E E E E E E E E E E E E E E E E E E E E T # @ g P G H G L E E E E E E E E E E E E E E E E E E E ",
"E E E E E E E E E E E E E E E E E E E E E E f a z , P H G G # E E E E E E E E E E E E E E E E E E E ",
"E E E E E E E E E E E E E E E E E E E E E v x @ G ; - ; A H m E E E E E E E E E E E E E E E E E E E ",
"E E E E E E E E E E E E E E E E E E E E E   5 @ @ @ ; A ; G b E E E E E E E E E E E E E E E E E E E ",
"E E E E E E E E E E E E E E E E E E E E E # @ @ @ @ 5 ; , e X E E E E E E E E E E E E E E E E E E E ",
"E E E E E E E E E E E E E E E E E E E E O = @ @ @ 5 @ e ; , X E E E E E E E E E E E E E E E E E E E ",
"E E E E E E E E E E E E E E E E E E E E O j @ 5 s - @ 5 a A B E E E E E E E E E E E E E E E E E E E ",
"E E E E E E E E E E E E E E E E E E E E % s @ 5 n @ k - # * D E E E E E E E E E E E E E E E E E E E ",
"E E E E E E E E E E E E E E E E E E E E T + @ @ @ @ @ - s C S E E E E E E E E E E E E E E E E E E E ",
"E E E E E E E E E E E E E E E E E E E E E % U , e g F h o   > E E E E E E E E E E E E E E E E E E E ",
"E E E E E E E E E E E E E E E E E E E E T v f ; 5 G P * 9 t t E E E E E E E E E E E E E E E E E E E ",
"E E E E E E E E E E E E E E E E E E E E E : o @ 5 5 @ 5 6 r > E E E E E E E E E E E E E E E E E E E ",
"E E E E E E E E E E E E E E E E E E E E O . 7 5 H 5 e V   i : E E E E E E E E E E E E E E E E E E E ",
"E E E E E E E E E E E E E E E E E E E E B V - 5 5 @ A : E d E E E E E E E E E E E E E E E E E E E E ",
"E E E E E E E E E E E E E E E E E E E : * B 5 5 5 @ ; I T T E E E E E E E E E E E E E E E E E E E E ",
"E E E E E E E E E E E E E E E E E E E o $ + @ 5 @ R n > T T E E E E E E E E E E E E E E E E E E E E ",
"E E E E E E E E E E E E E E E E E E : J # 8 @ @ R R H D E E E E E E E E E E E E E E E E E E E E E E ",
"E E E E E E E E E E E E E E E E E E X L # A G @ @ R @ Z E E E E E E E E E E E E E E E E E E E E E E ",
"E E E E E E E E E E E E E E E E E % + m L J D + R R @ . E E E E E E E E E E E E E E E E E E E E E E ",
"E E E E E E E E E E E E E E E E E V L + n U E   @ R @ V E E E E E E E E E E E E E E E E E E E E E E ",
"E E E E E E E E E E E E E E E E : p + j F % E % J R @ b E E E E E E E E E E E E E E E E E E E E E E ",
"E E E E E E E E E E E E E E E T o $ # P 1 T : T + R @ m E E E E E E E E E E E E E E E E E E E E E E ",
"E E E E E E E E E E E E E E E S # o A B E T T E Z @ R L T E E E E E E E E E E E E E E E E E E E E E ",
"E E E E E E E E E E E E E E v o + = m v E E E E O p G J % E E E E E E E E E E E E E E E E E E E E E ",
"E E E E E E E E E E E E E E v B   K v E E E E E E S # B : E E E E E E E E E E E E E E E E E E E E E ",
"E E E E E E E E E E E E E d D I T E E E E E E E E O 1 D v E E E E E E E E E E E E E E E E E E E E E ",
"E E E E E E E E E E E E E D o * .   E E E E E E E 4 . .   O E E E E E E E E E E E E E E E E E E E E ",
"E E E E E E E E E E E E E v > Z m U O E E E E O d Z F @ z h   T E E E E E E E E E E E E E E E E E E ",
"E E E E E E E E E E E E E E % f b + p V Z . K j M @ @ @ @ G U v E E E E E E E E E E E E E E E E E E ",
"E E E E E E E E E E E E E E E T v v d : > 1 b J J = C o 1 > T E E E E E E E E E E E E E E E E E E E ",
"E E E E E E E E E E E E E E E E E E E E E E E T T T T E E E E E E E E E E E E E E E E E E E E E E E ",
"E E E E E E E E E E E E E E E E E E E E E E E E E E E E E E E E E E E E E E E E E E E E E E E E E E "
};
