/* XPM */
static char *_003[] = {
/* columns rows colors chars-per-pixel */
"50 50 128 2 ",
"   c #C9C9C8",
".  c gray72",
"X  c #A8A7A8",
"o  c #989898",
"O  c #F3F3F3",
"+  c #888887",
"@  c #020501",
"#  c #777777",
"$  c #676766",
"%  c gray93",
"&  c #938975",
"*  c #585857",
"=  c #474746",
"-  c #363736",
";  c #151615",
":  c #B4B4CC",
">  c #E4E3E3",
",  c #DDDDDD",
"<  c #252625",
"1  c #D5D5D5",
"2  c #545370",
"3  c #D6D6C8",
"4  c #060E06",
"5  c #BAB8A7",
"6  c #575647",
"7  c #49394A",
"8  c #CBBBC3",
"9  c #676777",
"0  c #191F16",
"q  c #E9DDE0",
"w  c #9D8686",
"e  c #584846",
"r  c #7E7F79",
"t  c #11130C",
"y  c #3C3E39",
"u  c #DDDCD3",
"i  c #E7E7E8",
"p  c #C2C2C5",
"a  c #544A57",
"s  c #292E25",
"d  c #5E5F5A",
"f  c #4C4F4B",
"g  c #0E0907",
"h  c #DFD4D3",
"j  c #07080D",
"k  c #6B6E68",
"l  c #B5ACB5",
"z  c gray97",
"x  c #9E9F9C",
"c  c #1E1C1E",
"v  c #8E8F8C",
"b  c #342D31",
"n  c #808085",
"m  c #DEE3DE",
"M  c #AEAFAC",
"N  c #B2B2B4",
"B  c #EFF3F4",
"V  c #606064",
"C  c #BFBFBC",
"Z  c #1F2120",
"A  c gray81",
"S  c #505152",
"D  c #0E110F",
"F  c #0E0C0E",
"G  c #D6DBD7",
"H  c #404142",
"J  c #919293",
"K  c #6F6F70",
"L  c #2D2E2F",
"P  c #D6DCDB",
"I  c #A1A1A4",
"U  c #E6EBEA",
"Y  c #FBFBFB",
"T  c black",
"R  c white",
"E  c black",
"W  c black",
"Q  c black",
"!  c black",
"~  c black",
"^  c black",
"/  c black",
"(  c black",
")  c black",
"_  c black",
"`  c black",
"'  c black",
"]  c black",
"[  c black",
"{  c black",
"}  c black",
"|  c black",
" . c black",
".. c black",
"X. c black",
"o. c black",
"O. c black",
"+. c black",
"@. c black",
"#. c black",
"$. c black",
"%. c black",
"&. c black",
"*. c black",
"=. c black",
"-. c black",
";. c black",
":. c black",
">. c black",
",. c black",
"<. c black",
"1. c black",
"2. c black",
"3. c black",
"4. c black",
"5. c black",
"6. c black",
"7. c black",
"8. c black",
"9. c black",
"0. c black",
"q. c black",
"w. c black",
"e. c black",
"r. c black",
"t. c black",
"y. c black",
"u. c black",
/* pixels */
"R R R R R R R R R R R R R R R R R R R R R R R R R R R R R R R R R R R R R R R R R R R R R R R R R R ",
"R R R R R R R R R R R R R R R R R R R R R R R R R R R R R R R R R R R R R R R R R R R R R R R R R R ",
"R R R R R R R R R R R R R R R R R R R R R R R R R R R R R R R R R R R R R R R R R R R R R R R R R R ",
"R R R R R R R R R R R R R R R R R R R R R R R R R R R R R R R R R R R R R R R R R R R R R R R R R R ",
"R R R R R R R R R R R R R R R R R R R R R R R R R R R R R R R R R R R R R R R R R R R R R R R R R R ",
"R R R R R R R R R R R R R R R R R R R R R R R R R R R R R R R R R R R R R R R R R R R R R R R R R R ",
"R R R R R R R R R R R R R R R R R R R R R R R R R R R R R R R z , U z R R R R R R R R R R R R R R R ",
"R R R R R R R R R R R R R R R R R R R R R R R R R R R R R % J . X o X , R R R R R R R R R R R R R R ",
"R R R R R R R R R R R R R R R R R R R R R R R R R R R R R z # A n 7 L S   R R R R R R R R R R R R R ",
"R R R R R R R R R R R R R R R R R R R R R R R R R R R z A p H n X - Z c M R R R R R R R R R R R R R ",
"R R R R R R R R R R R R R R R R R R R R R R R R R R R Y n r L = # v y f > R R R R R R R R R R R R R ",
"R R R R R R R R R R R R R R R R R R R R R R R R R R R O + o r l w $ K = i R R R R R R R R R R R R R ",
"R R R R R R R R R R R R R R R R R R R R R R R R R R , % O z 8 q 8 5 y K > R R R R R R R R R R R R R ",
"R R R R R R R R R R R R R R R R R R R R R R R R R % A M . % 3 x + C X z R R R R R R R R R R R R R R ",
"R R R R R R R R R R R R R R R R R R R R R R R R R C n 9 : N X n z , z R R R R R R R R R R R R R R R ",
"R R R R R R R R R R R R R R R R R R R R R R R R R r - 2 9 a o f z R R R R R R R R R R R R R R R R R ",
"R R R R R R R R R R R R R R R R R R R R R R R R Y y D - I H y < 1 Y Y R R R R R R R R R R R R R R R ",
"R R R R R R R R R R R R R R R R R R R R R R R R   t 4 4 j D ; ;   R R R R R R R R R R R R R R R R R ",
"R R R R R R R R R R R R R R R R R R R R R R R Y K F F 4 t j F 4   R R R R R R R R R R R R R R R R R ",
"R R R R R R R R R R R R R R R R R R R R R R R O f 4 4 4 j 4 4 4   R R R R R R R R R R R R R R R R R ",
"R R R R R R R R R R R R R R R R R R R R R R R i < 4 4 4 4 ; F D p R R R R R R R R R R R R R R R R R ",
"R R R R R R R R R R R R R R R R R R R R R R R p 4 @ @ @ 4 ; 4 j M R R R R R R R R R R R R R R R R R ",
"R R R R R R R R R R R R R R R R R R R R R R R o @ @ @ @ @ - ; j + R R R R R R R R R R R R R R R R R ",
"R R R R R R R R R R R R R R R R R R R R R R R o @ @ @ @ @ d f 4 n R R R R R R R R R R R R R R R R R ",
"R R R R R R R R R R R R R R R R R R R R R R R r @ @ t D @ @ + f H U Y R R R R R R R R R R R R R R R ",
"R R R R R R R R R R R R R R R R R R R R R R O y @ @ @ @ @ @ < K - M Y O R R R R R R R R R R R R R R ",
"R R R R R R R R R R R R R R R R R R R R R R A D @ @ @ @ ; @ D H b r Y Y R R R R R R R R R R R R R R ",
"R R R R R R R R R R R R R R R R R R R R R R N D T @ 0 L ; @ @ L - o N R R R R R R R R R R R R R R R ",
"R R R R R R R R R R R R R R R R R R R R R R i K L t < ; @ Z c t . u A R R R R R R R R R R R R R R R ",
"R R R R R R R R R R R R R R R R R R R R R R R p < v < Z H H t y & h   R R R R R R R R R R R R R R R ",
"R R R R R R R R R R R R R R R R R R R R R R R I T . L @ D 4 < 8 r C 1 R R R R R R R R R R R R R R R ",
"R R R R R R R R R R R R R R R R R R R R R R R r @ C ; @ 4 @ ; w e x R R R R R R R R R R R R R R R R ",
"R R R R R R R R R R R R R R R R R R R R R R i s t C ; @ @ T @ @ @ C R R R R R R R R R R R R R R R R ",
"R R R R R R R R R R R R R R R R R R R R R Y I F = M ; @ @ @ @ @ @   R R R R R R R R R R R R R R R R ",
"R R R R R R R R R R R R R R R R R R R R R P y @ J + < @ @ T @ @ 4 G R R R R R R R R R R R R R R R R ",
"R R R R R R R R R R R R R R R R R R R R Y v * T x H Z T @ T @ @ < i R R R R R R R R R R R R R R R R ",
"R R R R R R R R R R R R R R R R R R R R 1 k c L + d $ @ @ @ @ @ d O R R R R R R R R R R R R R R R R ",
"R R R R R R R R R R R R R R R R R R R O r # S p n G 1 @ @ 0 @ @ r R R R R R R R R R R R R R R R R R ",
"R R R R R R R R R R R R R R R R R R Y I L f p J d Y > @ @ ; 4 @ + R R R R R R R R R R R R R R R R R ",
"R R R R R R R R R R R R R R R R R R A f V , v S , R G T @ Z Z @ o R R R R R R R R R R R R R R R R R ",
"R R R R R R R R R R R R R R R R R % f k A J d m R z % f @ 4 < ; M R R R R R R R R R R R R R R R R R ",
"R R R R R R R R R R R R R R R R Y X J > o K U R R R R + T g F - N R R R R R R R R R R R R R R R R R ",
"R R R R R R R R R R R R R R R R % A % o o % R R R R R > f 0 f b x R R R R R R R R R R R R R R R R R ",
"R R R R R R R R R R R R R R R R O z P . R R R R R R R R   M G , P R R R R R R R R R R R R R R R R R ",
"R R R R R R R R R R R R R R R m r i % R R R R R R R R Y i C p m R R R R R R R R R R R R R R R R R R ",
"R R R R R R R R R R R R R R R M k I v % R R R R R R R z > X C   P R R R R R R R R R R R R R R R R R ",
"R R R R R R R R R R R R R R R O o # d C % R Y i > m U % p L 0 L H X % R R R R R R R R R R R R R R R ",
"R R R R R R R R R R R R R R R R i X I C p x n ; @ @ y 6 b T @ T D J C z R R R R R R R R R R R R R R ",
"R R R R R R R R R R R R R R R R Y B i m , > P p p C   C   A   A m z R R R R R R R R R R R R R R R R ",
"R R R R R R R R R R R R R R R R R R R R R R R R R R R R R R R R R R R R R R R R R R R R R R R R R R "
};
