/* XPM */
static char *_007[] = {
/* columns rows colors chars-per-pixel */
"50 50 128 2 ",
"   c #C9C9C8",
".  c gray72",
"X  c #D4AFAD",
"o  c #A8A7A8",
"O  c #989898",
"+  c #F3F3F3",
"@  c #888887",
"#  c #020501",
"$  c #777777",
"%  c #676766",
"&  c gray93",
"*  c #585857",
"=  c #474746",
"-  c #363736",
";  c #151615",
":  c #E4E3E3",
">  c #DDDDDD",
",  c #252625",
"<  c #9797B0",
"1  c #D5D5D5",
"2  c #545370",
"3  c #060E06",
"4  c #DFC7C4",
"5  c #15142A",
"6  c #87879E",
"7  c #191F16",
"8  c #AE99A6",
"9  c #BDA5A2",
"0  c #9D8686",
"q  c #262534",
"w  c #786564",
"e  c #7E7F79",
"r  c #11130C",
"t  c #3C3E39",
"y  c #E7E7E8",
"u  c #C2C2C5",
"i  c #292E25",
"p  c #5E5F5A",
"a  c #4C4F4B",
"s  c #DEE2E7",
"d  c #0E0907",
"f  c #DFD4D3",
"g  c #07080D",
"h  c #6B6E68",
"j  c gray97",
"k  c #9E9F9C",
"l  c #1E1C1E",
"z  c #8E8F8C",
"x  c #342D31",
"c  c #808085",
"v  c #DEE3DE",
"b  c #AEAFAC",
"n  c #B2B2B4",
"m  c #EFF3F4",
"M  c #606064",
"N  c #BFBFBC",
"B  c #1F2120",
"V  c gray81",
"C  c #505152",
"Z  c #0E110F",
"A  c #0E0C0E",
"S  c #D6DBD7",
"D  c #404142",
"F  c #919293",
"G  c #6F6F70",
"H  c #2D2E2F",
"J  c #A1A1A4",
"K  c #E6EBEA",
"L  c #FBFBFB",
"P  c black",
"I  c white",
"U  c black",
"Y  c black",
"T  c black",
"R  c black",
"E  c black",
"W  c black",
"Q  c black",
"!  c black",
"~  c black",
"^  c black",
"/  c black",
"(  c black",
")  c black",
"_  c black",
"`  c black",
"'  c black",
"]  c black",
"[  c black",
"{  c black",
"}  c black",
"|  c black",
" . c black",
".. c black",
"X. c black",
"o. c black",
"O. c black",
"+. c black",
"@. c black",
"#. c black",
"$. c black",
"%. c black",
"&. c black",
"*. c black",
"=. c black",
"-. c black",
";. c black",
":. c black",
">. c black",
",. c black",
"<. c black",
"1. c black",
"2. c black",
"3. c black",
"4. c black",
"5. c black",
"6. c black",
"7. c black",
"8. c black",
"9. c black",
"0. c black",
"q. c black",
"w. c black",
"e. c black",
"r. c black",
"t. c black",
"y. c black",
"u. c black",
/* pixels */
"I I I I I I I I I I I I I I I I I I I I I I I I I I I I I I I I I I I I I I I I I I I I I I I I I I ",
"I I I I I I I I I I I I I I I I I I I I I I I I I I I I I I I I I I I I I I I I I I I I I I I I I I ",
"I I I I I I I I I I I I I I I I I I I I I I I I I I I I I I I I I I I I I I I I I I I I I I I I I I ",
"I I I I I I I I I I I I I I I I I I I I I I I I I I I L I I I I I I I I I I I I I I I I I I I I I I ",
"I I I I I I I I I I I I I I I I I I I I I I I I I I I I I L L I I I I I I I I I I I I I I I I I I I ",
"I I I I I I I I I I I I I I I I I I I I I I I I I I I L & u n 1 L I I I I I I I I I I I I I I I I I ",
"I I I I I I I I I I I I I I I I I I I I I I I I I I I   . O 2 $ o j I I I I I I I I I I I I I I I I ",
"I I I I I I I I I I I I I I I I I I I I I I I I I I I F $ o H ; - : I I I I I I I I I I I I I I I I ",
"I I I I I I I I I I I I I I I I I I I I I I I I I I L p l @ e ; c L L I I I I I I I I I I I I I I I ",
"I I I I I I I I I I I I I I I I I I I I I I I I I I I c C G p * V L j I I I I I I I I I I I I I I I ",
"I I I I I I I I I I I I I I I I I I I I I I I I I I & $ 0 0 8 a 1 j j I I I I I I I I I I I I I I I ",
"I I I I I I I I I I I I I I I I I I I I I I I I I j & . 4 f f p S I I I I I I I I I I I I I I I I I ",
"I I I I I I I I I I I I I I I I I I I I I I I I s O < .   w V : I I I I I I I I I I I I I I I I I I ",
"I I I I I I I I I I I I I I I I I I I I I I I L 6 . . c . % j I I I I I I I I I I I I I I I I I I I ",
"I I I I I I I I I I I I I I I I I I I I I L L : 6 O q l . $ j I I I I I I I I I I I I I I I I I I I ",
"I I I I I I I I I I I I I I I I I I I I L j L c Z 5 - Z . c + I I I I I I I I I I I I I I I I I I I ",
"I I I I I I I I I I I I I I I I I I I I & I . ; 3 Z , g . O & I I I I I I I I I I I I I I I I I I I ",
"I I I I I I I I I I I I I I I I I I I L j & a 3 r 7 g 3 N * + I I I I I I I I I I I I I I I I I I I ",
"I I I I I I I I I I I I I I I I I I I I L @ 3 Z A # # # F = j I I I I I I I I I I I I I I I I I I I ",
"I I I I I I I I I I I I I I I I I I I I   7 # # # # # 3 p C j I I I I I I I I I I I I I I I I I I I ",
"I I I I I I I I I I I I I I I I I I I L h # # # P # # ; B * j I I I I I I I I I I I I I I I I I I I ",
"I I I I I I I I I I I I I I I I I I I > 3 # # P P # # B Z * j I I I I I I I I I I I I I I I I I I I ",
"I I I I I I I I I I I I I I I I I I I u , x # P P # # Z 3 C j I I I I I I I I I I I I I I I I I I I ",
"I I I I I I I I I I I I I I I I I I I J # # # P # # # # # * j I I I I I I I I I I I I I I I I I I I ",
"I I I I I I I I I I I I I I I I I I I z 3 t # P P # # # # F L I I I I I I I I I I I I I I I I I I I ",
"I I I I I I I I I I I I I I I I I I I e ; A # P # # # # H v I I I I I I I I I I I I I I I I I I I I ",
"I I I I I I I I I I I I I I I I I I I J w F # P P # # # G L I I I I I I I I I I I I I I I I I I I I ",
"I I I I I I I I I I I I I I I I I I I   9   i , # d g # . I I I I I I I I I I I I I I I I I I I I I ",
"I I I I I I I I I I I I I I I I I I & b X . & $ b l H M & I I I I I I I I I I I I I I I I I I I I I ",
"I I I I I I I I I I I I I I I I I I +   b & I o N # 3 V I I I I I I I I I I I I I I I I I I I I I I ",
"I I I I I I I I I I I I I I I I I I I I L I I n N g 3 1 I I I I I I I I I I I I I I I I I I I I I I ",
"I I I I I I I I I I I I I I I I I I I I I L I J N ; 3 1 I I I I I I I I I I I I I I I I I I I I I I ",
"I I I I I I I I I I I I I I I I I I I I I L I M N , 3 V L L I I I I I I I I I I I I I I I I I I I I ",
"I I I I I I I I I I I I I I I I I I I I I I y H . x #   L I I I I I I I I I I I I I I I I I I I I I ",
"I I I I I I I I I I I I I I I I I I I I I I u A J t #   I I I I I I I I I I I I I I I I I I I I I I ",
"I I I I I I I I I I I I I I I I I I I I I j G g e H # N I I I I I I I I I I I I I I I I I I I I I I ",
"I I I I I I I I I I I I I I I I I I I I I & ; Z c x # . I I I I I I I I I I I I I I I I I I I I I I ",
"I I I I I I I I I I I I I I I I I I I I I 1 # 7 e x ; n I I I I I I I I I I I I I I I I I I I I I I ",
"I I I I I I I I I I I I I I I I I I I I I F # , h - 7 n I I I I I I I I I I I I I I I I I I I I I I ",
"I I I I I I I I I I I I I I I I I I I L . l P - p H B n I I I I I I I I I I I I I I I I I I I I I I ",
"I I I I I I I I I I I I I I I I I I L N = d # a p H t n I I I I I I I I I I I I I I I I I I I I I I ",
"I I I I I I I I I I I I I I I I I I 1 o k D # h * D G u I I I I I I I I I I I I I I I I I I I I I I ",
"I I I I I I I I I I I I I I I I I I O $ V .   V O N 1 & I I I I I I I I I I I I I I I I I I I I I I ",
"I I I I I I I I I I I I I I I I I I V $ > j I   @ V V j I I I I I I I I I I I I I I I I I I I I I I ",
"I I I I I I I I I I I I I I I I I I & $ b L I   F u > I I I I I I I I I I I I I I I I I I I I I I I ",
"I I I I I I I I I I I I I I I I I I : o b I I : y S & + L I I I I I I I I I I I I I I I I I I I I I ",
"I I I I I I I I I I I I I I I I I I + V z & u % p - = O N & L I I I I I I I I I I I I I I I I I I I ",
"I I I I I I I I I I I I I I I I I I   * H B 7 P P P # t @ S K I I I I I I I I I I I I I I I I I I I ",
"I I I I I I I I I I I I I I I I m V . J k k o N u V & L I I I I I I I I I I I I I I I I I I I I I I ",
"I I I I I I I I I I I I I I I I I I I I I I I I I I I I I I I I I I I I I I I I I I I I I I I I I I "
};
