/* XPM */
static char *_001[] = {
/* columns rows colors chars-per-pixel */
"50 50 128 2 ",
"   c #C9C9C8",
".  c gray72",
"X  c #A8A7A8",
"o  c #989898",
"O  c #F3F3F3",
"+  c #888887",
"@  c #020501",
"#  c #777777",
"$  c #676766",
"%  c gray93",
"&  c #585857",
"*  c #474746",
"=  c #363736",
"-  c #151615",
";  c #E4E3E3",
":  c #DDDDDD",
">  c #252625",
",  c #B4908B",
"<  c #9797B0",
"1  c #D5D5D5",
"2  c #71514D",
"3  c #8E7889",
"4  c #060E06",
"5  c #DFC7C4",
"6  c #BAB8A7",
"7  c #15142A",
"8  c #87879E",
"9  c #191F16",
"0  c #BDA5A2",
"q  c #E9DDE0",
"w  c #9D8686",
"e  c #7E7F79",
"r  c #11130C",
"t  c #3C3E39",
"y  c #E7E7E8",
"u  c #C2C2C5",
"i  c #292E25",
"p  c #5E5F5A",
"a  c #4C4F4B",
"s  c #0E0907",
"d  c #D5D5DC",
"f  c #DFD4D3",
"g  c #998B94",
"h  c #07080D",
"j  c #6B6E68",
"k  c #B5ACB5",
"l  c gray97",
"z  c #9E9F9C",
"x  c #1E1C1E",
"c  c #8E8F8C",
"v  c #342D31",
"b  c #808085",
"n  c #DEE3DE",
"m  c #AEAFAC",
"M  c #B2B2B4",
"N  c #EFF3F4",
"B  c #606064",
"V  c #BFBFBC",
"C  c #1F2120",
"Z  c #D3CFD5",
"A  c gray81",
"S  c #DDD5DD",
"D  c #505152",
"F  c #0E110F",
"G  c #0E0C0E",
"H  c #D6DBD7",
"J  c #404142",
"K  c #919293",
"L  c #6F6F70",
"P  c #2D2E2F",
"I  c #D6DCDB",
"U  c #A1A1A4",
"Y  c #FBFBFB",
"T  c black",
"R  c white",
"E  c black",
"W  c black",
"Q  c black",
"!  c black",
"~  c black",
"^  c black",
"/  c black",
"(  c black",
")  c black",
"_  c black",
"`  c black",
"'  c black",
"]  c black",
"[  c black",
"{  c black",
"}  c black",
"|  c black",
" . c black",
".. c black",
"X. c black",
"o. c black",
"O. c black",
"+. c black",
"@. c black",
"#. c black",
"$. c black",
"%. c black",
"&. c black",
"*. c black",
"=. c black",
"-. c black",
";. c black",
":. c black",
">. c black",
",. c black",
"<. c black",
"1. c black",
"2. c black",
"3. c black",
"4. c black",
"5. c black",
"6. c black",
"7. c black",
"8. c black",
"9. c black",
"0. c black",
"q. c black",
"w. c black",
"e. c black",
"r. c black",
"t. c black",
"y. c black",
"u. c black",
/* pixels */
"R R R R R R R R R R R R R R R R R R R R R R R R R R R R R R R R R R R R R R R R R R R R R R R R R R ",
"R R R R R R R R R R R R R R R R R R R R R R R R R R R R R R R R R R R R R R R R R R R R R R R R R R ",
"R R R R R R R R R R R R R R R R R R R R R R R R R R R R R R R R R R R R R R R R R R R R R R R R R R ",
"R R R R R R R R R R R R R R R R R R R R R R R R R R R R R R R R R R R R R R R R R R R R R R R R R R ",
"R R R R R R R R R R R R R R R R R R R R R R R R R R R R R R R R R R R R R R R R R R R R R R R R R R ",
"R R R R R R R R R R R R R R R R R R R R R R R R R R R R R R R R R R R R R R R R R R R R R R R R R R ",
"R R R R R R R R R R R R R R R R R R R R R R R R R R R R R l . 1 y y % R R R R R R R R R R R R R R R ",
"R R R R R R R R R R R R R R R R R R R R R R R R R R R R R O c X j # # u R R R R R R R R R R R R R R ",
"R R R R R R R R R R R R R R R R R R R R R R R R R R R R R y z . B 7 x a % R R R R R R R R R R R R R ",
"R R R R R R R R R R R R R R R R R R R R R R R R R R R R y K - b + C - M R R R R R R R R R R R R R R ",
"R R R R R R R R R R R R R R R R R R R R R R R R R R R R . $ > # $ # a % R R R R R R R R R R R R R R ",
"R R R R R R R R R R R R R R R R R R R R R R R R R R R y + m 6 5 # & $ % R R R R R R R R R R R R R R ",
"R R R R R R R R R R R R R R R R R R R R R R R R R R l O l S q f q 3 + Y R R R R R R R R R R R R R R ",
"R R R R R R R R R R R R R R R R R R R R R R R R R R u . y d k S ; u % R Y R R R R R R R R R R R R R ",
"R R R R R R R R R R R R R R R R R R R R R R R R R ; 8 < o ; g y R R R R R R R R R R R R R R R R R R ",
"R R R R R R R R R R R R R R R R R R R R R R R R l K K B & % z X R R R R R R R R R R R R R R R R R R ",
"R R R R R R R R R R R R R R R R R R R R R R R R   - = > D y   U R R R R R R R R R R R R R R R R R R ",
"R R R R R R R R R R R R R R R R R R R R R R R Y + - G F p l O V R R R R R R R R R R R R R R R R R R ",
"R R R R R R R R R R R R R R R R R R R R R R R O D F 4 s L l O M R R R R R R R R R R R R R R R R R R ",
"R R R R R R R R R R R R R R R R R R R R R R R O * s @ s b O l . R R R R R R R R R R R R R R R R R R ",
"R R R R R R R R R R R R R R R R R R R R R R R O * 4 @ - b O O u R R R R R R R R R R R R R R R R R R ",
"R R R R R R R R R R R R R R R R R R R R R R R % * = @ = c l Y : R R R R R R R R R R R R R R R R R R ",
"R R R R R R R R R R R R R R R R R R R R R R R % v P - C M Y O H R R R R R R R R R R R R R R R R R R ",
"R R R R R R R R R R R R R R R R R R R R R R R ; 9 i P t = c M K Y R R R R R R R R R R R R R R R R R ",
"R R R R R R R R R R R R R R R R R R R R R R R 1 C J * C F r 4 $ : R R R R R R R R R R R R R R R R R ",
"R R R R R R R R R R R R R R R R R R R R R R R A 4 J # & h G J X m R R R R R R R R R R R R R R R R R ",
"R R R R R R R R R R R R R R R R R R R R R R R A - t & = $ s v k . O R R R R R R R R R R R R R R R R ",
"R R R R R R R R R R R R R R R R R R R R R R R A @ x J J t G F e m y l R R R R R R R R R R R R R R R ",
"R R R R R R R R R R R R R R R R R R R R R R R ; D * g z + > F t # : R R R R R R R R R R R R R R R R ",
"R R R R R R R R R R R R R R R R R R R R R R R % P . , 0 w x s s v o R R R R R R R R R R R R R R R R ",
"R R R R R R R R R R R R R R R R R R R R R R R : F V e w 2 r 4 4 > t y R R R R R R R R R R R R R R R ",
"R R R R R R R R R R R R R R R R R R R R R R R 1 @ . * J C 4 4 4 - P U R R R R R R R R R R R R R R R ",
"R R R R R R R R R R R R R R R R R R R R R R R A F U @ 4 B p 4 4 4 x K R R R R R R R R R R R R R R R ",
"R R R R R R R R R R R R R R R R R R R R R R R V J z @ & % H x @ @ 4 X R R R R R R R R R R R R R R R ",
"R R R R R R R R R R R R R R R R R R R R R R R b $ j 4 . R m @ @ @ G A R R R R R R R R R R R R R R R ",
"R R R R R R R R R R R R R R R R R R R R R R % P c P C : l B @ @ @ > % R R R R R R R R R R R R R R R ",
"R R R R R R R R R R R R R R R R R R R R R R V P U 4 * Y % C @ @ @ c R R R R R R R R R R R R R R R R ",
"R R R R R R R R R R R R R R R R R R R R R Y e # U 4 # R A - @ @ r Z R R R R R R R R R R R R R R R R ",
"R R R R R R R R R R R R R R R R R R R R R y > o B - A Y K @ @ @ & O R R R R R R R R R R R R R R R R ",
"R R R R R R R R R R R R R R R R R R R R R   * e = + Y O & T @ F z R R R R R R R R R R R R R R R R R ",
"R R R R R R R R R R R R R R R R R R R R R b + & > y Y o > T @ F H R R R R R R R R R R R R R R R R R ",
"R R R R R R R R R R R R R R R R R R R R : * e * b R A z m c e # Y R R R R R R R R R R R R R R R R R ",
"R R R R R R R R R R R R R R R R R R R R   V $ $ : R X p u l Y l R R R R R R R R R R R R R R R R R R ",
"R R R R R R R R R R R R R R R R R R R R 1 V = . R l U * X Y R R R R R R R R R R R R R R R R R R R R ",
"R R R R R R R R R R R R R R R R R R R R N U p H R R A e # y R R R R R R R R R R R R R R R R R R R R ",
"R R R R R R R R R R R R R R R R R R R Y Y O ; O Y R ; : + I R R R R R R R R R R R R R R R R R R R R ",
"R R R R R R R R R R R R R R R R R R R H o + J X u : u U U z % R R R R R R R R R R R R R R R R R R R ",
"R R R R R R R R R R R R R R R R R R R n K J @ @ @ @ T T T 9 + Y R R R R R R R R R R R R R R R R R R ",
"R R R R R R R R R R R R R R R R R R R R l : A u o + u A       l R R R R R R R R R R R R R R R R R R ",
"R R R R R R R R R R R R R R R R R R R R R R R R R R R R R R R R R R R R R R R R R R R R R R R R R R "
};
