/* XPM */
static char *_009[] = {
/* columns rows colors chars-per-pixel */
"50 50 128 2 ",
"   c #C9C9C8",
".  c gray72",
"X  c #A8A7A8",
"o  c #989898",
"O  c #F3F3F3",
"+  c #888887",
"@  c #020501",
"#  c #777777",
"$  c #676766",
"%  c gray93",
"&  c #938975",
"*  c #946D6B",
"=  c #585857",
"-  c #474746",
";  c #363736",
":  c #151615",
">  c #E4E3E3",
",  c #DDDDDD",
"<  c #252625",
"1  c #9797B0",
"2  c #D5D5D5",
"3  c #AAA897",
"4  c #6B6656",
"5  c #71514D",
"6  c #060E06",
"7  c #DFC7C4",
"8  c #747466",
"9  c #484758",
"0  c #333326",
"q  c #191F16",
"w  c #BDA5A2",
"e  c #9D8686",
"r  c #786564",
"t  c #776B74",
"y  c #7E7F79",
"u  c #11130C",
"i  c #3C3E39",
"p  c #352625",
"a  c #E7E7E8",
"s  c #C2C2C5",
"d  c #292E25",
"f  c #5E5F5A",
"g  c #4C4F4B",
"h  c #998B94",
"j  c #07080D",
"k  c #6B6E68",
"l  c gray97",
"z  c #9E9F9C",
"x  c #1E1C1E",
"c  c #8E8F8C",
"v  c #342D31",
"b  c #808085",
"n  c #DEE3DE",
"m  c #AEAFAC",
"M  c #B2B2B4",
"N  c #606064",
"B  c #BFBFBC",
"V  c #1F2120",
"C  c #D3CFD5",
"Z  c gray81",
"A  c #505152",
"S  c #0E110F",
"D  c #0E0C0E",
"F  c #404142",
"G  c #919293",
"H  c #6F6F70",
"J  c #2D2E2F",
"K  c #A1A1A4",
"L  c #E6EBEA",
"P  c #FBFBFB",
"I  c black",
"U  c white",
"Y  c black",
"T  c black",
"R  c black",
"E  c black",
"W  c black",
"Q  c black",
"!  c black",
"~  c black",
"^  c black",
"/  c black",
"(  c black",
")  c black",
"_  c black",
"`  c black",
"'  c black",
"]  c black",
"[  c black",
"{  c black",
"}  c black",
"|  c black",
" . c black",
".. c black",
"X. c black",
"o. c black",
"O. c black",
"+. c black",
"@. c black",
"#. c black",
"$. c black",
"%. c black",
"&. c black",
"*. c black",
"=. c black",
"-. c black",
";. c black",
":. c black",
">. c black",
",. c black",
"<. c black",
"1. c black",
"2. c black",
"3. c black",
"4. c black",
"5. c black",
"6. c black",
"7. c black",
"8. c black",
"9. c black",
"0. c black",
"q. c black",
"w. c black",
"e. c black",
"r. c black",
"t. c black",
"y. c black",
"u. c black",
/* pixels */
"U U U U U U U U U U U U U U U U U U U U U U U U U U U U U U U U U U U U U U U U U U U U U U U U U U ",
"U U U U U U U U U U U U U U U U U U U U U U U U U U U U U U U U U U U U U U U U U U U U U U U U U U ",
"U U U U U U U U U U U U U U U U U U U U U U U U U U U U U U U U U U U U U U U U U U U U U U U U U U ",
"U U U U U U U U U U U U U U U U U U U U U U U U U U U U U U U U U U U U U U U U U U U U U U U U U U ",
"U U U U U U U U U U U U U U U U U U U U U U U U U U U U U U U U U U U U U U U U U U U U U U U U U U ",
"U U U U U U U U U U U U U U U U U U U U U U U U U U P s   > L P U U U U U U U U U U U U U U U U U U ",
"U U U U U U U U U U U U U U U U U U U U U U U U U % l y B t # G . P U U U U U U U U U U U U U U U U ",
"U U U U U U U U U U U U U U U U U U U U U U U U U l l f B # x : F % U U U U U U U U U U U U U U U U ",
"U U U U U U U U U U U U U U U U U U U U U U U U U U s @ = X i : z P U U U U U U U U U U U U U U U U ",
"U U U U U U U U U U U U U U U U U U U U U U U U U U o j H F b - 2 U U U U U U U U U U U U U U U U U ",
"U U U U U U U U U U U U U U U U U U U U U U U U U l y v 4 * F k , U U U U U U U U U U U U U U U U U ",
"U U U U U U U U U U U U U U U U U U U U U U U U U m B 4 w 7 4 M l U U U U U U U U U U U U U U U U U ",
"U U U U U U U U U U U U U U U U U U U U U U U U > G X b   y K U U U U U U U U U U U U U U U U U U U ",
"U U U U U U U U U U U U U U U U U U U U U U U % # 9 1 s h k z U U U U U U U U U U U U U U U U U U U ",
"U U U U U U U U U U U U U U U U U U U U U U U z u i M y g y b U U U U U U U U U U U U U U U U U U U ",
"U U U U U U U U U U U U U U U U U U U U U U U = S V $ < - K + U U U U U U U U U U U U U U U U U U U ",
"U U U U U U U U U U U U U U U U U U U U U U U - : : D D H . o U U U U U U U U U U U U U U U U U U U ",
"U U U U U U U U U U U U U U U U U U U U U U O ; : S D 6 M   K U U U U U U U U U U U U U U U U U U U ",
"U U U U U U U U U U U U U U U U U U U U U U   : : q 6 @   z B U U U U U U U U U U U U U U U U U U U ",
"U U U U U U U U U U U U U U U U U U U U U U o S V : 6 q , H   U U U U U U U U U U U U U U U U U U U ",
"U U U U U U U U U U U U U U U U U U U U U l H 6 q : @ $ L J 2 U U U U U U U U U U U U U U U U U U U ",
"U U U U U U U U U U U U U U U U U U U U U a < @ : q @ K Z S 2 U U U U U U U U U U U U U U U U U U U ",
"U U U U U U U U U U U U U U U U U U U U U m @ @ 6 j < > c D 2 U U U U U U U U U U U U U U U U U U U ",
"U U U U U U U U U U U U U U U U U U U U P N @ @ 6 V x o ; @ 2 U U U U U U U U U U U U U U U U U U U ",
"U U U U U U U U U U U U U U U U U U U U a v @ @ I @ @ @ @ @ C U U U U U U U U U U U U U U U U U U U ",
"U U U U U U U U U U U U U U U U U U U U s @ @ : F S - S @ J 2 U U U U U U U U U U U U U U U U U U U ",
"U U U U U U U U U U U U U U U U U U U U c @ x V F ; ; : @ S Z U U U U U U U U U U U U U U U U U U U ",
"U U U U U U U U U U U U U U U U U U U l g J J 6 < 0 N D @ I Z U U U U U U U U U U U U U U U U U U U ",
"U U U U U U U U U U U U U U U U U U U l v # o 6 V y B r u @ s U U U U U U U U U U U U U U U U U U U ",
"U U U U U U U U U U U U U U U U U U U a D m = @ @ & 7 5 u I K U U U U U U U U U U U U U U U U U U U ",
"U U U U U U U U U U U U U U U U U U U s D B @ 6 8 r e p 6 6 # l U U U U U U U U U U U U U U U U U U ",
"U U U U U U U U U U U U U U U U U U U b f z I b > > O z @ I g , U U U U U U U U U U U U U U U U U U ",
"U U U U U U U U U U U U U U U U U U P $ X f I s U U U m @ @ : z U U U U U U U U U U U U U U U U U U ",
"U U U U U U U U U U U U U U U U U U , ; M < d % U U U X I @ 6 - P U U U U U U U U U U U U U U U U U ",
"U U U U U U U U U U U U U U U U U U o = o I K U U U P y @ I @ f P U U U U U U U U U U U U U U U U U ",
"U U U U U U U U U U U U U U U U U O - B F F L U U U a x I I I z U U U U U U U U U U U U U U U U U U ",
"U U U U U U U U U U U U U U U U P X o M I o U U U U M @ I I @ B U U U U U U U U U U U U U U U U U U ",
"U U U U U U U U U U U U U U U U s J s g J > U U P P y @ @ I F L U U U U U U U U U U U U U U U U U U ",
"U U U U U U U U U U U U U U U l f G o : . U U U U % - I @ I K U U U U U U U U U U U U U U U U U U U ",
"U U U U U U U U U U U U U U U . g   x z U U U U U 2 : I @ x n U U U U U U U U U U U U U U U U U U U ",
"U U U U U U U U U U U U U U a H M # N O U U U U U o I I I G P l U U U U U U U U U U U U U U U U U U ",
"U U U U U U U U U U U U U U Z c M < C U U U U U U B 3 b = > U P U U U U U U U U U U U U U U U U U U ",
"U U U U U U U U U U U U U U Z . i M U U U U U U ,   B n O U U U U U U U U U U U U U U U U U U U U U ",
"U U U U U U U U U U U U U P P 2 X l U U U U U O f y a P U U U U U U U U U U U U U U U U U U U U U U ",
"U U U U U U U U U U U U U   m 2 , U U U U U U P . ; b 2 U U U U U U U U U U U U U U U U U U U U U U ",
"U U U U U U U U U U U U U , = g $ 2 U U U U U U l s A A 2 U U U U U U U U U U U U U U U U U U U U U ",
"U U U U U U U U U U U U U U , y X M   s . B s G A d V I v M % U U U U U U U U U U U U U U U U U U U ",
"U U U U U U U U U U U U U U P % a > n   K g @ @ < b z . , P U U U U U U U U U U U U U U U U U U U U ",
"U U U U U U U U U U U U U U U U U U U U U P % % l P U U U U U U U U U U U U U U U U U U U U U U U U ",
"U U U U U U U U U U U U U U U U U U U U U U U U U U U U U U U U U U U U U U U U U U U U U U U U U U "
};
