/* XPM */
static char *_008[] = {
/* columns rows colors chars-per-pixel */
"50 50 128 2 ",
"   c #C9C9C8",
".  c gray72",
"X  c #A8A7A8",
"o  c #989898",
"O  c #F3F3F3",
"+  c #888887",
"@  c #020501",
"#  c #777777",
"$  c #676766",
"%  c gray93",
"&  c #938975",
"*  c #585857",
"=  c #474746",
"-  c #363736",
";  c #151615",
":  c #E4E3E3",
">  c #DDDDDD",
",  c #252625",
"<  c #B4908B",
"1  c #D5D5D5",
"2  c #6B6656",
"3  c #060E06",
"4  c #DFC7C4",
"5  c #BAB8A7",
"6  c #747466",
"7  c #484758",
"8  c #87879E",
"9  c #191F16",
"0  c #AE99A6",
"q  c #BDA5A2",
"w  c #9D8686",
"e  c #776B74",
"r  c #7E7F79",
"t  c #11130C",
"y  c #3C3E39",
"u  c #DDDCD3",
"i  c #E7E7E8",
"p  c #C2C2C5",
"a  c #544A57",
"s  c #292E25",
"d  c #5E5F5A",
"f  c #4C4F4B",
"g  c #0E0907",
"h  c #DFD4D3",
"j  c #07080D",
"k  c #6B6E68",
"l  c #B5ACB5",
"z  c gray97",
"x  c #9E9F9C",
"c  c #1E1C1E",
"v  c #8E8F8C",
"b  c #342D31",
"n  c #808085",
"m  c #DEE3DE",
"M  c #AEAFAC",
"N  c #B2B2B4",
"B  c #606064",
"V  c #BFBFBC",
"C  c #1F2120",
"Z  c gray81",
"A  c #505152",
"S  c #0E110F",
"D  c #0E0C0E",
"F  c #D6DBD7",
"G  c #404142",
"H  c #919293",
"J  c #6F6F70",
"K  c #2D2E2F",
"L  c #D6DCDB",
"P  c #A1A1A4",
"I  c #E6EBEA",
"U  c #FBFBFB",
"Y  c black",
"T  c white",
"R  c black",
"E  c black",
"W  c black",
"Q  c black",
"!  c black",
"~  c black",
"^  c black",
"/  c black",
"(  c black",
")  c black",
"_  c black",
"`  c black",
"'  c black",
"]  c black",
"[  c black",
"{  c black",
"}  c black",
"|  c black",
" . c black",
".. c black",
"X. c black",
"o. c black",
"O. c black",
"+. c black",
"@. c black",
"#. c black",
"$. c black",
"%. c black",
"&. c black",
"*. c black",
"=. c black",
"-. c black",
";. c black",
":. c black",
">. c black",
",. c black",
"<. c black",
"1. c black",
"2. c black",
"3. c black",
"4. c black",
"5. c black",
"6. c black",
"7. c black",
"8. c black",
"9. c black",
"0. c black",
"q. c black",
"w. c black",
"e. c black",
"r. c black",
"t. c black",
"y. c black",
"u. c black",
/* pixels */
"T T T T T T T T T T T T T T T T T T T T T T T T T T T T T T T T T T T T T T T T T T T T T T T T T T ",
"T T T T T T T T T T T T T T T T T T T T T T T T T T T T T T T T T T T T T T T T T T T T T T T T T T ",
"T T T T T T T T T T T T T T T T T T T T T T T T T T T T T T T T T T T T T T T T T T T T T T T T T T ",
"T T T T T T T T T T T T T T T T T T T T T T T T T T T T T T T T T T T T T T T T T T T T T T T T T T ",
"T T T T T T T T T T T T T T T T T T T T T T T T T T T T : i T T T z T T T T T T T T T T T T T T T T ",
"T T T T T T T T T T T T T T T T T T T T T T T T T T T % p N p N z U T T T T T T T T T T T T T T T T ",
"T T T T T T T T T T T T T T T T T T T T T T T T T T i   X a G J . T T T T T T T T T T T T T T T T T ",
"T T T T T T T T T T T T T T T T T T T T T T T T T T N * . * S S # U T T T T T T T T T T T T T T T T ",
"T T T T T T T T T T T T T T T T T T T T T T T T T p d j B P - C H T T T T T T T T T T T T T T T T T ",
"T T T T T T T T T T T T T T T T T T T T T T T T T x ; - + y # - . T T T T T T T T T T T T T T T T T ",
"T T T T T T T T T T T T T T T T T T T T T T T T T p f d & l G d i T T T T T T T T T T T T T T T T T ",
"T T T T T T T T T T T T T T T T T T T T T T T T L V . < 4 h e Z T T T T T T T T T T T T T T T T T T ",
"T T T T T T T T T T T T T T T T T T T T T T T O H n o 0 q * p T T T T T T T T T T T T T T T T T T T ",
"T T T T T T T T T T T T T T T T T T T T T T T p G X V v P f Z T T T T T T T T T T T T T T T T T T T ",
"T T T T T T T T T T T T T T T T T T T T T T U k - 8 7 , o k Z T T T T T T T T T T T T T T T T T T T ",
"T T T T T T T T T T T T T T T T T T T T T T V C C D , K V n p T T T T T T T T T T T T T T T T T T T ",
"T T T T T T T T T T T T T T T T T T T T U z J 9 ; 3 ; n F + o T T T T T T T T T T T T T T T T T T T ",
"T T T T T T T T T T T T T T T T T T T T T : C ; D 3 @ o O J x T T T T T T T T T T T T T T T T T T T ",
"T T T T T T T T T T T T T T T T T T T T T M t S @ @ @ V I ; . T T T T T T T T T T T T T T T T T T T ",
"T T T T T T T T T T T T T T T T T T T T T n D @ @ @ ; F F j   T T T T T T T T T T T T T T T T T T T ",
"T T T T T T T T T T T T T T T T T T T T % G 3 @ @ @ G z p S   T T T T T T T T T T T T T T T T T T T ",
"T T T T T T T T T T T T T T T T T T T T p 3 @ @ @ @ n U # ; Z T T T T T T T T T T T T T T T T T T T ",
"T T T T T T T T T T T T T T T T T T T T x 3 @ Y Y @ o > f , F T T T T T T T T T T T T T T T T T T T ",
"T T T T T T T T T T T T T T T T T T T T H @ @ Y Y @ @ C 3 f O T T T T T T T T T T T T T T T T T T T ",
"T T T T T T T T T T T T T T T T T T T T x D s @ @ @ @ @ @ X T T T T T T T T T T T T T T T T T T T T ",
"T T T T T T T T T T T T T T T T T T T T M , S @ @ Y @ @ j Z T T T T T T T T T T T T T T T T T T T T ",
"T T T T T T T T T T T T T T T T T T T T . y 2 3 Y @ @ @ C m T T T T T T T T T T T T T T T T T T T T ",
"T T T T T T T T T T T T T T T T T T T T X 6 q G g @ @ @ ; > T T T T T T T T T T T T T T T T T T T T ",
"T T T T T T T T T T T T T T T T T T T z +   5 x g @ @ @ @ . T T T T T T T T T T T T T T T T T T T T ",
"T T T T T T T T T T T T T T T T T T T p + w r r @ @ @ @ Y n U T T T T T T T T T T T T T T T T T T T ",
"T T T T T T T T T T T T T T T T T T T O N - H f Y @ @ Y Y G z T T T T T T T T T T T T T T T T T T T ",
"T T T T T T T T T T T T T T T T T T T T i - v - @ @ @ Y Y y O T T T T T T T T T T T T T T T T T T T ",
"T T T T T T T T T T T T T T T T T T T T 1 D # , @ Y Y Y Y c % T T T T T T T T T T T T T T T T T T T ",
"T T T T T T T T T T T T T T T T T T T T N Y $ D @ Y @ Y Y Y Z T T T T T T T T T T T T T T T T T T T ",
"T T T T T T T T T T T T T T T T T T T T o @ b @ @ Y Y Y @ Y x T T T T T T T T T T T T T T T T T T T ",
"T T T T T T T T T T T T T T T T T T T U d ; 9 @ @ Y Y Y Y @ Z T T T T T T T T T T T T T T T T T T T ",
"T T T T T T T T T T T T T T T T T T T O , A 3 3 3 3 Y Y @ $ z z T T T T T T T T T T T T T T T T T T ",
"T T T T T T T T T T T T T T T T T T T > b d @ 3 D @ Y Y 9   T U T T T T T T T T T T T T T T T T T T ",
"T T T T T T T T T T T T T T T T T U z Z * - 3 9 S Y Y Y n U T T T T T T T T T T T T T T T T T T T T ",
"T T T T T T T T T T T T T T T T T O U . k ; C c @ Y Y G : T T T T T T T T T T T T T T T T T T T T T ",
"T T T T T T T T T T T T T T T T T U U r B D K r , Y S V T T T T T T T T T T T T T T T T T T T T T T ",
"T T T T T T T T T T T T T T T T T T I # y s $ M Z # x T T T T T T T T T T T T T T T T T T T T T T T ",
"T T T T T T T T T T T T T T T T T T > v $ = - p u U z T T T T T T T T T T T T T T T T T T T T T T T ",
"T T T T T T T T T T T T T T T T T T   n X p , P z T T T T T T T T T T T T T T T T T T T T T T T T T ",
"T T T T T T T T T T T T T T T T T T z V 1 U V G > T T T T T T T T T T T T T T T T T T T T T T T T T ",
"T T T T T T T T T T T T T T T T T T Z   X % z * p T T T T T T T T T T T T T T T T T T T T T T T T T ",
"T T T T T T T T T T T T T T T T T U * 9 @ d N y b J . % T T T T T T T T T T T T T T T T T T T T T T ",
"T T T T T T T T T T T T T T T T T U X B Y Y Y Y @ S c d : T T T T T T T T T T T T T T T T T T T T T ",
"T T T T T T T T T T T T T T T T T T T U > > > i O z z U T T T T T T T T T T T T T T T T T T T T T T ",
"T T T T T T T T T T T T T T T T T T T T T T T T T T T T T T T T T T T T T T T T T T T T T T T T T T "
};
