/* XPM */
static char *_005[] = {
/* columns rows colors chars-per-pixel */
"50 50 128 2 ",
"   c #C9C9C8",
".  c gray72",
"X  c #A8A7A8",
"o  c #989898",
"O  c #F3F3F3",
"+  c #888887",
"@  c #020501",
"#  c #777777",
"$  c #676766",
"%  c gray93",
"&  c #585857",
"*  c #474746",
"=  c #363736",
"-  c #151615",
";  c #B4B4CC",
":  c #E4E3E3",
">  c #DDDDDD",
",  c #252625",
"<  c #B4908B",
"1  c #D5D5D5",
"2  c #AAA897",
"3  c #545370",
"4  c #060E06",
"5  c #CBBBC3",
"6  c #484758",
"7  c #87879E",
"8  c #333326",
"9  c #191F16",
"0  c #AE99A6",
"q  c #BDA5A2",
"w  c #E9DDE0",
"e  c #262534",
"r  c #776B74",
"t  c #7E7F79",
"y  c #11130C",
"u  c #3C3E39",
"i  c #E7E7E8",
"p  c #C2C2C5",
"a  c #292E25",
"s  c #5E5F5A",
"d  c #4C4F4B",
"f  c #0E0907",
"g  c #DFD4D3",
"h  c #998B94",
"j  c #6B6E68",
"k  c gray97",
"l  c #9E9F9C",
"z  c #1E1C1E",
"x  c #8E8F8C",
"c  c #342D31",
"v  c #808085",
"b  c #DEE3DE",
"n  c #AEAFAC",
"m  c #B2B2B4",
"M  c #EFF3F4",
"N  c #606064",
"B  c #BFBFBC",
"V  c #1F2120",
"C  c gray81",
"Z  c #505152",
"A  c #0E110F",
"S  c #0E0C0E",
"D  c #D6DBD7",
"F  c #404142",
"G  c #919293",
"H  c #6F6F70",
"J  c #2D2E2F",
"K  c #D6DCDB",
"L  c #A1A1A4",
"P  c #E6EBEA",
"I  c #FBFBFB",
"U  c black",
"Y  c white",
"T  c black",
"R  c black",
"E  c black",
"W  c black",
"Q  c black",
"!  c black",
"~  c black",
"^  c black",
"/  c black",
"(  c black",
")  c black",
"_  c black",
"`  c black",
"'  c black",
"]  c black",
"[  c black",
"{  c black",
"}  c black",
"|  c black",
" . c black",
".. c black",
"X. c black",
"o. c black",
"O. c black",
"+. c black",
"@. c black",
"#. c black",
"$. c black",
"%. c black",
"&. c black",
"*. c black",
"=. c black",
"-. c black",
";. c black",
":. c black",
">. c black",
",. c black",
"<. c black",
"1. c black",
"2. c black",
"3. c black",
"4. c black",
"5. c black",
"6. c black",
"7. c black",
"8. c black",
"9. c black",
"0. c black",
"q. c black",
"w. c black",
"e. c black",
"r. c black",
"t. c black",
"y. c black",
"u. c black",
/* pixels */
"Y Y Y Y Y Y Y Y Y Y Y Y Y Y Y Y Y Y Y Y Y Y Y Y Y Y Y Y Y Y Y Y Y Y Y Y Y Y Y Y Y Y Y Y Y Y Y Y Y Y ",
"Y Y Y Y Y Y Y Y Y Y Y Y Y Y Y Y Y Y Y Y Y Y Y Y Y Y Y Y Y Y Y Y Y Y Y Y Y Y Y Y Y Y Y Y Y Y Y Y Y Y ",
"Y Y Y Y Y Y Y Y Y Y Y Y Y Y Y Y Y Y Y Y Y Y Y Y Y Y Y Y Y Y Y Y Y Y Y Y Y Y Y Y Y Y Y Y Y Y Y Y Y Y ",
"Y Y Y Y Y Y Y Y Y Y Y Y Y Y Y Y Y Y Y Y Y Y Y Y Y Y Y Y Y Y Y Y Y Y Y Y Y Y Y Y Y Y Y Y Y Y Y Y Y Y ",
"Y Y Y Y Y Y Y Y Y Y Y Y Y Y Y Y Y Y Y Y Y Y Y Y Y Y Y Y Y Y Y Y Y Y Y Y Y Y Y Y Y Y Y Y Y Y Y Y Y Y ",
"Y Y Y Y Y Y Y Y Y Y Y Y Y Y Y Y Y Y I Y Y Y Y Y Y Y Y Y Y Y Y Y Y Y Y Y Y Y Y Y Y Y Y Y Y Y Y Y Y Y ",
"Y Y Y Y Y Y Y Y Y Y Y Y Y Y Y I P > 1 C i Y Y Y Y Y Y Y Y Y Y Y Y Y Y Y Y Y Y Y Y Y Y Y Y Y Y Y Y Y ",
"Y Y Y Y Y Y Y Y Y Y Y Y Y Y O v G # + . v O Y Y Y Y Y Y Y Y Y Y Y Y Y Y Y Y Y Y Y Y Y Y Y Y Y Y Y Y ",
"Y Y Y Y Y Y Y Y Y Y Y Y Y Y > J , e v C Z n M Y Y Y Y Y Y Y Y Y Y Y Y Y Y Y Y Y Y Y Y Y Y Y Y Y Y Y ",
"Y Y Y Y Y Y Y Y Y Y Y Y Y Y % u V s . Z u X G k Y Y Y Y Y Y Y Y Y Y Y Y Y Y Y Y Y Y Y Y Y Y Y Y Y Y ",
"Y Y Y Y Y Y Y Y Y Y Y Y Y Y k # $ # r & u & s k Y Y Y Y Y Y Y Y Y Y Y Y Y Y Y Y Y Y Y Y Y Y Y Y Y Y ",
"Y Y Y Y Y Y Y Y Y Y Y Y Y I I G N 0 q 5 h . m D % Y Y Y Y Y Y Y Y Y Y Y Y Y Y Y Y Y Y Y Y Y Y Y Y Y ",
"Y Y Y Y Y Y Y Y Y Y Y Y Y Y k l s g g w 5 k k b n O Y Y Y Y Y Y Y Y Y Y Y Y Y Y Y Y Y Y Y Y Y Y Y Y ",
"Y Y Y Y Y Y Y Y Y Y Y Y Y Y Y Y p B C B   > ; L . B Y Y Y Y Y Y Y Y Y Y Y Y Y Y Y Y Y Y Y Y Y Y Y Y ",
"Y Y Y Y Y Y Y Y Y Y Y Y Y Y Y Y Y I Y . . # L 7 # + Y Y Y Y Y Y Y Y Y Y Y Y Y Y Y Y Y Y Y Y Y Y Y Y ",
"Y Y Y Y Y Y Y Y Y Y Y Y Y Y Y Y I Y Y l L e 3 3 e $ k Y Y Y Y Y Y Y Y Y Y Y Y Y Y Y Y Y Y Y Y Y Y Y ",
"Y Y Y Y Y Y Y Y Y Y Y Y Y Y Y Y Y Y k + + = N 6 z J i Y Y Y Y Y Y Y Y Y Y Y Y Y Y Y Y Y Y Y Y Y Y Y ",
"Y Y Y Y Y Y Y Y Y Y Y Y Y Y Y Y Y Y : o $ V - A A - p Y Y Y Y Y Y Y Y Y Y Y Y Y Y Y Y Y Y Y Y Y Y Y ",
"Y Y Y Y Y Y Y Y Y Y Y Y Y Y Y Y Y Y B + s - A 4 A z L Y Y Y Y Y Y Y Y Y Y Y Y Y Y Y Y Y Y Y Y Y Y Y ",
"Y Y Y Y Y Y Y Y Y Y Y Y Y Y Y Y Y Y n + s A A A - - t Y Y Y Y Y Y Y Y Y Y Y Y Y Y Y Y Y Y Y Y Y Y Y ",
"Y Y Y Y Y Y Y Y Y Y Y Y Y Y Y Y Y Y n v & A S A A - & I Y Y Y Y Y Y Y Y Y Y Y Y Y Y Y Y Y Y Y Y Y Y ",
"Y Y Y Y Y Y Y Y Y Y Y Y Y Y Y Y Y Y X = c A 4 4 S 4 J i Y Y Y Y Y Y Y Y Y Y Y Y Y Y Y Y Y Y Y Y Y Y ",
"Y Y Y Y Y Y Y Y Y Y Y Y Y Y Y Y Y Y n A - - 4 4 y 4 z . Y Y Y Y Y Y Y Y Y Y Y Y Y Y Y Y Y Y Y Y Y Y ",
"Y Y Y Y Y Y Y Y Y Y Y Y Y Y Y Y Y Y B A = - 4 A - 4 9 $ k Y Y Y Y Y Y Y Y Y Y Y Y Y Y Y Y Y Y Y Y Y ",
"Y Y Y Y Y Y Y Y Y Y Y Y Y Y Y Y Y Y > 9 4 4 4 4 4 4 4 V i Y Y Y Y Y Y Y Y Y Y Y Y Y Y Y Y Y Y Y Y Y ",
"Y Y Y Y Y Y Y Y Y Y Y Y Y Y Y Y Y Y C - - 4 4 S A 4 @ 4 1 Y Y Y Y Y Y Y Y Y Y Y Y Y Y Y Y Y Y Y Y Y ",
"Y Y Y Y Y Y Y Y Y Y Y Y Y Y Y Y Y Y . 4 y y y z - 4 @ = C Y Y Y Y Y Y Y Y Y Y Y Y Y Y Y Y Y Y Y Y Y ",
"Y Y Y Y Y Y Y Y Y Y Y Y Y Y Y Y Y Y o 4 4 f A z , - - a p Y Y Y Y Y Y Y Y Y Y Y Y Y Y Y Y Y Y Y Y Y ",
"Y Y Y Y Y Y Y Y Y Y Y Y Y Y Y Y Y I Z y - u = * F a 4 @   Y Y Y Y Y Y Y Y Y Y Y Y Y Y Y Y Y Y Y Y Y ",
"Y Y Y Y Y Y Y Y Y Y Y Y Y Y Y Y Y b 4 4 J p Z B w s @ @   Y Y Y Y Y Y Y Y Y Y Y Y Y Y Y Y Y Y Y Y Y ",
"Y Y Y Y Y Y Y Y Y Y Y Y Y Y Y Y Y L @ z B x H < w l f @ 1 Y Y Y Y Y Y Y Y Y Y Y Y Y Y Y Y Y Y Y Y Y ",
"Y Y Y Y Y Y Y Y Y Y Y Y Y Y Y Y O Z @ G l   I h q 2 a @   Y Y Y Y Y Y Y Y Y Y Y Y Y Y Y Y Y Y Y Y Y ",
"Y Y Y Y Y Y Y Y Y Y Y Y Y Y Y Y 1 4 j B N k Y k o A @ @ v Y Y Y Y Y Y Y Y Y Y Y Y Y Y Y Y Y Y Y Y Y ",
"Y Y Y Y Y Y Y Y Y Y Y Y Y Y Y Y   S . * L Y Y Y O s U @ c i Y Y Y Y Y Y Y Y Y Y Y Y Y Y Y Y Y Y Y Y ",
"Y Y Y Y Y Y Y Y Y Y Y Y Y Y Y Y   d o @ m Y Y Y Y > J U @ L Y Y Y Y Y Y Y Y Y Y Y Y Y Y Y Y Y Y Y Y ",
"Y Y Y Y Y Y Y Y Y Y Y Y Y Y Y Y   l x U m Y I Y Y I x @ 4 s : Y Y Y Y Y Y Y Y Y Y Y Y Y Y Y Y Y Y Y ",
"Y Y Y Y Y Y Y Y Y Y Y Y Y Y Y Y > l t U l I O Y Y Y P = @ 8 i Y Y Y Y Y Y Y Y Y Y Y Y Y Y Y Y Y Y Y ",
"Y Y Y Y Y Y Y Y Y Y Y Y Y Y Y Y O t n U $ I % Y Y Y Y m @ a b Y Y Y Y Y Y Y Y Y Y Y Y Y Y Y Y Y Y Y ",
"Y Y Y Y Y Y Y Y Y Y Y Y Y Y Y Y Y l p - - : % O I Y Y O Z @ p Y Y Y Y Y Y Y Y Y Y Y Y Y Y Y Y Y Y Y ",
"Y Y Y Y Y Y Y Y Y Y Y Y Y Y Y Y Y i n + U n Y P Y Y I Y n @ # Y Y Y Y Y Y Y Y Y Y Y Y Y Y Y Y Y Y Y ",
"Y Y Y Y Y Y Y Y Y Y Y Y Y Y Y Y Y Y l   - Z % I I Y Y I i , = : Y Y Y Y Y Y Y Y Y Y Y Y Y Y Y Y Y Y ",
"Y Y Y Y Y Y Y Y Y Y Y Y Y Y Y Y Y Y : L G - . Y Y Y Y Y I x U o Y Y Y Y Y Y Y Y Y Y Y Y Y Y Y Y Y Y ",
"Y Y Y Y Y Y Y Y Y Y Y Y Y Y Y Y Y Y Y   K C . : Y Y Y Y Y i N l k Y Y Y Y Y Y Y Y Y Y Y Y Y Y Y Y Y ",
"Y Y Y Y Y Y Y Y Y Y Y Y Y Y Y Y Y Y Y Y I k x o Y Y Y Y Y Y I I Y Y Y Y Y Y Y Y Y Y Y Y Y Y Y Y Y Y ",
"Y Y Y Y Y Y Y Y Y Y Y Y Y Y Y Y Y Y Y Y D B Z > Y Y Y Y Y Y I k D i Y Y Y Y Y Y Y Y Y Y Y Y Y Y Y Y ",
"Y Y Y Y Y Y Y Y Y Y Y Y Y Y Y Y Y Y Y Y C @ l Y Y Y Y Y Y I n s z   Y Y Y Y Y Y Y Y Y Y Y Y Y Y Y Y ",
"Y Y Y Y Y Y Y Y Y Y Y Y Y Y Y Y Y Y Y Y D A . I Y I k O > t = H B O Y Y Y Y Y Y Y Y Y Y Y Y Y Y Y Y ",
"Y Y Y Y Y Y Y Y Y Y Y Y Y Y Y Y Y i .   x - v t + v j c z N n O Y Y Y Y Y Y Y Y Y Y Y Y Y Y Y Y Y Y ",
"Y Y Y Y Y Y Y Y Y Y Y Y Y Y Y Y Y k >           . L l L 1 I Y Y Y Y Y Y Y Y Y Y Y Y Y Y Y Y Y Y Y Y ",
"Y Y Y Y Y Y Y Y Y Y Y Y Y Y Y Y Y Y Y Y Y Y Y Y Y Y Y Y Y Y Y Y Y Y Y Y Y Y Y Y Y Y Y Y Y Y Y Y Y Y "
};
