/* XPM */
static char *_009[] = {
/* columns rows colors chars-per-pixel */
"50 50 128 2 ",
"   c #C9C9C8",
".  c gray72",
"X  c #A8A7A8",
"o  c #989898",
"O  c #F3F3F3",
"+  c #888887",
"@  c #020501",
"#  c #777777",
"$  c #676766",
"%  c gray93",
"&  c #938975",
"*  c #946D6B",
"=  c #585857",
"-  c #474746",
";  c #363736",
":  c #151615",
">  c #E4E3E3",
",  c #DDDDDD",
"<  c #252625",
"1  c #9797B0",
"2  c #D5D5D5",
"3  c #AAA897",
"4  c #6B6656",
"5  c #71514D",
"6  c #060E06",
"7  c #DFC7C4",
"8  c #747466",
"9  c #484758",
"0  c #333326",
"q  c #191F16",
"w  c #BDA5A2",
"e  c #9D8686",
"r  c #786564",
"t  c #776B74",
"y  c #7E7F79",
"u  c #11130C",
"i  c #3C3E39",
"p  c #352625",
"a  c #E7E7E8",
"s  c #C2C2C5",
"d  c #292E25",
"f  c #5E5F5A",
"g  c #4C4F4B",
"h  c #998B94",
"j  c #07080D",
"k  c #6B6E68",
"l  c gray97",
"z  c #9E9F9C",
"x  c #1E1C1E",
"c  c #8E8F8C",
"v  c #342D31",
"b  c #808085",
"n  c #DEE3DE",
"m  c #AEAFAC",
"M  c #B2B2B4",
"N  c #606064",
"B  c #BFBFBC",
"V  c #1F2120",
"C  c #D3CFD5",
"Z  c gray81",
"A  c #505152",
"S  c #0E110F",
"D  c #0E0C0E",
"F  c #404142",
"G  c #919293",
"H  c #6F6F70",
"J  c #2D2E2F",
"K  c #A1A1A4",
"L  c #E6EBEA",
"P  c #FBFBFB",
"I  c black",
"U  c white",
"Y  c black",
"T  c black",
"R  c black",
"E  c black",
"W  c black",
"Q  c black",
"!  c black",
"~  c black",
"^  c black",
"/  c black",
"(  c black",
")  c black",
"_  c black",
"`  c black",
"'  c black",
"]  c black",
"[  c black",
"{  c black",
"}  c black",
"|  c black",
" . c black",
".. c black",
"X. c black",
"o. c black",
"O. c black",
"+. c black",
"@. c black",
"#. c black",
"$. c black",
"%. c black",
"&. c black",
"*. c black",
"=. c black",
"-. c black",
";. c black",
":. c black",
">. c black",
",. c black",
"<. c black",
"1. c black",
"2. c black",
"3. c black",
"4. c black",
"5. c black",
"6. c black",
"7. c black",
"8. c black",
"9. c black",
"0. c black",
"q. c black",
"w. c black",
"e. c black",
"r. c black",
"t. c black",
"y. c black",
"u. c black",
/* pixels */
"U U U U U U U U U U U U U U U U U U U U U U U U U U U U U U U U U U U U U U U U U U U U U U U U U U ",
"U U U U U U U U U U U U U U U U U U U U U U U U U U U U U U U U U U U U U U U U U U U U U U U U U U ",
"U U U U U U U U U U U U U U U U U U U U U U U U U U U U U U U U U U U U U U U U U U U U U U U U U U ",
"U U U U U U U U U U U U U U U U U U U U U U U U U U U U U U U U U U U U U U U U U U U U U U U U U U ",
"U U U U U U U U U U U U U U U U U U U U U U U U U U U U U U U U U U U U U U U U U U U U U U U U U U ",
"U U U U U U U U U U U U U U U U U U P L >   s P U U U U U U U U U U U U U U U U U U U U U U U U U U ",
"U U U U U U U U U U U U U U U U P . G # t B y l % U U U U U U U U U U U U U U U U U U U U U U U U U ",
"U U U U U U U U U U U U U U U U % F : x # B f l l U U U U U U U U U U U U U U U U U U U U U U U U U ",
"U U U U U U U U U U U U U U U U P z : i X = @ s U U U U U U U U U U U U U U U U U U U U U U U U U U ",
"U U U U U U U U U U U U U U U U U 2 - b F H j o U U U U U U U U U U U U U U U U U U U U U U U U U U ",
"U U U U U U U U U U U U U U U U U , k F * 4 v y l U U U U U U U U U U U U U U U U U U U U U U U U U ",
"U U U U U U U U U U U U U U U U U l M 4 7 w 4 B m U U U U U U U U U U U U U U U U U U U U U U U U U ",
"U U U U U U U U U U U U U U U U U U U K y   b X G > U U U U U U U U U U U U U U U U U U U U U U U U ",
"U U U U U U U U U U U U U U U U U U U z k h s 1 9 # % U U U U U U U U U U U U U U U U U U U U U U U ",
"U U U U U U U U U U U U U U U U U U U b y g y M i u z U U U U U U U U U U U U U U U U U U U U U U U ",
"U U U U U U U U U U U U U U U U U U U + K - < $ V S = U U U U U U U U U U U U U U U U U U U U U U U ",
"U U U U U U U U U U U U U U U U U U U o . H D D : : - U U U U U U U U U U U U U U U U U U U U U U U ",
"U U U U U U U U U U U U U U U U U U U K   M 6 D S : ; O U U U U U U U U U U U U U U U U U U U U U U ",
"U U U U U U U U U U U U U U U U U U U B z   @ 6 q : :   U U U U U U U U U U U U U U U U U U U U U U ",
"U U U U U U U U U U U U U U U U U U U   H , q 6 : V S o U U U U U U U U U U U U U U U U U U U U U U ",
"U U U U U U U U U U U U U U U U U U U 2 J L $ @ : q 6 H l U U U U U U U U U U U U U U U U U U U U U ",
"U U U U U U U U U U U U U U U U U U U 2 S Z K @ q : @ < a U U U U U U U U U U U U U U U U U U U U U ",
"U U U U U U U U U U U U U U U U U U U 2 D c > < j 6 @ @ m U U U U U U U U U U U U U U U U U U U U U ",
"U U U U U U U U U U U U U U U U U U U 2 @ ; o x V 6 @ @ N P U U U U U U U U U U U U U U U U U U U U ",
"U U U U U U U U U U U U U U U U U U U C @ @ @ @ @ I @ @ v a U U U U U U U U U U U U U U U U U U U U ",
"U U U U U U U U U U U U U U U U U U U 2 J @ S - S F : @ @ s U U U U U U U U U U U U U U U U U U U U ",
"U U U U U U U U U U U U U U U U U U U Z S @ : ; ; F V x @ c U U U U U U U U U U U U U U U U U U U U ",
"U U U U U U U U U U U U U U U U U U U Z I @ D N 0 < 6 J J g l U U U U U U U U U U U U U U U U U U U ",
"U U U U U U U U U U U U U U U U U U U s @ u r B y V 6 o # v l U U U U U U U U U U U U U U U U U U U ",
"U U U U U U U U U U U U U U U U U U U K I u 5 7 & @ @ = m D a U U U U U U U U U U U U U U U U U U U ",
"U U U U U U U U U U U U U U U U U U l # 6 6 p e r 8 6 @ B D s U U U U U U U U U U U U U U U U U U U ",
"U U U U U U U U U U U U U U U U U U , g I @ z O > > b I z f b U U U U U U U U U U U U U U U U U U U ",
"U U U U U U U U U U U U U U U U U U z : @ @ m U U U s I f X $ P U U U U U U U U U U U U U U U U U U ",
"U U U U U U U U U U U U U U U U U P - 6 @ I X U U U % d < M ; , U U U U U U U U U U U U U U U U U U ",
"U U U U U U U U U U U U U U U U U P f @ I @ y P U U U K I o = o U U U U U U U U U U U U U U U U U U ",
"U U U U U U U U U U U U U U U U U U z I I I x a U U U L F F B - O U U U U U U U U U U U U U U U U U ",
"U U U U U U U U U U U U U U U U U U B @ I I @ M U U U U o I M o X P U U U U U U U U U U U U U U U U ",
"U U U U U U U U U U U U U U U U U U L F I @ @ y P P U U > J g s J s U U U U U U U U U U U U U U U U ",
"U U U U U U U U U U U U U U U U U U U K I @ I - % U U U U . : o G f l U U U U U U U U U U U U U U U ",
"U U U U U U U U U U U U U U U U U U U n x @ I : 2 U U U U U z x   g . U U U U U U U U U U U U U U U ",
"U U U U U U U U U U U U U U U U U U l P G I I I o U U U U U O N # M H a U U U U U U U U U U U U U U ",
"U U U U U U U U U U U U U U U U U U P U > = b 3 B U U U U U U C < M c Z U U U U U U U U U U U U U U ",
"U U U U U U U U U U U U U U U U U U U U U O n B   , U U U U U U M i . Z U U U U U U U U U U U U U U ",
"U U U U U U U U U U U U U U U U U U U U U U P a y f O U U U U U l X 2 P P U U U U U U U U U U U U U ",
"U U U U U U U U U U U U U U U U U U U U U U 2 b ; . P U U U U U U , 2 m   U U U U U U U U U U U U U ",
"U U U U U U U U U U U U U U U U U U U U U 2 A A s l U U U U U U 2 $ g = , U U U U U U U U U U U U U ",
"U U U U U U U U U U U U U U U U U U U % M v I V d A G s B . s   M X y , U U U U U U U U U U U U U U ",
"U U U U U U U U U U U U U U U U U U U U P , . z b < @ @ g K   n > a % P U U U U U U U U U U U U U U ",
"U U U U U U U U U U U U U U U U U U U U U U U U P l % % P U U U U U U U U U U U U U U U U U U U U U ",
"U U U U U U U U U U U U U U U U U U U U U U U U U U U U U U U U U U U U U U U U U U U U U U U U U U "
};
