/* XPM */
static char *_000[] = {
/* columns rows colors chars-per-pixel */
"50 50 128 2 ",
"   c #C9C9C8",
".  c gray72",
"X  c #A8A7A8",
"o  c #989898",
"O  c #F3F3F3",
"+  c #888887",
"@  c #020501",
"#  c #777777",
"$  c #676766",
"%  c gray93",
"&  c #CCC8B5",
"*  c #585857",
"=  c #474746",
"-  c #363736",
";  c #151615",
":  c #E4E3E3",
">  c #DDDDDD",
",  c #252625",
"<  c #B4908B",
"1  c #D5D5D5",
"2  c #AAA897",
"3  c #71514D",
"4  c #060E06",
"5  c #DFC7C4",
"6  c #969689",
"7  c #575647",
"8  c #CBBBC3",
"9  c #484758",
"0  c #191F16",
"q  c #BDA5A2",
"w  c #9D8686",
"e  c #7E7F79",
"r  c #11130C",
"t  c #3C3E39",
"y  c #352625",
"u  c #E7E7E8",
"i  c #C2C2C5",
"p  c #5E5F5A",
"a  c #4C4F4B",
"s  c #DFD4D3",
"d  c #07080D",
"f  c #6B6E68",
"g  c #B5ACB5",
"h  c gray97",
"j  c #9E9F9C",
"k  c #1E1C1E",
"l  c #8E8F8C",
"z  c #342D31",
"x  c #808085",
"c  c #DEE3DE",
"v  c #AEAFAC",
"b  c #B2B2B4",
"n  c #EFF3F4",
"m  c #606064",
"M  c #BFBFBC",
"N  c #1F2120",
"B  c #D3CFD5",
"V  c gray81",
"C  c #505152",
"Z  c #0E110F",
"A  c #0E0C0E",
"S  c #D6DBD7",
"D  c #404142",
"F  c #919293",
"G  c #6F6F70",
"H  c #2D2E2F",
"J  c #D6DCDB",
"K  c #A1A1A4",
"L  c #E6EBEA",
"P  c #FBFBFB",
"I  c black",
"U  c white",
"Y  c black",
"T  c black",
"R  c black",
"E  c black",
"W  c black",
"Q  c black",
"!  c black",
"~  c black",
"^  c black",
"/  c black",
"(  c black",
")  c black",
"_  c black",
"`  c black",
"'  c black",
"]  c black",
"[  c black",
"{  c black",
"}  c black",
"|  c black",
" . c black",
".. c black",
"X. c black",
"o. c black",
"O. c black",
"+. c black",
"@. c black",
"#. c black",
"$. c black",
"%. c black",
"&. c black",
"*. c black",
"=. c black",
"-. c black",
";. c black",
":. c black",
">. c black",
",. c black",
"<. c black",
"1. c black",
"2. c black",
"3. c black",
"4. c black",
"5. c black",
"6. c black",
"7. c black",
"8. c black",
"9. c black",
"0. c black",
"q. c black",
"w. c black",
"e. c black",
"r. c black",
"t. c black",
"y. c black",
"u. c black",
/* pixels */
"U U U U U U U U U U U U U U U U U U U U U U U U U U U U U U U U U U U U U U U U U U U U U U U U U U ",
"U U U U U U U U U U U U U U U U U U U U U U U U U U U U U U U U U U U U U U U U U U U U U U U U U U ",
"U U U U U U U U U U U U U U U U U U U U U U U U U U U U U U U U U U U U U U U U U U U U U U U U U U ",
"U U U U U U U U U U U U U U U U U U U U U U U U U U U U U U U U U U U U U U U U U U U U U U U U U U ",
"U U U U U U U U U U U U U U U U U U U U U U U U U U U U U U U U U U U U U U U U U U U U U U U U U U ",
"U U U U U U U U U U U U U U U U U U U U U U U U U U U U U U U U U U U U U U U U U U U U U U U U U U ",
"U U U U U U U U U U U U U U U U O u B 1 U U U U U U U U U U U U U U U U U U U U U U U U U U U U U U ",
"U U U U U U U U U U U U U U h K = D m . b P U U U U U U U U U U U U U U U U U U U U U U U U U U U U ",
"U U U U U U U U U U U U U U i ; ; ; x o t X O U U U U U U U U U U U U U U U U U U U U U U U U U U U ",
"U U U U U U U U U U U U U U O $ ; C e H 0 j % U U U U U U U U U U U U U U U U U U U U U U U U U U U ",
"U U U U U U U U U U U U U U U b D = e K 3 # > % U U U U U U U U U U U U U U U U U U U U U U U U U U ",
"U U U U U U U U U U U U U U U F - < q s 8   S % u U U U U U U U U U U U U U U U U U U U U U U U U U ",
"U U U U U U U U U U U U U U h o m q s g > : P M . > U U U U U U U U U U U U U U U U U U U U U U U U ",
"U U U U U U U U U U U U U U U U u K p y w s i F + x h U U U U U U U U U U U U U U U U U U U U U U U ",
"U U U U U U U U U U U U U U U U U P O e F O + Z 9 x V U U U U U U U U U U U U U U U U U U U U U U U ",
"U U U U U U U U U U U U U U U U U U U K v % t 4 N * o U U U U U U U U U U U U U U U U U U U U U U U ",
"U U U U U U U U U U U U U U U U U U h X 1 > @ Z A d t O U U U U U U U U U U U U U U U U U U U U U U ",
"U U U U U U U U U U U U U U U U U U n + h M 4 A Z 4 A i U U U U U U U U U U U U U U U U U U U U U U ",
"U U U U U U U U U U U U U U U U U U P x P + @ A , @ @ F U U U U U U U U U U U U U U U U U U U U U U ",
"U U U U U U U U U U U U U U U U U U U l h C 4 @ @ @ @ x P U U U U U U U U U U U U U U U U U U U U U ",
"U U U U U U U U U U U U U U U U U U U + > H 4 @ @ @ @ x P U U U U U U U U U U U U U U U U U U U U U ",
"U U U U U U U U U U U U U U U U U U P # i ; 4 @ @ @ 4 $ h U U U U U U U U U U U U U U U U U U U U U ",
"U U U U U U U U U U U U U U U U U U % * X A 4 @ @ @ 4 - O U U U U U U U U U U U U U U U U U U U U U ",
"U U U U U U U U U U U U U U U U U U M = H 4 4 @ @ @ ; D : P P U U U U U U U U U U U U U U U U U U U ",
"U U U U U U U U U U U U U U U U U P = = ; 4 @ @ @ @ p C   P h U U U U U U U U U U U U U U U U U U U ",
"U U U U U U U U U U U U U U U U U % H i x A 4 @ @ 4 C t v U U U U U U U U U U U U U U U U U U U U U ",
"U U U U U U U U U U U U U U U P P n + 1 z k Z 4 @ A , k C O U U U U U U U U U U U U U U U U U U U U ",
"U U U U U U U U U U U U U U U P P P o l r - # + Z k v 6 m h U U U U U U U U U U U U U U U U U U U U ",
"U U U U U U U U U U U U U U U P P P $ + , H = a $ = 5 & + % U U U U U U U U U U U U U U U U U U U U ",
"U U U U U U U U U U U U U U U U U U M $ ; 0 ; * M k w 5 2 b U U U U U U U U U U U U U U U U U U U U ",
"U U U U U U U U U U U U U U U U P U U O - Z Z m i 4 k e e u U U U U U U U U U U U U U U U U U U U U ",
"U U U U U U U U U U U U U U U U U P U h t 4 A # b A @ v O U P U U U U U U U U U U U U U U U U U U U ",
"U U U U U U U U U U U U U U U U U U U h D 4 d e K 4 ; > U U U U U U U U U U U U U U U U U U U U U U ",
"U U U U U U U U U U U U U U U U U U U P p 4 4 x o @ , u U U U U U U U U U U U U U U U U U U U U U U ",
"U U U U U U U U U U P U U U U U U U U U o 4 4 l l @ t h U U U U U U U U U U U U U U U U U U U U U U ",
"U U U U U U U U U U P U U U U U U U U U . 4 4 F + @ C U U U U U U U U U U U U U U U U U U U U U U U ",
"U U U U U U U U U U U U U U U U U U U U J 0 @ v $ 4 * U U U U U U U U U U U U U U U U U U U U U U U ",
"U U U U U U U U U U U U U U U U U U U U O = @ b p ; a h U U U U U U U U U U U U U U U U U U U U U U ",
"U U U U U U U U U U U U U U U U U U U U U $ @ X * @ , i U U U U U U U U U U U U U U U U U U U U U U ",
"U U U U U U U U U U U U U U U U U U U U U + @ K C 4 4 a   P U U P U U U U U U U U U U U U U U U U U ",
"U U U U U U U U U U U U U U U U U U U U U j @ j f ; Z D + F u U P h U U U U U U U U U U U U U U U U ",
"U U U U U U U U U U U U U U U U U U U U U b @ x $ ; 7 . M 1 . U U U U U U U U U U U U U U U U U U U ",
"U U U U U U U U U U U U U U U U U U U U U : - e b K X . i #   U U U U U U U U U U U U U U U U U U U ",
"U U U U U U U U U U U U U U U U U U U U U h p m 1 P O     + O U U U U U U U U U U U U U U U U U U U ",
"U U U U U U U U U U U U U U U U U U U U U h j x i h : u o L U U U U U U U U U U U U U U U U U U U U ",
"U U U U U U U U U U U U U U U U U U U U h V c S : O u >   U U U U U U U U U U U U U U U U U U U U U ",
"U U U U U U U U U U U U U U U U U U h V G C C z + i : j h U U U U U U U U U U U U U U U U U U U U U ",
"U U U U U U U U U U U U U U U U %   p @ I I I @ I @ Z - X i U U U U U U U U U U U U U U U U U U U U ",
"U U U U U U U U U U U U U U U P % 1 V                 M . : U U U U U U U U U U U U U U U U U U U U ",
"U U U U U U U U U U U U U U U U U U U U U U U U U U U U U U U U U U U U U U U U U U U U U U U U U U "
};
