/* XPM */
static char *_001[] = {
/* columns rows colors chars-per-pixel */
"50 50 128 2 ",
"   c #C9C9C8",
".  c gray72",
"X  c #A8A7A8",
"o  c #989898",
"O  c #F3F3F3",
"+  c #888887",
"@  c #020501",
"#  c #777777",
"$  c #676766",
"%  c gray93",
"&  c #585857",
"*  c #474746",
"=  c #363736",
"-  c #151615",
";  c #E4E3E3",
":  c #DDDDDD",
">  c #252625",
",  c #B4908B",
"<  c #9797B0",
"1  c #D5D5D5",
"2  c #71514D",
"3  c #8E7889",
"4  c #060E06",
"5  c #DFC7C4",
"6  c #BAB8A7",
"7  c #15142A",
"8  c #87879E",
"9  c #191F16",
"0  c #BDA5A2",
"q  c #E9DDE0",
"w  c #9D8686",
"e  c #7E7F79",
"r  c #11130C",
"t  c #3C3E39",
"y  c #E7E7E8",
"u  c #C2C2C5",
"i  c #292E25",
"p  c #5E5F5A",
"a  c #4C4F4B",
"s  c #0E0907",
"d  c #D5D5DC",
"f  c #DFD4D3",
"g  c #998B94",
"h  c #07080D",
"j  c #6B6E68",
"k  c #B5ACB5",
"l  c gray97",
"z  c #9E9F9C",
"x  c #1E1C1E",
"c  c #8E8F8C",
"v  c #342D31",
"b  c #808085",
"n  c #DEE3DE",
"m  c #AEAFAC",
"M  c #B2B2B4",
"N  c #EFF3F4",
"B  c #606064",
"V  c #BFBFBC",
"C  c #1F2120",
"Z  c #D3CFD5",
"A  c gray81",
"S  c #DDD5DD",
"D  c #505152",
"F  c #0E110F",
"G  c #0E0C0E",
"H  c #D6DBD7",
"J  c #404142",
"K  c #919293",
"L  c #6F6F70",
"P  c #2D2E2F",
"I  c #D6DCDB",
"U  c #A1A1A4",
"Y  c #FBFBFB",
"T  c black",
"R  c white",
"E  c black",
"W  c black",
"Q  c black",
"!  c black",
"~  c black",
"^  c black",
"/  c black",
"(  c black",
")  c black",
"_  c black",
"`  c black",
"'  c black",
"]  c black",
"[  c black",
"{  c black",
"}  c black",
"|  c black",
" . c black",
".. c black",
"X. c black",
"o. c black",
"O. c black",
"+. c black",
"@. c black",
"#. c black",
"$. c black",
"%. c black",
"&. c black",
"*. c black",
"=. c black",
"-. c black",
";. c black",
":. c black",
">. c black",
",. c black",
"<. c black",
"1. c black",
"2. c black",
"3. c black",
"4. c black",
"5. c black",
"6. c black",
"7. c black",
"8. c black",
"9. c black",
"0. c black",
"q. c black",
"w. c black",
"e. c black",
"r. c black",
"t. c black",
"y. c black",
"u. c black",
/* pixels */
"R R R R R R R R R R R R R R R R R R R R R R R R R R R R R R R R R R R R R R R R R R R R R R R R R R ",
"R R R R R R R R R R R R R R R R R R R R R R R R R R R R R R R R R R R R R R R R R R R R R R R R R R ",
"R R R R R R R R R R R R R R R R R R R R R R R R R R R R R R R R R R R R R R R R R R R R R R R R R R ",
"R R R R R R R R R R R R R R R R R R R R R R R R R R R R R R R R R R R R R R R R R R R R R R R R R R ",
"R R R R R R R R R R R R R R R R R R R R R R R R R R R R R R R R R R R R R R R R R R R R R R R R R R ",
"R R R R R R R R R R R R R R R R R R R R R R R R R R R R R R R R R R R R R R R R R R R R R R R R R R ",
"R R R R R R R R R R R R R R R % y y 1 . l R R R R R R R R R R R R R R R R R R R R R R R R R R R R R ",
"R R R R R R R R R R R R R R u # # j X c O R R R R R R R R R R R R R R R R R R R R R R R R R R R R R ",
"R R R R R R R R R R R R R % a x 7 B . z y R R R R R R R R R R R R R R R R R R R R R R R R R R R R R ",
"R R R R R R R R R R R R R R M - C + b - K y R R R R R R R R R R R R R R R R R R R R R R R R R R R R ",
"R R R R R R R R R R R R R R % a # $ # > $ . R R R R R R R R R R R R R R R R R R R R R R R R R R R R ",
"R R R R R R R R R R R R R R % $ & # 5 6 m + y R R R R R R R R R R R R R R R R R R R R R R R R R R R ",
"R R R R R R R R R R R R R R Y + 3 q f q S l O l R R R R R R R R R R R R R R R R R R R R R R R R R R ",
"R R R R R R R R R R R R R Y R % u ; S k d y . u R R R R R R R R R R R R R R R R R R R R R R R R R R ",
"R R R R R R R R R R R R R R R R R R y g ; o < 8 ; R R R R R R R R R R R R R R R R R R R R R R R R R ",
"R R R R R R R R R R R R R R R R R R X z % & B K K l R R R R R R R R R R R R R R R R R R R R R R R R ",
"R R R R R R R R R R R R R R R R R R U   y D > = -   R R R R R R R R R R R R R R R R R R R R R R R R ",
"R R R R R R R R R R R R R R R R R R V O l p F G - + Y R R R R R R R R R R R R R R R R R R R R R R R ",
"R R R R R R R R R R R R R R R R R R M O l L s 4 F D O R R R R R R R R R R R R R R R R R R R R R R R ",
"R R R R R R R R R R R R R R R R R R . l O b s @ s * O R R R R R R R R R R R R R R R R R R R R R R R ",
"R R R R R R R R R R R R R R R R R R u O O b - @ 4 * O R R R R R R R R R R R R R R R R R R R R R R R ",
"R R R R R R R R R R R R R R R R R R : Y l c = @ = * % R R R R R R R R R R R R R R R R R R R R R R R ",
"R R R R R R R R R R R R R R R R R R H O Y M C - P v % R R R R R R R R R R R R R R R R R R R R R R R ",
"R R R R R R R R R R R R R R R R R Y K M c = t P i 9 ; R R R R R R R R R R R R R R R R R R R R R R R ",
"R R R R R R R R R R R R R R R R R : $ 4 r F C * J C 1 R R R R R R R R R R R R R R R R R R R R R R R ",
"R R R R R R R R R R R R R R R R R m X J G h & # J 4 A R R R R R R R R R R R R R R R R R R R R R R R ",
"R R R R R R R R R R R R R R R R O . k v s $ = & t - A R R R R R R R R R R R R R R R R R R R R R R R ",
"R R R R R R R R R R R R R R R l y m e F G t J J x @ A R R R R R R R R R R R R R R R R R R R R R R R ",
"R R R R R R R R R R R R R R R R : # t F > + z g * D ; R R R R R R R R R R R R R R R R R R R R R R R ",
"R R R R R R R R R R R R R R R R o v s s x w 0 , . P % R R R R R R R R R R R R R R R R R R R R R R R ",
"R R R R R R R R R R R R R R R y t > 4 4 r 2 w e V F : R R R R R R R R R R R R R R R R R R R R R R R ",
"R R R R R R R R R R R R R R R U P - 4 4 4 C J * . @ 1 R R R R R R R R R R R R R R R R R R R R R R R ",
"R R R R R R R R R R R R R R R K x 4 4 4 p B 4 @ U F A R R R R R R R R R R R R R R R R R R R R R R R ",
"R R R R R R R R R R R R R R R X 4 @ @ x H % & @ z J V R R R R R R R R R R R R R R R R R R R R R R R ",
"R R R R R R R R R R R R R R R A G @ @ @ m R . 4 j $ b R R R R R R R R R R R R R R R R R R R R R R R ",
"R R R R R R R R R R R R R R R % > @ @ @ B l : C P c P % R R R R R R R R R R R R R R R R R R R R R R ",
"R R R R R R R R R R R R R R R R c @ @ @ C % Y * 4 U P V R R R R R R R R R R R R R R R R R R R R R R ",
"R R R R R R R R R R R R R R R R Z r @ @ - A R # 4 U # e Y R R R R R R R R R R R R R R R R R R R R R ",
"R R R R R R R R R R R R R R R R O & @ @ @ K Y A - B o > y R R R R R R R R R R R R R R R R R R R R R ",
"R R R R R R R R R R R R R R R R R z F @ T & O Y + = e *   R R R R R R R R R R R R R R R R R R R R R ",
"R R R R R R R R R R R R R R R R R H F @ T > o Y y > & + b R R R R R R R R R R R R R R R R R R R R R ",
"R R R R R R R R R R R R R R R R R Y # e c m z A R b * e * : R R R R R R R R R R R R R R R R R R R R ",
"R R R R R R R R R R R R R R R R R R l Y l u p X R : $ $ V   R R R R R R R R R R R R R R R R R R R R ",
"R R R R R R R R R R R R R R R R R R R R Y X * U l R . = V 1 R R R R R R R R R R R R R R R R R R R R ",
"R R R R R R R R R R R R R R R R R R R R y # e A R R H p U N R R R R R R R R R R R R R R R R R R R R ",
"R R R R R R R R R R R R R R R R R R R R I + : ; R Y O ; O Y Y R R R R R R R R R R R R R R R R R R R ",
"R R R R R R R R R R R R R R R R R R R % z U U u : u X J + o H R R R R R R R R R R R R R R R R R R R ",
"R R R R R R R R R R R R R R R R R R Y + 9 T T T @ @ @ @ J K n R R R R R R R R R R R R R R R R R R R ",
"R R R R R R R R R R R R R R R R R R l       A u + o u A : l R R R R R R R R R R R R R R R R R R R R ",
"R R R R R R R R R R R R R R R R R R R R R R R R R R R R R R R R R R R R R R R R R R R R R R R R R R "
};
