/* XPM */
static char *_004[] = {
/* columns rows colors chars-per-pixel */
"50 50 128 2 ",
"   c #C9C9C8",
".  c gray72",
"X  c #A8A7A8",
"o  c #989898",
"O  c #F3F3F3",
"+  c #888887",
"@  c #020501",
"#  c #777777",
"$  c #676766",
"%  c gray93",
"&  c #938975",
"*  c #CCC8B5",
"=  c #946D6B",
"-  c #585857",
";  c #474746",
":  c #363736",
">  c #151615",
",  c #E4E3E3",
"<  c #DDDDDD",
"1  c #252625",
"2  c #B4908B",
"3  c #D5D5D5",
"4  c #6B6656",
"5  c #060E06",
"6  c #DFC7C4",
"7  c #969689",
"8  c #A7A7B9",
"9  c #575647",
"0  c #484758",
"q  c #87879E",
"w  c #333326",
"e  c #676777",
"r  c #191F16",
"t  c #AE99A6",
"y  c #BDA5A2",
"u  c #E9DDE0",
"i  c #262534",
"p  c #786564",
"a  c #7E7F79",
"s  c #11130C",
"d  c #3C3E39",
"f  c #E7E7E8",
"g  c #C2C2C5",
"h  c #292E25",
"j  c #5E5F5A",
"k  c #4C4F4B",
"l  c #DFD4D3",
"z  c #6B6E68",
"x  c gray97",
"c  c #9E9F9C",
"v  c #1E1C1E",
"b  c #8E8F8C",
"n  c #342D31",
"m  c #808085",
"M  c #DEE3DE",
"N  c #AEAFAC",
"B  c #B2B2B4",
"V  c #EFF3F4",
"C  c #606064",
"Z  c #BFBFBC",
"A  c #1F2120",
"S  c #D3CFD5",
"D  c gray81",
"F  c #505152",
"G  c #0E110F",
"H  c #0E0C0E",
"J  c #D6DBD7",
"K  c #404142",
"L  c #919293",
"P  c #6F6F70",
"I  c #2D2E2F",
"U  c #A1A1A4",
"Y  c #E6EBEA",
"T  c #FBFBFB",
"R  c black",
"E  c white",
"W  c black",
"Q  c black",
"!  c black",
"~  c black",
"^  c black",
"/  c black",
"(  c black",
")  c black",
"_  c black",
"`  c black",
"'  c black",
"]  c black",
"[  c black",
"{  c black",
"}  c black",
"|  c black",
" . c black",
".. c black",
"X. c black",
"o. c black",
"O. c black",
"+. c black",
"@. c black",
"#. c black",
"$. c black",
"%. c black",
"&. c black",
"*. c black",
"=. c black",
"-. c black",
";. c black",
":. c black",
">. c black",
",. c black",
"<. c black",
"1. c black",
"2. c black",
"3. c black",
"4. c black",
"5. c black",
"6. c black",
"7. c black",
"8. c black",
"9. c black",
"0. c black",
"q. c black",
"w. c black",
"e. c black",
"r. c black",
"t. c black",
"y. c black",
"u. c black",
/* pixels */
"E E E E E E E E E E E E E E E E E E E E E E E E E E E E E E E E E E E E E E E E E E E E E E E E E E ",
"E E E E E E E E E E E E E E E E E E E E E E E E E E E E E E E E E E E E E E E E E E E E E E E E E E ",
"E E E E E E E E E E E E E E E E E E E E E E E E E E E E E E E E E E E E E E E E E E E E E E E E E E ",
"E E E E E E E E E E E E E E E E E E E E E E E E E E E E E E E E E E E E E E E E E E E E E E E E E E ",
"E E E E E E E E E E E E E E E E E E E E E E E E E E E E E E E E E E E E E E E E E E E E E E E E E E ",
"E E E E E E E E E E E E E E E E E x O E E E E E E E E E E E E E E E E E E E E E E E E E E E E E E E ",
"E E E E E E E E E E E E E E T 3 g X . f x E E E E E E E E E E E E E E E E E E E E E E E E E E E E E ",
"E E E E E E E E E E E E E E U b L + . L , E E E O E E E E E E E E E E E E E E E E E E E E E E E E E ",
"E E E E E E E E E E E E E E # A I e g c U x E E E E E E E E E E E E E E E E E E E E E E E E E E E E ",
"E E E E E E E E E E E E E E L A A L o > + B g E E E E E E E E E E E E E E E E E E E E E E E E E E E ",
"E E E E E E E E E E E E E E Z d m # $ v P K   E E E E E E E E E E E E E E E E E E E E E E E E E E E ",
"E E E E E E E E E E E E E E < P p a 6 y Z c < x E E E E E E E E E E E E E E E E E E E E E E E E E E ",
"E E E E E E E E E E E E E E J - t u l u u E f f x E E E E E E E E E E E E E E E E E E E E E E E E E ",
"E E E E E E E E E E E E E E T < B D M . f g 8 Z , E E E E E E E E E E E E E E E E E E E E E E E E E ",
"E E E E E E E E E E E E E E E E T E E N B X q 0 U E E E E E E E E E E E E E E E E E E E E E E E E E ",
"E E E E E E E E E E E E E E E E O % % a ; e e i K , E E E E E E E E E E E E E E E E E E E E E E E E ",
"E E E E E E E E E E E E E E E E E T f ; 1 e C > v B E E E E E E E E E E E E E E E E E E E E E E E E ",
"E E E E E E E E E E E E E E E E E E % ; v H H G G a T E E E E E E E E E E E E E E E E E E E E E E E ",
"E E E E E E E E E E E E E E E E E E O k G H 5 G H : f E E E E E E E E E E E E E E E E E E E E E E E ",
"E E E E E E E E E E E E E E E E E E O k G G H G 5 r g E E E E E E E E E E E E E E E E E E E E E E E ",
"E E E E E E E E E E E E E E E E E E % ; G G H H H s o E E E E E E E E E E E E E E E E E E E E E E E ",
"E E E E E E E E E E E E E E E E E E V k G G > 5 5 5 - E E E E E E E E E E E E E E E E E E E E E E E ",
"E E E E E E E E E E E E E E E E E E O F G r G 5 5 5 : % E E E E E E E E E E E E E E E E E E E E E E ",
"E E E E E E E E E E E E E E E E E E % ; > A G 5 5 5 r   E E E E E E E E E E E E E E E E E E E E E E ",
"E E E E E E E E E E E E E E E E T x f : - : 5 G @ 5 5 o E E E E E E E E E E E E E E E E E E E E E E ",
"E E E E E E E E E E E E E E E E x T g I v > @ G @ @ @ # T E E E E E E E E E E E E E E E E E E E E E ",
"E E E E E E E E E E E E E E E E T x C ; k @ @ @ @ @ @ o E E E E E E E E E E E E E E E E E E E E E E ",
"E E E E E E E E E E E E E E E E E D A K h s @ @ @ G h o E E E E E E E E E E E E E E E E E E E E E E ",
"E E E E E E E E E E E E E E E E E D - z h @ > s h : r o E E E E E E E E E E E E E E E E E E E E E E ",
"E E E E E E E E E E E E E E E E E . c * & d L h G @ @ + E E E E E E E E E E E E E E E E E E E E E E ",
"E E E E E E E E E E E E E E E E x z = 2 # + m A @ @ @ U E E E E E E E E E E E E E E E E E E E E E E ",
"E E E E E E E E E E E E E E E E E o 4 4 $ 7 - @ @ @ G D E E E E E E E E E E E E E E E E E E E E E E ",
"E E E E E E E E E E E E E E E E E E , ; o $ : @ @ R d O E E E E E E E E E E E E E E E E E E E E E E ",
"E E E E E E E E E E E E E E E E E x T P b j @ @ R R a E E E E E E E E E E E E E E E E E E E E E E E ",
"E E E E E E E E E E E E E E E E E T O a F w R @ R R + E E E E E E E E E E E E E E E E E E E E E E E ",
"E E E E E E E E E E E E E E E E E E , $ n A @ @ @ @ F T E E E E E E E E E E E E E E E E E E E E E E ",
"E E E E E E E E E E E E E E E E E E < L : > @ @ R R v J E E E E E E E E E E E E E E E E E E E E E E ",
"E E E E E E E E E E E E E E E E E E f 7 F A @ 5 R R @ o E E E E E E E E E E E E E E E E E E E E E E ",
"E E E E E E E E E E E E E E E E E E T L m K @ 5 @ R @ P T E E E E E E E E E E E E E E E E E E E E E ",
"E E E E E E E E E E E E E E E E E E E Y B j A @ 5 R 5 - x E E E E E E E E E E E E E E E E E E E E E ",
"E E E E E E E E E E E E E E E E E E E E % Z k v @ R 5 $ x E E E E E E E E E E E E E E E E E E E E E ",
"E E E E E E E E E E E E E E E E E E E E E S N k 1 5 @ c E E E E E E E E E E E E E E E E E E E E E E ",
"E E E E E E E E E E E E E E E E E E E E E T f c g # : z % E E E E E E E E E E E E E E E E E E E E E ",
"E E E E E E E E E E E E E E E E E E E E E E E %   X a . O E E E E E E E E E E E E E E E E E E E E E ",
"E E E E E E E E E E E E E E E E E E E E E E E x 3 c X D T E E E E E E E E E E E E E E E E E E E E E ",
"E E E E E E E E E E E E E E E E E E E E E E T % # A 9 X E E E E E E E E E E E E E E E E E E E E E E ",
"E E E E E E E E E E E E E E E E E E E E T < + # s H s m x E E E E E E E E E E E E E E E E E E E E E ",
"E E E E E E E E E E E E E E E E E E O D c # @ R @ @ @ @ # < E E E E E E E E E E E E E E E E E E E E ",
"E E E E E E E E E E E E E E E E E %   Z . X U L N B Z   , T E E E E E E E E E E E E E E E E E E E E ",
"E E E E E E E E E E E E E E E E E E E E E E E E E E E E E E E E E E E E E E E E E E E E E E E E E E "
};
