/* XPM */
static char *_007[] = {
/* columns rows colors chars-per-pixel */
"50 50 128 2 ",
"   c #C9C9C8",
".  c gray72",
"X  c #D4AFAD",
"o  c #A8A7A8",
"O  c #989898",
"+  c #F3F3F3",
"@  c #888887",
"#  c #020501",
"$  c #777777",
"%  c #676766",
"&  c gray93",
"*  c #585857",
"=  c #474746",
"-  c #363736",
";  c #151615",
":  c #E4E3E3",
">  c #DDDDDD",
",  c #252625",
"<  c #9797B0",
"1  c #D5D5D5",
"2  c #545370",
"3  c #060E06",
"4  c #DFC7C4",
"5  c #15142A",
"6  c #87879E",
"7  c #191F16",
"8  c #AE99A6",
"9  c #BDA5A2",
"0  c #9D8686",
"q  c #262534",
"w  c #786564",
"e  c #7E7F79",
"r  c #11130C",
"t  c #3C3E39",
"y  c #E7E7E8",
"u  c #C2C2C5",
"i  c #292E25",
"p  c #5E5F5A",
"a  c #4C4F4B",
"s  c #DEE2E7",
"d  c #0E0907",
"f  c #DFD4D3",
"g  c #07080D",
"h  c #6B6E68",
"j  c gray97",
"k  c #9E9F9C",
"l  c #1E1C1E",
"z  c #8E8F8C",
"x  c #342D31",
"c  c #808085",
"v  c #DEE3DE",
"b  c #AEAFAC",
"n  c #B2B2B4",
"m  c #EFF3F4",
"M  c #606064",
"N  c #BFBFBC",
"B  c #1F2120",
"V  c gray81",
"C  c #505152",
"Z  c #0E110F",
"A  c #0E0C0E",
"S  c #D6DBD7",
"D  c #404142",
"F  c #919293",
"G  c #6F6F70",
"H  c #2D2E2F",
"J  c #A1A1A4",
"K  c #E6EBEA",
"L  c #FBFBFB",
"P  c black",
"I  c white",
"U  c black",
"Y  c black",
"T  c black",
"R  c black",
"E  c black",
"W  c black",
"Q  c black",
"!  c black",
"~  c black",
"^  c black",
"/  c black",
"(  c black",
")  c black",
"_  c black",
"`  c black",
"'  c black",
"]  c black",
"[  c black",
"{  c black",
"}  c black",
"|  c black",
" . c black",
".. c black",
"X. c black",
"o. c black",
"O. c black",
"+. c black",
"@. c black",
"#. c black",
"$. c black",
"%. c black",
"&. c black",
"*. c black",
"=. c black",
"-. c black",
";. c black",
":. c black",
">. c black",
",. c black",
"<. c black",
"1. c black",
"2. c black",
"3. c black",
"4. c black",
"5. c black",
"6. c black",
"7. c black",
"8. c black",
"9. c black",
"0. c black",
"q. c black",
"w. c black",
"e. c black",
"r. c black",
"t. c black",
"y. c black",
"u. c black",
/* pixels */
"I I I I I I I I I I I I I I I I I I I I I I I I I I I I I I I I I I I I I I I I I I I I I I I I I I ",
"I I I I I I I I I I I I I I I I I I I I I I I I I I I I I I I I I I I I I I I I I I I I I I I I I I ",
"I I I I I I I I I I I I I I I I I I I I I I I I I I I I I I I I I I I I I I I I I I I I I I I I I I ",
"I I I I I I I I I I I I I I I I I I I I I I L I I I I I I I I I I I I I I I I I I I I I I I I I I I ",
"I I I I I I I I I I I I I I I I I I I L L I I I I I I I I I I I I I I I I I I I I I I I I I I I I I ",
"I I I I I I I I I I I I I I I I I L 1 n u & L I I I I I I I I I I I I I I I I I I I I I I I I I I I ",
"I I I I I I I I I I I I I I I I j o $ 2 O .   I I I I I I I I I I I I I I I I I I I I I I I I I I I ",
"I I I I I I I I I I I I I I I I : - ; H o $ F I I I I I I I I I I I I I I I I I I I I I I I I I I I ",
"I I I I I I I I I I I I I I I L L c ; e @ l p L I I I I I I I I I I I I I I I I I I I I I I I I I I ",
"I I I I I I I I I I I I I I I j L V * p G C c I I I I I I I I I I I I I I I I I I I I I I I I I I I ",
"I I I I I I I I I I I I I I I j j 1 a 8 0 0 $ & I I I I I I I I I I I I I I I I I I I I I I I I I I ",
"I I I I I I I I I I I I I I I I I S p f f 4 . & j I I I I I I I I I I I I I I I I I I I I I I I I I ",
"I I I I I I I I I I I I I I I I I I : V w   . < O s I I I I I I I I I I I I I I I I I I I I I I I I ",
"I I I I I I I I I I I I I I I I I I I j % . c . . 6 L I I I I I I I I I I I I I I I I I I I I I I I ",
"I I I I I I I I I I I I I I I I I I I j $ . l q O 6 : L L I I I I I I I I I I I I I I I I I I I I I ",
"I I I I I I I I I I I I I I I I I I I + c . Z - 5 Z c L j L I I I I I I I I I I I I I I I I I I I I ",
"I I I I I I I I I I I I I I I I I I I & O . g , Z 3 ; . I & I I I I I I I I I I I I I I I I I I I I ",
"I I I I I I I I I I I I I I I I I I I + * N 3 g 7 r 3 a & j L I I I I I I I I I I I I I I I I I I I ",
"I I I I I I I I I I I I I I I I I I I j = F # # # A Z 3 @ L I I I I I I I I I I I I I I I I I I I I ",
"I I I I I I I I I I I I I I I I I I I j C p 3 # # # # # 7   I I I I I I I I I I I I I I I I I I I I ",
"I I I I I I I I I I I I I I I I I I I j * B ; # # P # # # h L I I I I I I I I I I I I I I I I I I I ",
"I I I I I I I I I I I I I I I I I I I j * Z B # # P P # # 3 > I I I I I I I I I I I I I I I I I I I ",
"I I I I I I I I I I I I I I I I I I I j C 3 Z # # P P # x , u I I I I I I I I I I I I I I I I I I I ",
"I I I I I I I I I I I I I I I I I I I j * # # # # # P # # # J I I I I I I I I I I I I I I I I I I I ",
"I I I I I I I I I I I I I I I I I I I L F # # # # P P # t 3 z I I I I I I I I I I I I I I I I I I I ",
"I I I I I I I I I I I I I I I I I I I I v H # # # # P # A ; e I I I I I I I I I I I I I I I I I I I ",
"I I I I I I I I I I I I I I I I I I I I L G # # # P P # F w J I I I I I I I I I I I I I I I I I I I ",
"I I I I I I I I I I I I I I I I I I I I I . # g d # , i   9   I I I I I I I I I I I I I I I I I I I ",
"I I I I I I I I I I I I I I I I I I I I I & M H l b $ & . X b & I I I I I I I I I I I I I I I I I I ",
"I I I I I I I I I I I I I I I I I I I I I I V 3 # N o I & b   + I I I I I I I I I I I I I I I I I I ",
"I I I I I I I I I I I I I I I I I I I I I I 1 3 g N n I I L I I I I I I I I I I I I I I I I I I I I ",
"I I I I I I I I I I I I I I I I I I I I I I 1 3 ; N J I L I I I I I I I I I I I I I I I I I I I I I ",
"I I I I I I I I I I I I I I I I I I I I L L V 3 , N M I L I I I I I I I I I I I I I I I I I I I I I ",
"I I I I I I I I I I I I I I I I I I I I I L   # x . H y I I I I I I I I I I I I I I I I I I I I I I ",
"I I I I I I I I I I I I I I I I I I I I I I   # t J A u I I I I I I I I I I I I I I I I I I I I I I ",
"I I I I I I I I I I I I I I I I I I I I I I N # H e g G j I I I I I I I I I I I I I I I I I I I I I ",
"I I I I I I I I I I I I I I I I I I I I I I . # x c Z ; & I I I I I I I I I I I I I I I I I I I I I ",
"I I I I I I I I I I I I I I I I I I I I I I n ; x e 7 # 1 I I I I I I I I I I I I I I I I I I I I I ",
"I I I I I I I I I I I I I I I I I I I I I I n 7 - h , # F I I I I I I I I I I I I I I I I I I I I I ",
"I I I I I I I I I I I I I I I I I I I I I I n B H p - P l . L I I I I I I I I I I I I I I I I I I I ",
"I I I I I I I I I I I I I I I I I I I I I I n t H p a # d = N L I I I I I I I I I I I I I I I I I I ",
"I I I I I I I I I I I I I I I I I I I I I I u G D * h # D k o 1 I I I I I I I I I I I I I I I I I I ",
"I I I I I I I I I I I I I I I I I I I I I I & 1 N O V   . V $ O I I I I I I I I I I I I I I I I I I ",
"I I I I I I I I I I I I I I I I I I I I I I j V V @   I j > $ V I I I I I I I I I I I I I I I I I I ",
"I I I I I I I I I I I I I I I I I I I I I I I > u F   I L b $ & I I I I I I I I I I I I I I I I I I ",
"I I I I I I I I I I I I I I I I I I I I I L + & S y : I I b o : I I I I I I I I I I I I I I I I I I ",
"I I I I I I I I I I I I I I I I I I I L & N O = - p % u & z V + I I I I I I I I I I I I I I I I I I ",
"I I I I I I I I I I I I I I I I I I I K S @ t # P P P 7 B H *   I I I I I I I I I I I I I I I I I I ",
"I I I I I I I I I I I I I I I I I I I I I I L & V u N o k k J . V m I I I I I I I I I I I I I I I I ",
"I I I I I I I I I I I I I I I I I I I I I I I I I I I I I I I I I I I I I I I I I I I I I I I I I I "
};
