/* XPM */
static char *_011[] = {
/* columns rows colors chars-per-pixel */
"50 50 128 2 ",
"   c #C9C9C8",
".  c gray72",
"X  c #A8A7A8",
"o  c #989898",
"O  c #F3F3F3",
"+  c #888887",
"@  c #020501",
"#  c #777777",
"$  c #676766",
"%  c gray93",
"&  c #585857",
"*  c #474746",
"=  c #363736",
"-  c #151615",
";  c #B4B4CC",
":  c #E4E3E3",
">  c #DDDDDD",
",  c #252625",
"<  c #9797B0",
"1  c #D5D5D5",
"2  c #060E06",
"3  c #A7A7B9",
"4  c #747466",
"5  c #CBBBC3",
"6  c #15142A",
"7  c #87879E",
"8  c #676777",
"9  c #191F16",
"0  c #AE99A6",
"q  c #9D8686",
"w  c #262534",
"e  c #EBEBE5",
"r  c #7E7F79",
"t  c #11130C",
"y  c #3C3E39",
"u  c #E7E7E8",
"i  c #C2C2C5",
"p  c #292E25",
"a  c #5E5F5A",
"s  c #4C4F4B",
"d  c #DFD4D3",
"f  c #07080D",
"g  c #6B6E68",
"h  c gray97",
"j  c #9E9F9C",
"k  c #1E1C1E",
"l  c #8E8F8C",
"z  c #342D31",
"x  c #808085",
"c  c #DEE3DE",
"v  c #AEAFAC",
"b  c #B2B2B4",
"n  c #606064",
"m  c #BFBFBC",
"M  c #EDE6EE",
"N  c #1F2120",
"B  c #D3CFD5",
"V  c gray81",
"C  c #505152",
"Z  c #0E110F",
"A  c #0E0C0E",
"S  c #D6DBD7",
"D  c #404142",
"F  c #919293",
"G  c #6F6F70",
"H  c #2D2E2F",
"J  c #D6DCDB",
"K  c #A1A1A4",
"L  c #E6EBEA",
"P  c #FBFBFB",
"I  c black",
"U  c white",
"Y  c black",
"T  c black",
"R  c black",
"E  c black",
"W  c black",
"Q  c black",
"!  c black",
"~  c black",
"^  c black",
"/  c black",
"(  c black",
")  c black",
"_  c black",
"`  c black",
"'  c black",
"]  c black",
"[  c black",
"{  c black",
"}  c black",
"|  c black",
" . c black",
".. c black",
"X. c black",
"o. c black",
"O. c black",
"+. c black",
"@. c black",
"#. c black",
"$. c black",
"%. c black",
"&. c black",
"*. c black",
"=. c black",
"-. c black",
";. c black",
":. c black",
">. c black",
",. c black",
"<. c black",
"1. c black",
"2. c black",
"3. c black",
"4. c black",
"5. c black",
"6. c black",
"7. c black",
"8. c black",
"9. c black",
"0. c black",
"q. c black",
"w. c black",
"e. c black",
"r. c black",
"t. c black",
"y. c black",
"u. c black",
/* pixels */
"U U U U U U U U U U U U U U U U U U U U U U U U U U U U U U U U U U U U U U U U U U U U U U U U U U ",
"U U U U U U U U U U U U U U U U U U U U U U U U U U U U U U U U U U U U U U U U U U U U U U U U U U ",
"U U U U U U U U U U U U U U U U U U U U U U U U U U U U U U U U U U U U U U U U U U U U U U U U U U ",
"U U U U U U U U U U U U U U U U U U U U U U U U U U U U U U U U U U U U U U U U U U U U U U U U U U ",
"U U U U U U U U U U U U U U U U U % L > O U U U U U U U U U U U U U U U U U U U U U U U U U U U U U ",
"U U U U U U U U U U U U U U U u m b B X i P U U U U U U U U U U U U U U U U U U U U U U U U U U U U ",
"U U U U U U U U U U U U U U h F x $ < > a O U U U U U U U U U U U U U U U U U U U U U U U U U U U U ",
"U U U U U U U U U U U U U U i H 6 6 X F y > U U U U U U U U U U U U U U U U U U U U U U U U U U U U ",
"U U U U U U U U U U U U U U L a H G l s H v U U U U U U U U U U U U U U U U U U U U U U U U U U U U ",
"U U U U U U U U U U U U U U U V & g a l & s u U U U U U U U U U U U U U U U U U U U U U U U U U U U ",
"U U U U U U U U U U U U U U U > & j 5 0 0   v L U U U U U U U U U U U U U U U U U U U U U U U U U U ",
"U U U U U U U U U U U U U U U S m q M d     : V % U U U U U U U U U U U U U U U U U U U U U U U U U ",
"U U U U U U U U U U U U U U U P U 1 + a   ; b & v P U U U U U U U U U U U U U U U U U U U U U U U U ",
"U U U U U U U U U U U U U U U U U U 1 y & 3 7 w H > U U U U U U U U U U U U U U U U U U U U U U U U ",
"U U U U U U U U U U U U U U U U U U u z w 8 8 y - m U U U U U U U U U U U U U U U U U U U U U U U U ",
"U U U U U U U U U U U U U U U U U U > H , - - H Z l U U U U U U U U U U U U U U U U U U U U U U U U ",
"U U U U U U U U U U U U U U U U U U : y - A k , Z C O U U U U U U U U U U U U U U U U U U U U U U U ",
"U U U U U U U U U U U U U U U U U U % s Z Z k = N t V U U U U U U U U U U U U U U U U U U U U U U U ",
"U U U U U U U U U U U U U U U U U U U # Z 2 - D , @ x U U U U U U U U U U U U U U U U U U U U U U U ",
"U U U U U U U U U U U U U U U U U U U F N Z - y k @ = % U U U U U U U U U U U U U U U U U U U U U U ",
"U U U U U U U U U U U U U U U U U P U m z A H D 2 @ 2   U U U U U U U U U U U U U U U U U U U U U U ",
"U U U U U U U U U U U U U U U U U P P   D N 9 @ @ @ @ r P U U U U U U U U U U U U U U U U U U U U U ",
"U U U U U U U U U U U U U U U U U h h   y H Z @ 2 @ @ 9 J U U U U U U U U U U U U U U U U U U U U U ",
"U U U U U U U U U U U U U U U U U P U i * k 2 @ @ @ @ @ i U U U U U U U U U U U U U U U U U U U U U ",
"U U U U U U U U U U U U U U U U U U U F K y @ N 2 @ @ @ b U U U U U U U U U U U U U U U U U U U U U ",
"U U U U U U U U U U U U U U U U U U U j z D 2 k - @ @ y X U U U U U U U U U U U U U U U U U U U U U ",
"U U U U U U U U U U U U U U U U U U U V + s @ @ Z N C s m U U U U U U U U U U U U U U U U U U U U U ",
"U U U U U U U U U U U U U U U U U U U e O 4 2 2 + + 2 2 V U U U U U U U U U U U U U U U U U U U U U ",
"U U U U U U U U U U U U U U U U U U U   m n @ 2 b D 2 2 X U U U U U U U U U U U U U U U U U U U U U ",
"U U U U U U U U U U U U U U U U U U U : # C @ n V f 2 @ $ U U U U U U U U U U U U U U U U U U U U U ",
"U U U U U U U U U U U U U U U U U U U U F 2 Z i # 2 @ @ * O U U U U U U U U U U U U U U U U U U U U ",
"U U U U U U U U U U U U U U U U U U U P r @ r   - 2 @ @ z u U U U U U U U U U U U U U U U U U U U U ",
"U U U U U U U U U U U U U U U U U U U P G - o G 2 @ @ @ k > U U U U U U U U U U U U U U U U U U U U ",
"U U U U U U U U U U U U U U U U U U U U F , x , 2 2 @ @ - > U U U U U U U U U U U U U U U U U U U U ",
"U U U U U U U U U U U U U U U U U U U U v p $ k @ @ @ @ - > U U U U U U U U U U U U U U U U U U U U ",
"U U U U U U U U U U U U U U U U U U U U 1 * F a t k @ @ k c U U U U U U U U U U U U U U U U U U U U ",
"U U U U U U U U U U U U U U U U U U U P O a X X , 9 @ I k c U U U U U U U U U U U U U U U U U U U U ",
"U U U U U U U U U U U U U U U U U U U U U   a m G Z @ I k > U U U U U U U U U U U U U U U U U U U U ",
"U U U U U U U U U P U U U U U U U U U U U P K x o p @ @ - S U U U U U U U U U U U U U U U U U U U U ",
"U U U U U U U U U u U U U U U U U U U U U U O G + # Z @ Z V U U U U U U U U U U U U U U U U U U U U ",
"U U U U U U U U U U U U U U U U U U U U U U U V a l $ @ k 1 U U U U U U U U U U U U U U U U U U U U ",
"U U U U U U U U U U U U U U U U U U U U U U U U > . u # & O U U U U U U U U U U U U U U U U U U U U ",
"U U U U U U U U U U U U U U U U U U U U U U U U U U % K X U U U U U U U U U U U U U U U U U U U U U ",
"U U U U U U U U U U U U U U U U U U U U U U U U U O o & . U U U U U U U U U U U U U U U U U U U U U ",
"U U U U U U U U U U U U U U U U U U U U U U U U h b k Z + U U U U U U U U U U U U U U U U U U U U U ",
"U U U U U U U U U U U U U U U U U U U U U U % l C @ I f s h U U U U U U U U U U U U U U U U U U U U ",
"U U U U U U U U U U U U U U U U U U U U % b s f @ @ @ * j u U U U U U U U U U U U U U U U U U U U U ",
"U U U U U U U U U U U U U U U U U U U P : . j K o o K % U U U U U U U U U U U U U U U U U U U U U U ",
"U U U U U U U U U U U U U U U U U U U U U U U U U U U U U U U U U U U U U U U U U U U U U U U U U U ",
"U U U U U U U U U U U U U U U U U U U U U U U U U U U U U U U U U U U U U U U U U U U U U U U U U U "
};
