/* XPM */
static char *_008[] = {
/* columns rows colors chars-per-pixel */
"50 50 128 2 ",
"   c #C9C9C8",
".  c gray72",
"X  c #A8A7A8",
"o  c #989898",
"O  c #F3F3F3",
"+  c #888887",
"@  c #020501",
"#  c #777777",
"$  c #676766",
"%  c gray93",
"&  c #938975",
"*  c #585857",
"=  c #474746",
"-  c #363736",
";  c #151615",
":  c #E4E3E3",
">  c #DDDDDD",
",  c #252625",
"<  c #B4908B",
"1  c #D5D5D5",
"2  c #6B6656",
"3  c #060E06",
"4  c #DFC7C4",
"5  c #BAB8A7",
"6  c #747466",
"7  c #484758",
"8  c #87879E",
"9  c #191F16",
"0  c #AE99A6",
"q  c #BDA5A2",
"w  c #9D8686",
"e  c #776B74",
"r  c #7E7F79",
"t  c #11130C",
"y  c #3C3E39",
"u  c #DDDCD3",
"i  c #E7E7E8",
"p  c #C2C2C5",
"a  c #544A57",
"s  c #292E25",
"d  c #5E5F5A",
"f  c #4C4F4B",
"g  c #0E0907",
"h  c #DFD4D3",
"j  c #07080D",
"k  c #6B6E68",
"l  c #B5ACB5",
"z  c gray97",
"x  c #9E9F9C",
"c  c #1E1C1E",
"v  c #8E8F8C",
"b  c #342D31",
"n  c #808085",
"m  c #DEE3DE",
"M  c #AEAFAC",
"N  c #B2B2B4",
"B  c #606064",
"V  c #BFBFBC",
"C  c #1F2120",
"Z  c gray81",
"A  c #505152",
"S  c #0E110F",
"D  c #0E0C0E",
"F  c #D6DBD7",
"G  c #404142",
"H  c #919293",
"J  c #6F6F70",
"K  c #2D2E2F",
"L  c #D6DCDB",
"P  c #A1A1A4",
"I  c #E6EBEA",
"U  c #FBFBFB",
"Y  c black",
"T  c white",
"R  c black",
"E  c black",
"W  c black",
"Q  c black",
"!  c black",
"~  c black",
"^  c black",
"/  c black",
"(  c black",
")  c black",
"_  c black",
"`  c black",
"'  c black",
"]  c black",
"[  c black",
"{  c black",
"}  c black",
"|  c black",
" . c black",
".. c black",
"X. c black",
"o. c black",
"O. c black",
"+. c black",
"@. c black",
"#. c black",
"$. c black",
"%. c black",
"&. c black",
"*. c black",
"=. c black",
"-. c black",
";. c black",
":. c black",
">. c black",
",. c black",
"<. c black",
"1. c black",
"2. c black",
"3. c black",
"4. c black",
"5. c black",
"6. c black",
"7. c black",
"8. c black",
"9. c black",
"0. c black",
"q. c black",
"w. c black",
"e. c black",
"r. c black",
"t. c black",
"y. c black",
"u. c black",
/* pixels */
"T T T T T T T T T T T T T T T T T T T T T T T T T T T T T T T T T T T T T T T T T T T T T T T T T T ",
"T T T T T T T T T T T T T T T T T T T T T T T T T T T T T T T T T T T T T T T T T T T T T T T T T T ",
"T T T T T T T T T T T T T T T T T T T T T T T T T T T T T T T T T T T T T T T T T T T T T T T T T T ",
"T T T T T T T T T T T T T T T T T T T T T T T T T T T T T T T T T T T T T T T T T T T T T T T T T T ",
"T T T T T T T T T T T T T T T T z T T T i : T T T T T T T T T T T T T T T T T T T T T T T T T T T T ",
"T T T T T T T T T T T T T T T T U z N p N p % T T T T T T T T T T T T T T T T T T T T T T T T T T T ",
"T T T T T T T T T T T T T T T T T . J G a X   i T T T T T T T T T T T T T T T T T T T T T T T T T T ",
"T T T T T T T T T T T T T T T T U # S S * . * N T T T T T T T T T T T T T T T T T T T T T T T T T T ",
"T T T T T T T T T T T T T T T T T H C - P B j d p T T T T T T T T T T T T T T T T T T T T T T T T T ",
"T T T T T T T T T T T T T T T T T . - # y + - ; x T T T T T T T T T T T T T T T T T T T T T T T T T ",
"T T T T T T T T T T T T T T T T T i d G l & d f p T T T T T T T T T T T T T T T T T T T T T T T T T ",
"T T T T T T T T T T T T T T T T T T Z e h 4 < . V L T T T T T T T T T T T T T T T T T T T T T T T T ",
"T T T T T T T T T T T T T T T T T T T p * q 0 o n H O T T T T T T T T T T T T T T T T T T T T T T T ",
"T T T T T T T T T T T T T T T T T T T Z f P v V X G p T T T T T T T T T T T T T T T T T T T T T T T ",
"T T T T T T T T T T T T T T T T T T T Z k o , 7 8 - k U T T T T T T T T T T T T T T T T T T T T T T ",
"T T T T T T T T T T T T T T T T T T T p n V K , D C C V T T T T T T T T T T T T T T T T T T T T T T ",
"T T T T T T T T T T T T T T T T T T T o + F n ; 3 ; 9 J z U T T T T T T T T T T T T T T T T T T T T ",
"T T T T T T T T T T T T T T T T T T T x J O o @ 3 D ; C : T T T T T T T T T T T T T T T T T T T T T ",
"T T T T T T T T T T T T T T T T T T T . ; I V @ @ @ S t M T T T T T T T T T T T T T T T T T T T T T ",
"T T T T T T T T T T T T T T T T T T T   j F F ; @ @ @ D n T T T T T T T T T T T T T T T T T T T T T ",
"T T T T T T T T T T T T T T T T T T T   S p z G @ @ @ 3 G % T T T T T T T T T T T T T T T T T T T T ",
"T T T T T T T T T T T T T T T T T T T Z ; # U n @ @ @ @ 3 p T T T T T T T T T T T T T T T T T T T T ",
"T T T T T T T T T T T T T T T T T T T F , f > o @ Y Y @ 3 x T T T T T T T T T T T T T T T T T T T T ",
"T T T T T T T T T T T T T T T T T T T O f 3 C @ @ Y Y @ @ H T T T T T T T T T T T T T T T T T T T T ",
"T T T T T T T T T T T T T T T T T T T T X @ @ @ @ @ @ s D x T T T T T T T T T T T T T T T T T T T T ",
"T T T T T T T T T T T T T T T T T T T T Z j @ @ Y @ @ S , M T T T T T T T T T T T T T T T T T T T T ",
"T T T T T T T T T T T T T T T T T T T T m C @ @ @ Y 3 2 y . T T T T T T T T T T T T T T T T T T T T ",
"T T T T T T T T T T T T T T T T T T T T > ; @ @ @ g G q 6 X T T T T T T T T T T T T T T T T T T T T ",
"T T T T T T T T T T T T T T T T T T T T . @ @ @ @ g x 5   + z T T T T T T T T T T T T T T T T T T T ",
"T T T T T T T T T T T T T T T T T T T U n Y @ @ @ @ r r w + p T T T T T T T T T T T T T T T T T T T ",
"T T T T T T T T T T T T T T T T T T T z G Y Y @ @ Y f H - N O T T T T T T T T T T T T T T T T T T T ",
"T T T T T T T T T T T T T T T T T T T O y Y Y @ @ @ - v - i T T T T T T T T T T T T T T T T T T T T ",
"T T T T T T T T T T T T T T T T T T T % c Y Y Y Y @ , # D 1 T T T T T T T T T T T T T T T T T T T T ",
"T T T T T T T T T T T T T T T T T T T Z Y Y Y @ Y @ D $ Y N T T T T T T T T T T T T T T T T T T T T ",
"T T T T T T T T T T T T T T T T T T T x Y @ Y Y Y @ @ b @ o T T T T T T T T T T T T T T T T T T T T ",
"T T T T T T T T T T T T T T T T T T T Z @ Y Y Y Y @ @ 9 ; d U T T T T T T T T T T T T T T T T T T T ",
"T T T T T T T T T T T T T T T T T T z z $ @ Y Y 3 3 3 3 A , O T T T T T T T T T T T T T T T T T T T ",
"T T T T T T T T T T T T T T T T T T U T   9 Y Y @ D 3 @ d b > T T T T T T T T T T T T T T T T T T T ",
"T T T T T T T T T T T T T T T T T T T T U n Y Y Y S 9 3 - * Z z U T T T T T T T T T T T T T T T T T ",
"T T T T T T T T T T T T T T T T T T T T T : G Y Y @ c C ; k . U O T T T T T T T T T T T T T T T T T ",
"T T T T T T T T T T T T T T T T T T T T T T V S Y , r K D B r U U T T T T T T T T T T T T T T T T T ",
"T T T T T T T T T T T T T T T T T T T T T T T x # Z M $ s y # I T T T T T T T T T T T T T T T T T T ",
"T T T T T T T T T T T T T T T T T T T T T T T z U u p - = $ v > T T T T T T T T T T T T T T T T T T ",
"T T T T T T T T T T T T T T T T T T T T T T T T T z P , p X n   T T T T T T T T T T T T T T T T T T ",
"T T T T T T T T T T T T T T T T T T T T T T T T T > G V U 1 V z T T T T T T T T T T T T T T T T T T ",
"T T T T T T T T T T T T T T T T T T T T T T T T T p * z % X   Z T T T T T T T T T T T T T T T T T T ",
"T T T T T T T T T T T T T T T T T T T T T T % . J b y N d @ 9 * U T T T T T T T T T T T T T T T T T ",
"T T T T T T T T T T T T T T T T T T T T T : d c S @ Y Y Y Y B X U T T T T T T T T T T T T T T T T T ",
"T T T T T T T T T T T T T T T T T T T T T T U z z O i > > > U T T T T T T T T T T T T T T T T T T T ",
"T T T T T T T T T T T T T T T T T T T T T T T T T T T T T T T T T T T T T T T T T T T T T T T T T T "
};
