/* XPM */
static char *_006[] = {
/* columns rows colors chars-per-pixel */
"50 50 128 2 ",
"   c #C9C9C8",
".  c gray72",
"X  c #D4AFAD",
"o  c #A8A7A8",
"O  c #989898",
"+  c #F3F3F3",
"@  c #888887",
"#  c #020501",
"$  c #777777",
"%  c #676766",
"&  c gray93",
"*  c #585857",
"=  c #474746",
"-  c #363736",
";  c #151615",
":  c #E4E3E3",
">  c #DDDDDD",
",  c #252625",
"<  c #D5D5D5",
"1  c #4A4736",
"2  c #545370",
"3  c #6B6656",
"4  c #D6D6C8",
"5  c #060E06",
"6  c #242617",
"7  c #DFC7C4",
"8  c #969689",
"9  c #A7A7B9",
"0  c #CBBBC3",
"q  c #484758",
"w  c #676777",
"e  c #191F16",
"r  c #AE99A6",
"t  c #BDA5A2",
"y  c #E9DDE0",
"u  c #786564",
"i  c #776B74",
"p  c #7E7F79",
"a  c #11130C",
"s  c #3C3E39",
"d  c #E7E7E8",
"f  c #C2C2C5",
"g  c #292E25",
"h  c #5E5F5A",
"j  c #4C4F4B",
"k  c #0E0907",
"l  c #DFD4D3",
"z  c #6B6E68",
"x  c gray97",
"c  c #9E9F9C",
"v  c #1E1C1E",
"b  c #8E8F8C",
"n  c #342D31",
"m  c #808085",
"M  c #DEE3DE",
"N  c #AEAFAC",
"B  c #B2B2B4",
"V  c #606064",
"C  c #BFBFBC",
"Z  c #1F2120",
"A  c #D3CFD5",
"S  c gray81",
"D  c #505152",
"F  c #0E110F",
"G  c #0E0C0E",
"H  c #D6DBD7",
"J  c #404142",
"K  c #919293",
"L  c #6F6F70",
"P  c #2D2E2F",
"I  c #D6DCDB",
"U  c #A1A1A4",
"Y  c #E6EBEA",
"T  c #FBFBFB",
"R  c black",
"E  c white",
"W  c black",
"Q  c black",
"!  c black",
"~  c black",
"^  c black",
"/  c black",
"(  c black",
")  c black",
"_  c black",
"`  c black",
"'  c black",
"]  c black",
"[  c black",
"{  c black",
"}  c black",
"|  c black",
" . c black",
".. c black",
"X. c black",
"o. c black",
"O. c black",
"+. c black",
"@. c black",
"#. c black",
"$. c black",
"%. c black",
"&. c black",
"*. c black",
"=. c black",
"-. c black",
";. c black",
":. c black",
">. c black",
",. c black",
"<. c black",
"1. c black",
"2. c black",
"3. c black",
"4. c black",
"5. c black",
"6. c black",
"7. c black",
"8. c black",
"9. c black",
"0. c black",
"q. c black",
"w. c black",
"e. c black",
"r. c black",
"t. c black",
"y. c black",
"u. c black",
/* pixels */
"E E E E E E E E E E E E E E E E E E E E E E E E E E E E E E E E E E E E E E E E E E E E E E E E E E ",
"E E E E E E E E E E E E E E E E E E E E E E E E E E E E E E E E E E E E E E E E E E E E E E E E E E ",
"E E E E E E E E E E E E E E E E E E E E E E E E E E E E E E E E E E E E E E E E E E E E E E E E E E ",
"E E E E E E E E E E E E E E E E E E E E E E E E E E E E E E E E E E E E E E E E E E E E E E E E E E ",
"E E E E E E E E E E E E E E E E E E E E E E E E E E E E E E E E E E E E E E E E E E E E E E E E E E ",
"E E E E E E E E E E E E E E E E T + H > E E E E E E E E E E E E E E E E E E E E E E E E E E E E E E ",
"E E E E E E E E E E E E E E E + N B U C B + E E E E E E E E E E E E E E E E E E E E E E E E E E E E ",
"E E E E E E E E E E E E E E T @ J q V B o > E E E E E E E E E E E E E E E E E E E E E E E E E E E E ",
"E E E E E E E E E E E E E E T m Z Z w C % c x E E E E E E E E E E E E E E E E E E E E E E E E E E E ",
"E E E E E E E E E E E E E E E f n * U * ; m N T E E E E E E E E E E E E E E E E E E E E E E E E E E ",
"E E E E E E E E E E E E E E E > % $ h r * h = x E E E E E E E E E E E E E E E E E E E E E E E E E E ",
"E E E E E E E E E E E E E E E H $ i A 7 0   < x T E E E E E E E E E E E E E E E E E E E E E E E E E ",
"E E E E E E E E E E E E E E E T x S y . y l & A > x E E E E E E E E E E E E E E E E E E E E E E E E ",
"E E E E E E E E E E E E E E E E E + + & p >   9 O S E E E E E E E E E E E E E E E E E E E E E E E E ",
"E E E E E E E E E E E E E E E E E E E d b B = w 2 D : E E E E E E E E E E E E E E E E E E E E E E E ",
"E E E E E E E E E E E E E E E E E E E   C L v 2 * v O E E E E E E E E E E E E E E E E E E E E E E E ",
"E E E E E E E E E E E E E E E E E E T @ H D P , F v J + E E E E E E E E E E E E E E E E E E E E E E ",
"E E E E E E E E E E E E E E E E E E > J < s ; ; F a e f E E E E E E E E E E E E E E E E E E E E E E ",
"E E E E E E E E E E E E E E E E E E K s   Z F Z F F F $ T E E E E E E E E E E E E E E E E E E E E E ",
"E E E E E E E E E E E E E E E E E x - j f ; F 5 G 5 5 g & E E E E E E E E E E E E E E E E E E E E E ",
"E E E E E E E E E E E E E E E E E   F n p a F 5 k 5 5 5 < E E E E E E E E E E E E E E E E E E E E E ",
"E E E E E E E E E E E E E E E E E @ F F e a 5 5 # # 5 5 B E E E E E E E E E E E E E E E E E E E E E ",
"E E E E E E E E E E E E E E E E d J F F F F 5 # # # # # @ E E E E E E E E E E E E E E E E E E E E E ",
"E E E E E E E E E E E E E E E E N F F F F F k # # # # 5 V E E E E E E E E E E E E E E E E E E E E E ",
"E E E E E E E E E E E E E E E x = F F F G 5 # # # # # # J & E E E E E E E E E E E E E E E E E E E E ",
"E E E E E E E E E E E E E E E N ; ; = P 5 5 5 # # # # # , : E E E E E E E E E E E E E E E E E E E E ",
"E E E E E E E E E E E E E E + D % * : . 5 5 F # # # # ; - M E E E E E E E E E E E E E E E E E E E E ",
"E E E E E E E E E E E E E E E S B < E   5 5 ; G # , Z e e . E E E E E E E E E E E E E E E E E E E E ",
"E E E E E E E E E E E E E E E E E E E   k ; g * = P %     3 & E E E E E E E E E E E E E E E E E E E ",
"E E E E E E E E E E E E E E E E E E E H v - K O - # , X 4 t f E E E E E E E E E E E E E E E E E E E ",
"E E E E E E E E E E E E E E E E E E E x * 5 C * , # # 1 u N & E E E E E E E E E E E E E E E E E E E ",
"E E E E E E E E E E E E E E E E E E E T m , f s v # # R h & E E E E E E E E E E E E E E E E E E E E ",
"E E E E E E E E E E E E E E E E E E E E O * . , # # R R m E E E E E E E E E E E E E E E E E E E E E ",
"E E E E E E E E E E E E E E E E E E E T p $ c g # # R R s Y E E E E E E E E E E E E E E E E E E E E ",
"E E E E E E E E E E E E E E E E E E E & P p % , # G R # # o E E E E E E E E E E E E E E E E E E E E ",
"E E E E E E E E E E E E E E E E E E E . F @ J ; D > $ # # % & E E E E E E E E E E E E E E E E E E E ",
"E E E E E E E E E E E E E E E E E E E o 6 K g 5 c E H F R n o + E E E E E E E E E E E E E E E E E E ",
"E E E E E E E E E E E E E E E E E E E . , K e # N E T b # 5 j @ : E E E E E E E E E E E E E E E E E ",
"E E E E E E E E E E E E E E E E E E E   j 8 ; 5 C T x & p # a G c x E E E E E E E E E E E E E E E E ",
"E E E E E E E E E E E E E E E E E E E I z b # , : E T E T N Z 5 j N E E E E E E E E E E E E E E E E ",
"E E E E E E E E E E E E E E E E E E E d p K R = & E E E E E B # g S x T E E E E E E E E E E E E E E ",
"E E E E E E E E E E E E E E E E E E E & K K R m T E E E E T T c . E + C d E E E E E E E E E E E E E ",
"E E E E E E E E E E E E E E E E E E E x c $ Z   E E E E E E E x d +   $ + E E E E E E E E E E E E E ",
"E E E E E E E E E E E E E E E E E E E + O * P H E E E E E E E E E & . S E E E E E E E E E E E E E E ",
"E E E E E E E E E E E E E E E E E E E T . j L x E E E E E E E E E d m I E E E E E E E E E E E E E E ",
"E E E E E E E E E E E E E E E E E E + f > f & E E E E E E E E E E & m & E E E E E E E E E E E E E E ",
"E E E E E E E E E E E E E E E E T & $ v = , S x & : > S H x + T T > O T E E E E E E E E E E E E E E ",
"E E E E E E E E E E E E E E E E A $ = # R # - % P R R G - p N & x & + E E E E E E E E E E E E E E E ",
"E E E E E E E E E E E E E E E E E T T & > < H I <   f > T T T E E E E E E E E E E E E E E E E E E E ",
"E E E E E E E E E E E E E E E E E E E E E E E E E E E E E E E E E E E E E E E E E E E E E E E E E E "
};
