/* XPM */
static char *_010[] = {
/* columns rows colors chars-per-pixel */
"50 50 128 2 ",
"   c #C9C9C8",
".  c gray72",
"X  c #A8A7A8",
"o  c #989898",
"O  c #F3F3F3",
"+  c #888887",
"@  c #020501",
"#  c #777777",
"$  c #676766",
"%  c gray93",
"&  c #938975",
"*  c #585857",
"=  c #474746",
"-  c #363736",
";  c #151615",
":  c #E4E3E3",
">  c #DDDDDD",
",  c #252625",
"<  c #9797B0",
"1  c #D5D5D5",
"2  c #323151",
"3  c #8E7889",
"4  c #F4F4EE",
"5  c #060E06",
"6  c #BAB8A7",
"7  c #747466",
"8  c #575647",
"9  c #CBBBC3",
"0  c #15142A",
"q  c #484758",
"w  c #87879E",
"e  c #191F16",
"r  c #BDA5A2",
"t  c #E9DDE0",
"y  c #9D8686",
"u  c #262534",
"i  c #786564",
"p  c #7E7F79",
"a  c #11130C",
"s  c #3C3E39",
"d  c #E7E7E8",
"f  c #C2C2C5",
"g  c #292E25",
"h  c #5E5F5A",
"j  c #4C4F4B",
"k  c #0E0907",
"l  c #DFD4D3",
"z  c #07080D",
"x  c #6B6E68",
"c  c #B5ACB5",
"v  c gray97",
"b  c #9E9F9C",
"n  c #1E1C1E",
"m  c #8E8F8C",
"M  c #342D31",
"N  c #DEE3DE",
"B  c #AEAFAC",
"V  c #B2B2B4",
"C  c #606064",
"Z  c #BFBFBC",
"A  c #1F2120",
"S  c #D3CFD5",
"D  c gray81",
"F  c #505152",
"G  c #0E110F",
"H  c #0E0C0E",
"J  c #404142",
"K  c #919293",
"L  c #6F6F70",
"P  c #2D2E2F",
"I  c #D6DCDB",
"U  c #A1A1A4",
"Y  c #E6EBEA",
"T  c #FBFBFB",
"R  c black",
"E  c white",
"W  c black",
"Q  c black",
"!  c black",
"~  c black",
"^  c black",
"/  c black",
"(  c black",
")  c black",
"_  c black",
"`  c black",
"'  c black",
"]  c black",
"[  c black",
"{  c black",
"}  c black",
"|  c black",
" . c black",
".. c black",
"X. c black",
"o. c black",
"O. c black",
"+. c black",
"@. c black",
"#. c black",
"$. c black",
"%. c black",
"&. c black",
"*. c black",
"=. c black",
"-. c black",
";. c black",
":. c black",
">. c black",
",. c black",
"<. c black",
"1. c black",
"2. c black",
"3. c black",
"4. c black",
"5. c black",
"6. c black",
"7. c black",
"8. c black",
"9. c black",
"0. c black",
"q. c black",
"w. c black",
"e. c black",
"r. c black",
"t. c black",
"y. c black",
"u. c black",
/* pixels */
"E E E E E E E E E E E E E E E E E E E E E E E E E E E E E E E E E E E E E E E E E E E E E E E E E E ",
"E E E E E E E E E E E E E E E E E E E E E E E E E E E E E E E E E E E E E E E E E E E E E E E E E E ",
"E E E E E E E E E E E E E E E E E E E E E E E E E E E E E E E E E E E E E E E E E E E E E E E E E E ",
"E E E E E E E E E E E E E E E E E E E E E E E E E E E E E E E E E E E E E E E E E E E E E E E E E E ",
"E E E E E E E E E E E E E E E E E E v > E E E E E E E E E E E E E E E E E E E E E E E E E E E E E E ",
"E E E E E E E E E E E E E E E E > f X Z X 1 E E E E E E E E E E E E E E E E E E E E E E E E E E E E ",
"E E E E E E E E E E E E E E E 1 p b m X f X E E E E E E E E E E E E E E E E E E E E E E E E E E E E ",
"E E E E E E E E E E E E E E E . u 0 q . b U E E E E E E E E E E E E E E E E E E E E E E E E E E E E ",
"E E E E E E E E E E E E E E E > P , # b e # E E E E E E E E E E E E E E E E E E E E E E E E E E E E ",
"E E E E E E E E E E E E E E E T * $ # x * - 1 E E E E E E E E E E E E E E E E E E E E E E E E E E E ",
"E E E E E E E E E E E E E E E E B h y & p h m v E E E E E E E E E E E E E E E E E E E E E E E E E E ",
"E E E E E E E E E E E E E E E E d X r l D c Y N E E E E E E E E E E E E E E E E E E E E E E E E E E ",
"E E E E E E E E E E E E E E E E E T c p D b D + D T E E E E E E E E E E E E E E E E E E E E E E E E ",
"E E E E E E E E E E E E E E E E E E O C 3 f f 2 F 1 E E E E E E E E E E E E E E E E E E E E E E E E ",
"E E E E E E E E E E E E E E E E E E v $ M w < - ; D E E E E E E E E E E E E E E E E E E E E E E E E ",
"E E E E E E E E E E E E E E E E E E O F P - P J ; Z E E E E E E E E E E E E E E E E E E E E E E E E ",
"E E E E E E E E E E E E E E E E E E O F , G ; A n p T E E E E E E E E E E E E E E E E E E E E E E E ",
"E E E E E E E E E E E E E E E E E E O * ; H ; P , , > E E E E E E E E E E E E E E E E E E E E E E E ",
"E E E E E E E E E E E E E E E E E E E L G H G P g @ # T E E E E E E E E E E E E E E E E E E E E E E ",
"E E E E E E E E E E E E E E E E E E E # G G H P , z a f E E E E E E E E E E E E E E E E E E E E E E ",
"E E E E E E E E E E E E E E E E E E E m H A ; - ; G @ x v E E E E E E E E E E E E E E E E E E E E E ",
"E E E E E E E E E E E E E E E E E E E b G ; A ; @ @ @ 5   E E E E E E E E E E E E E E E E E E E E E ",
"E E E E E E E E E E E E E E E E E E E X e , ; 5 @ @ @ @ # E E E E E E E E E E E E E E E E E E E E E ",
"E E E E E E E E E E E E E E E E E E E X , ; e @ 5 @ @ @ = O E E E E E E E E E E E E E E E E E E E E ",
"E E E E E E E E E E E E E E E E E E E B A a 5 @ - s 5 @ j O E E E E E E E E E E E E E E E E E E E E ",
"E E E E E E E E E E E E E E E E E E E D * # - k @ n 5 @ s % E E E E E E E E E E E E E E E E E E E E ",
"E E E E E E E E E E E E E E E E E E E S C s - @ @ @ @ @ + T E E E E E E E E E E E E E E E E E E E E ",
"E E E E E E E E E E E E E E E E E E E >   o h F g e , U % E E E E E E E E E E E E E E E E E E E E E ",
"E E E E E E E E E E E E E E E E E E E t t 9 * P G 5 ; f v T E E E E E E E E E E E E E E E E E E E E ",
"E E E E E E E E E E E E E E E E E E E > r 6 5 @ 5 5 @ o : E E E E E E E E E E E E E E E E E E E E E ",
"E E E E E E E E E E E E E E E E E E E : i   V e 5 H 5 7 . O E E E E E E E E E E E E E E E E E E E E ",
"E E E E E E E E E E E E E E E E E E E E d E : A @ 5 5 - V B E E E E E E E E E E E E E E E E E E E E ",
"E E E E E E E E E E E E E E E E E E E E T T I ; @ 5 5 5 B * : E E E E E E E E E E E E E E E E E E E ",
"E E E E E E E E E E E E E E E E E E E E T T > n R @ 5 @ + $ o E E E E E E E E E E E E E E E E E E E ",
"E E E E E E E E E E E E E E E E E E E E E E D H R R @ @ 8 # J : E E E E E E E E E E E E E E E E E E ",
"E E E E E E E E E E E E E E E E E E E E E E Z @ R @ @ G A # L X E E E E E E E E E E E E E E E E E E ",
"E E E E E E E E E E E E E E E E E E E E E E . @ R R + D J L m + % E E E E E E E E E E E E E E E E E ",
"E E E E E E E E E E E E E E E E E E E E E E V @ R @   E U n + L V E E E E E E E E E E E E E E E E E ",
"E E E E E E E E E E E E E E E E E E E E E E b @ R J % E % F j + p : E E E E E E E E E E E E E E E E ",
"E E E E E E E E E E E E E E E E E E E E E E m @ R + T : T 1 P # $ o T E E E E E E E E E E E E E E E ",
"E E E E E E E E E E E E E E E E E E E E E T L R @ Z E T T E B A o # S E E E E E E E E E E E E E E E ",
"E E E E E E E E E E E E E E E E E E E E E % J G p O E E E E v m = + o v E E E E E E E E E E E E E E ",
"E E E E E E E E E E E E E E E E E E E E E : B # S E E E E E E v K   B v E E E E E E E E E E E E E E ",
"E E E E E E E E E E E E E E E E E E E E E v D 1 O E E E E E E E E T I D d E E E E E E E E E E E E E ",
"E E E E E E E E E E E E E E E E E E E E O   . . 4 E E E E E E E   . * o D E E E E E E E E E E E E E ",
"E E E E E E E E E E E E E E E E E E T   h z @ F Z d O E E E E O U m Z > v E E E E E E E E E E E E E ",
"E E E E E E E E E E E E E E E E E E v U G @ @ @ @ M j K . Z V p + b f % E E E E E E E E E E E E E E ",
"E E E E E E E E E E E E E E E E E E E T > 1 o C = J J b 1 > : d v v T E E E E E E E E E E E E E E E ",
"E E E E E E E E E E E E E E E E E E E E E E E T T T T E E E E E E E E E E E E E E E E E E E E E E E ",
"E E E E E E E E E E E E E E E E E E E E E E E E E E E E E E E E E E E E E E E E E E E E E E E E E E "
};
