/* XPM */
static char *_003[] = {
/* columns rows colors chars-per-pixel */
"50 50 128 2 ",
"   c #C9C9C8",
".  c gray72",
"X  c #A8A7A8",
"o  c #989898",
"O  c #F3F3F3",
"+  c #888887",
"@  c #020501",
"#  c #777777",
"$  c #676766",
"%  c gray93",
"&  c #938975",
"*  c #585857",
"=  c #474746",
"-  c #363736",
";  c #151615",
":  c #B4B4CC",
">  c #E4E3E3",
",  c #DDDDDD",
"<  c #252625",
"1  c #D5D5D5",
"2  c #545370",
"3  c #D6D6C8",
"4  c #060E06",
"5  c #BAB8A7",
"6  c #575647",
"7  c #49394A",
"8  c #CBBBC3",
"9  c #676777",
"0  c #191F16",
"q  c #E9DDE0",
"w  c #9D8686",
"e  c #584846",
"r  c #7E7F79",
"t  c #11130C",
"y  c #3C3E39",
"u  c #DDDCD3",
"i  c #E7E7E8",
"p  c #C2C2C5",
"a  c #544A57",
"s  c #292E25",
"d  c #5E5F5A",
"f  c #4C4F4B",
"g  c #0E0907",
"h  c #DFD4D3",
"j  c #07080D",
"k  c #6B6E68",
"l  c #B5ACB5",
"z  c gray97",
"x  c #9E9F9C",
"c  c #1E1C1E",
"v  c #8E8F8C",
"b  c #342D31",
"n  c #808085",
"m  c #DEE3DE",
"M  c #AEAFAC",
"N  c #B2B2B4",
"B  c #EFF3F4",
"V  c #606064",
"C  c #BFBFBC",
"Z  c #1F2120",
"A  c gray81",
"S  c #505152",
"D  c #0E110F",
"F  c #0E0C0E",
"G  c #D6DBD7",
"H  c #404142",
"J  c #919293",
"K  c #6F6F70",
"L  c #2D2E2F",
"P  c #D6DCDB",
"I  c #A1A1A4",
"U  c #E6EBEA",
"Y  c #FBFBFB",
"T  c black",
"R  c white",
"E  c black",
"W  c black",
"Q  c black",
"!  c black",
"~  c black",
"^  c black",
"/  c black",
"(  c black",
")  c black",
"_  c black",
"`  c black",
"'  c black",
"]  c black",
"[  c black",
"{  c black",
"}  c black",
"|  c black",
" . c black",
".. c black",
"X. c black",
"o. c black",
"O. c black",
"+. c black",
"@. c black",
"#. c black",
"$. c black",
"%. c black",
"&. c black",
"*. c black",
"=. c black",
"-. c black",
";. c black",
":. c black",
">. c black",
",. c black",
"<. c black",
"1. c black",
"2. c black",
"3. c black",
"4. c black",
"5. c black",
"6. c black",
"7. c black",
"8. c black",
"9. c black",
"0. c black",
"q. c black",
"w. c black",
"e. c black",
"r. c black",
"t. c black",
"y. c black",
"u. c black",
/* pixels */
"R R R R R R R R R R R R R R R R R R R R R R R R R R R R R R R R R R R R R R R R R R R R R R R R R R ",
"R R R R R R R R R R R R R R R R R R R R R R R R R R R R R R R R R R R R R R R R R R R R R R R R R R ",
"R R R R R R R R R R R R R R R R R R R R R R R R R R R R R R R R R R R R R R R R R R R R R R R R R R ",
"R R R R R R R R R R R R R R R R R R R R R R R R R R R R R R R R R R R R R R R R R R R R R R R R R R ",
"R R R R R R R R R R R R R R R R R R R R R R R R R R R R R R R R R R R R R R R R R R R R R R R R R R ",
"R R R R R R R R R R R R R R R R R R R R R R R R R R R R R R R R R R R R R R R R R R R R R R R R R R ",
"R R R R R R R R R R R R R R R z U , z R R R R R R R R R R R R R R R R R R R R R R R R R R R R R R R ",
"R R R R R R R R R R R R R R , X o X . J % R R R R R R R R R R R R R R R R R R R R R R R R R R R R R ",
"R R R R R R R R R R R R R   S L 7 n A # z R R R R R R R R R R R R R R R R R R R R R R R R R R R R R ",
"R R R R R R R R R R R R R M c Z - X n H p A z R R R R R R R R R R R R R R R R R R R R R R R R R R R ",
"R R R R R R R R R R R R R > f y v # = L r n Y R R R R R R R R R R R R R R R R R R R R R R R R R R R ",
"R R R R R R R R R R R R R i = K $ w l r o + O R R R R R R R R R R R R R R R R R R R R R R R R R R R ",
"R R R R R R R R R R R R R > K y 5 8 q 8 z O % , R R R R R R R R R R R R R R R R R R R R R R R R R R ",
"R R R R R R R R R R R R R R z X C + x 3 % . M A % R R R R R R R R R R R R R R R R R R R R R R R R R ",
"R R R R R R R R R R R R R R R z , z n X N : 9 n C R R R R R R R R R R R R R R R R R R R R R R R R R ",
"R R R R R R R R R R R R R R R R R z f o a 9 2 - r R R R R R R R R R R R R R R R R R R R R R R R R R ",
"R R R R R R R R R R R R R R R Y Y 1 < y H I - D y Y R R R R R R R R R R R R R R R R R R R R R R R R ",
"R R R R R R R R R R R R R R R R R   ; ; D j 4 4 t   R R R R R R R R R R R R R R R R R R R R R R R R ",
"R R R R R R R R R R R R R R R R R   4 F j t 4 F F K Y R R R R R R R R R R R R R R R R R R R R R R R ",
"R R R R R R R R R R R R R R R R R   4 4 4 j 4 4 4 f O R R R R R R R R R R R R R R R R R R R R R R R ",
"R R R R R R R R R R R R R R R R R p D F ; 4 4 4 4 < i R R R R R R R R R R R R R R R R R R R R R R R ",
"R R R R R R R R R R R R R R R R R M j 4 ; 4 @ @ @ 4 p R R R R R R R R R R R R R R R R R R R R R R R ",
"R R R R R R R R R R R R R R R R R + j ; - @ @ @ @ @ o R R R R R R R R R R R R R R R R R R R R R R R ",
"R R R R R R R R R R R R R R R R R n 4 f d @ @ @ @ @ o R R R R R R R R R R R R R R R R R R R R R R R ",
"R R R R R R R R R R R R R R R Y U H f + @ @ D t @ @ r R R R R R R R R R R R R R R R R R R R R R R R ",
"R R R R R R R R R R R R R R O Y M - K < @ @ @ @ @ @ y O R R R R R R R R R R R R R R R R R R R R R R ",
"R R R R R R R R R R R R R R Y Y r b H D @ ; @ @ @ @ D A R R R R R R R R R R R R R R R R R R R R R R ",
"R R R R R R R R R R R R R R R N o - L @ @ ; L 0 @ T D N R R R R R R R R R R R R R R R R R R R R R R ",
"R R R R R R R R R R R R R R R A u . t c Z @ ; < t L K i R R R R R R R R R R R R R R R R R R R R R R ",
"R R R R R R R R R R R R R R R   h & y t H H Z < v < p R R R R R R R R R R R R R R R R R R R R R R R ",
"R R R R R R R R R R R R R R R 1 C r 8 < 4 D @ L . T I R R R R R R R R R R R R R R R R R R R R R R R ",
"R R R R R R R R R R R R R R R R x e w ; @ 4 @ ; C @ r R R R R R R R R R R R R R R R R R R R R R R R ",
"R R R R R R R R R R R R R R R R C @ @ @ T @ @ ; C t s i R R R R R R R R R R R R R R R R R R R R R R ",
"R R R R R R R R R R R R R R R R   @ @ @ @ @ @ ; M = F I Y R R R R R R R R R R R R R R R R R R R R R ",
"R R R R R R R R R R R R R R R R G 4 @ @ T @ @ < + J @ y P R R R R R R R R R R R R R R R R R R R R R ",
"R R R R R R R R R R R R R R R R i < @ @ T @ T Z H x T * v Y R R R R R R R R R R R R R R R R R R R R ",
"R R R R R R R R R R R R R R R R O d @ @ @ @ @ $ d + L c k 1 R R R R R R R R R R R R R R R R R R R R ",
"R R R R R R R R R R R R R R R R R r @ @ 0 @ @ 1 G n p S # r O R R R R R R R R R R R R R R R R R R R ",
"R R R R R R R R R R R R R R R R R + @ 4 ; @ @ > Y d J p f L I Y R R R R R R R R R R R R R R R R R R ",
"R R R R R R R R R R R R R R R R R o @ Z Z @ T G R , S v , V f A R R R R R R R R R R R R R R R R R R ",
"R R R R R R R R R R R R R R R R R M ; < 4 @ f % z R m d J A k f % R R R R R R R R R R R R R R R R R ",
"R R R R R R R R R R R R R R R R R N - F g T + R R R R U K o > J X Y R R R R R R R R R R R R R R R R ",
"R R R R R R R R R R R R R R R R R x b f 0 f > R R R R R % o o % A % R R R R R R R R R R R R R R R R ",
"R R R R R R R R R R R R R R R R R P , G M   R R R R R R R R . P z O R R R R R R R R R R R R R R R R ",
"R R R R R R R R R R R R R R R R R R m p C i Y R R R R R R R R % i r m R R R R R R R R R R R R R R R ",
"R R R R R R R R R R R R R R R R R P   C X > z R R R R R R R % v I k M R R R R R R R R R R R R R R R ",
"R R R R R R R R R R R R R R R % X H L 0 L p % U m > i Y R % C d # o O R R R R R R R R R R R R R R R ",
"R R R R R R R R R R R R R R z C J D T @ T b 6 y @ @ ; n x p C I X i R R R R R R R R R R R R R R R R ",
"R R R R R R R R R R R R R R R R z m A   A   C   C p p P > , m i B Y R R R R R R R R R R R R R R R R ",
"R R R R R R R R R R R R R R R R R R R R R R R R R R R R R R R R R R R R R R R R R R R R R R R R R R "
};
